<mxfile host="app.diagrams.net" modified="2023-03-04T18:55:54.492Z" agent="5.0 (Windows NT 10.0; Win64; x64) AppleWebKit/537.36 (KHTML, like Gecko) Chrome/110.0.0.0 Safari/537.36" etag="DDlSXyYgOO-1Sco3830s" version="21.0.2" type="github">
  <diagram name="Page-1" id="9f46799a-70d6-7492-0946-bef42562c5a5">
    <mxGraphModel dx="7360" dy="4128" grid="1" gridSize="10" guides="1" tooltips="1" connect="1" arrows="1" fold="1" page="1" pageScale="1" pageWidth="1100" pageHeight="850" background="none" math="0" shadow="0">
      <root>
        <mxCell id="0" />
        <mxCell id="1" parent="0" />
        <mxCell id="X9pTo2VU-LmLKZ8eIbQH-54" value="" style="whiteSpace=wrap;html=1;aspect=fixed;" vertex="1" parent="1">
          <mxGeometry x="380" y="910" width="680" height="680" as="geometry" />
        </mxCell>
        <mxCell id="X9pTo2VU-LmLKZ8eIbQH-51" value="" style="rounded=0;whiteSpace=wrap;html=1;" vertex="1" parent="1">
          <mxGeometry x="-1580" y="-540" width="860" height="300" as="geometry" />
        </mxCell>
        <mxCell id="X9pTo2VU-LmLKZ8eIbQH-49" value="" style="rounded=0;whiteSpace=wrap;html=1;" vertex="1" parent="1">
          <mxGeometry x="-1320" y="-730" width="590" height="120" as="geometry" />
        </mxCell>
        <mxCell id="X9pTo2VU-LmLKZ8eIbQH-48" value="" style="rounded=0;whiteSpace=wrap;html=1;" vertex="1" parent="1">
          <mxGeometry x="-1020" y="-890" width="660" height="120" as="geometry" />
        </mxCell>
        <mxCell id="X9pTo2VU-LmLKZ8eIbQH-47" value="" style="rounded=0;whiteSpace=wrap;html=1;" vertex="1" parent="1">
          <mxGeometry x="-880" y="-1170" width="710" height="210" as="geometry" />
        </mxCell>
        <mxCell id="X9pTo2VU-LmLKZ8eIbQH-45" value="" style="whiteSpace=wrap;html=1;aspect=fixed;" vertex="1" parent="1">
          <mxGeometry x="-390" y="-1470" width="250" height="250" as="geometry" />
        </mxCell>
        <mxCell id="78961159f06e98e8-123" style="edgeStyle=orthogonalEdgeStyle;html=1;labelBackgroundColor=none;startFill=0;startSize=8;endArrow=open;endFill=0;endSize=16;fontFamily=Verdana;fontSize=12;dashed=1;exitX=1;exitY=0.5;exitDx=0;exitDy=0;entryX=0;entryY=0.5;entryDx=0;entryDy=0;" parent="1" source="78961159f06e98e8-21" target="78961159f06e98e8-70" edge="1">
          <mxGeometry relative="1" as="geometry">
            <Array as="points">
              <mxPoint x="330" y="122" />
              <mxPoint x="330" y="1169" />
            </Array>
          </mxGeometry>
        </mxCell>
        <mxCell id="X9pTo2VU-LmLKZ8eIbQH-3" style="edgeStyle=orthogonalEdgeStyle;rounded=0;orthogonalLoop=1;jettySize=auto;html=1;entryX=0;entryY=0.5;entryDx=0;entryDy=0;" edge="1" parent="1" source="78961159f06e98e8-17" target="X9pTo2VU-LmLKZ8eIbQH-1">
          <mxGeometry relative="1" as="geometry" />
        </mxCell>
        <mxCell id="78961159f06e98e8-17" value="Authentication" style="swimlane;html=1;fontStyle=1;align=center;verticalAlign=top;childLayout=stackLayout;horizontal=1;startSize=26;horizontalStack=0;resizeParent=1;resizeLast=0;collapsible=1;marginBottom=0;swimlaneFillColor=#ffffff;rounded=0;shadow=0;comic=0;labelBackgroundColor=none;strokeWidth=1;fillColor=none;fontFamily=Verdana;fontSize=12" parent="1" vertex="1">
          <mxGeometry x="90" y="83" width="200" height="227" as="geometry" />
        </mxCell>
        <mxCell id="78961159f06e98e8-21" value="POST /v1/signup" style="text;html=1;strokeColor=none;fillColor=none;align=left;verticalAlign=top;spacingLeft=4;spacingRight=4;whiteSpace=wrap;overflow=hidden;rotatable=0;points=[[0,0.5],[1,0.5]];portConstraint=eastwest;" parent="78961159f06e98e8-17" vertex="1">
          <mxGeometry y="26" width="200" height="26" as="geometry" />
        </mxCell>
        <mxCell id="78961159f06e98e8-23" value="POST /v1/login" style="text;html=1;strokeColor=none;fillColor=none;align=left;verticalAlign=top;spacingLeft=4;spacingRight=4;whiteSpace=wrap;overflow=hidden;rotatable=0;points=[[0,0.5],[1,0.5]];portConstraint=eastwest;" parent="78961159f06e98e8-17" vertex="1">
          <mxGeometry y="52" width="200" height="26" as="geometry" />
        </mxCell>
        <mxCell id="78961159f06e98e8-25" value="POST /v1/forgetpassword" style="text;html=1;strokeColor=none;fillColor=none;align=left;verticalAlign=top;spacingLeft=4;spacingRight=4;whiteSpace=wrap;overflow=hidden;rotatable=0;points=[[0,0.5],[1,0.5]];portConstraint=eastwest;" parent="78961159f06e98e8-17" vertex="1">
          <mxGeometry y="78" width="200" height="26" as="geometry" />
        </mxCell>
        <mxCell id="78961159f06e98e8-26" value="PATCH /v1/resetpassword/:token" style="text;html=1;strokeColor=none;fillColor=none;align=left;verticalAlign=top;spacingLeft=4;spacingRight=4;whiteSpace=wrap;overflow=hidden;rotatable=0;points=[[0,0.5],[1,0.5]];portConstraint=eastwest;" parent="78961159f06e98e8-17" vertex="1">
          <mxGeometry y="104" width="200" height="26" as="geometry" />
        </mxCell>
        <mxCell id="78961159f06e98e8-24" value="PATCH /v1/updatepassword" style="text;html=1;strokeColor=none;fillColor=none;align=left;verticalAlign=top;spacingLeft=4;spacingRight=4;whiteSpace=wrap;overflow=hidden;rotatable=0;points=[[0,0.5],[1,0.5]];portConstraint=eastwest;" parent="78961159f06e98e8-17" vertex="1">
          <mxGeometry y="130" width="200" height="26" as="geometry" />
        </mxCell>
        <mxCell id="78961159f06e98e8-19" value="" style="line;html=1;strokeWidth=1;fillColor=none;align=left;verticalAlign=middle;spacingTop=-1;spacingLeft=3;spacingRight=3;rotatable=0;labelPosition=right;points=[];portConstraint=eastwest;" parent="78961159f06e98e8-17" vertex="1">
          <mxGeometry y="156" width="200" height="8" as="geometry" />
        </mxCell>
        <mxCell id="78961159f06e98e8-20" value="+ method(type): type" style="text;html=1;strokeColor=none;fillColor=none;align=left;verticalAlign=top;spacingLeft=4;spacingRight=4;whiteSpace=wrap;overflow=hidden;rotatable=0;points=[[0,0.5],[1,0.5]];portConstraint=eastwest;" parent="78961159f06e98e8-17" vertex="1">
          <mxGeometry y="164" width="200" height="26" as="geometry" />
        </mxCell>
        <mxCell id="78961159f06e98e8-27" value="+ method(type): type" style="text;html=1;strokeColor=none;fillColor=none;align=left;verticalAlign=top;spacingLeft=4;spacingRight=4;whiteSpace=wrap;overflow=hidden;rotatable=0;points=[[0,0.5],[1,0.5]];portConstraint=eastwest;" parent="78961159f06e98e8-17" vertex="1">
          <mxGeometry y="190" width="200" height="26" as="geometry" />
        </mxCell>
        <mxCell id="78961159f06e98e8-122" style="edgeStyle=elbowEdgeStyle;html=1;labelBackgroundColor=none;startFill=0;startSize=8;endArrow=open;endFill=0;endSize=16;fontFamily=Verdana;fontSize=12;elbow=vertical;dashed=1;" parent="1" source="78961159f06e98e8-30" target="78961159f06e98e8-43" edge="1">
          <mxGeometry relative="1" as="geometry" />
        </mxCell>
        <mxCell id="78961159f06e98e8-30" value="Classname" style="swimlane;html=1;fontStyle=1;align=center;verticalAlign=top;childLayout=stackLayout;horizontal=1;startSize=26;horizontalStack=0;resizeParent=1;resizeLast=0;collapsible=1;marginBottom=0;swimlaneFillColor=#ffffff;rounded=0;shadow=0;comic=0;labelBackgroundColor=none;strokeWidth=1;fillColor=none;fontFamily=Verdana;fontSize=12" parent="1" vertex="1">
          <mxGeometry x="900" y="-70" width="160" height="277" as="geometry" />
        </mxCell>
        <mxCell id="78961159f06e98e8-31" value="+ field: type" style="text;html=1;strokeColor=none;fillColor=none;align=left;verticalAlign=top;spacingLeft=4;spacingRight=4;whiteSpace=wrap;overflow=hidden;rotatable=0;points=[[0,0.5],[1,0.5]];portConstraint=eastwest;" parent="78961159f06e98e8-30" vertex="1">
          <mxGeometry y="26" width="160" height="26" as="geometry" />
        </mxCell>
        <mxCell id="78961159f06e98e8-32" value="+ field: type" style="text;html=1;strokeColor=none;fillColor=none;align=left;verticalAlign=top;spacingLeft=4;spacingRight=4;whiteSpace=wrap;overflow=hidden;rotatable=0;points=[[0,0.5],[1,0.5]];portConstraint=eastwest;" parent="78961159f06e98e8-30" vertex="1">
          <mxGeometry y="52" width="160" height="26" as="geometry" />
        </mxCell>
        <mxCell id="78961159f06e98e8-33" value="+ field: type" style="text;html=1;strokeColor=none;fillColor=none;align=left;verticalAlign=top;spacingLeft=4;spacingRight=4;whiteSpace=wrap;overflow=hidden;rotatable=0;points=[[0,0.5],[1,0.5]];portConstraint=eastwest;" parent="78961159f06e98e8-30" vertex="1">
          <mxGeometry y="78" width="160" height="26" as="geometry" />
        </mxCell>
        <mxCell id="78961159f06e98e8-34" value="+ field: type" style="text;html=1;strokeColor=none;fillColor=none;align=left;verticalAlign=top;spacingLeft=4;spacingRight=4;whiteSpace=wrap;overflow=hidden;rotatable=0;points=[[0,0.5],[1,0.5]];portConstraint=eastwest;" parent="78961159f06e98e8-30" vertex="1">
          <mxGeometry y="104" width="160" height="26" as="geometry" />
        </mxCell>
        <mxCell id="78961159f06e98e8-36" value="+ field: type" style="text;html=1;strokeColor=none;fillColor=none;align=left;verticalAlign=top;spacingLeft=4;spacingRight=4;whiteSpace=wrap;overflow=hidden;rotatable=0;points=[[0,0.5],[1,0.5]];portConstraint=eastwest;" parent="78961159f06e98e8-30" vertex="1">
          <mxGeometry y="130" width="160" height="26" as="geometry" />
        </mxCell>
        <mxCell id="78961159f06e98e8-37" value="+ field: type" style="text;html=1;strokeColor=none;fillColor=none;align=left;verticalAlign=top;spacingLeft=4;spacingRight=4;whiteSpace=wrap;overflow=hidden;rotatable=0;points=[[0,0.5],[1,0.5]];portConstraint=eastwest;" parent="78961159f06e98e8-30" vertex="1">
          <mxGeometry y="156" width="160" height="26" as="geometry" />
        </mxCell>
        <mxCell id="78961159f06e98e8-38" value="" style="line;html=1;strokeWidth=1;fillColor=none;align=left;verticalAlign=middle;spacingTop=-1;spacingLeft=3;spacingRight=3;rotatable=0;labelPosition=right;points=[];portConstraint=eastwest;" parent="78961159f06e98e8-30" vertex="1">
          <mxGeometry y="182" width="160" height="8" as="geometry" />
        </mxCell>
        <mxCell id="78961159f06e98e8-39" value="+ method(type): type" style="text;html=1;strokeColor=none;fillColor=none;align=left;verticalAlign=top;spacingLeft=4;spacingRight=4;whiteSpace=wrap;overflow=hidden;rotatable=0;points=[[0,0.5],[1,0.5]];portConstraint=eastwest;" parent="78961159f06e98e8-30" vertex="1">
          <mxGeometry y="190" width="160" height="26" as="geometry" />
        </mxCell>
        <mxCell id="78961159f06e98e8-40" value="+ method(type): type" style="text;html=1;strokeColor=none;fillColor=none;align=left;verticalAlign=top;spacingLeft=4;spacingRight=4;whiteSpace=wrap;overflow=hidden;rotatable=0;points=[[0,0.5],[1,0.5]];portConstraint=eastwest;" parent="78961159f06e98e8-30" vertex="1">
          <mxGeometry y="216" width="160" height="26" as="geometry" />
        </mxCell>
        <mxCell id="78961159f06e98e8-42" value="+ method(type): type" style="text;html=1;strokeColor=none;fillColor=none;align=left;verticalAlign=top;spacingLeft=4;spacingRight=4;whiteSpace=wrap;overflow=hidden;rotatable=0;points=[[0,0.5],[1,0.5]];portConstraint=eastwest;" parent="78961159f06e98e8-30" vertex="1">
          <mxGeometry y="242" width="160" height="26" as="geometry" />
        </mxCell>
        <mxCell id="78961159f06e98e8-43" value="Classname" style="swimlane;html=1;fontStyle=1;align=center;verticalAlign=top;childLayout=stackLayout;horizontal=1;startSize=26;horizontalStack=0;resizeParent=1;resizeLast=0;collapsible=1;marginBottom=0;swimlaneFillColor=#ffffff;rounded=0;shadow=0;comic=0;labelBackgroundColor=none;strokeWidth=1;fillColor=none;fontFamily=Verdana;fontSize=12" parent="1" vertex="1">
          <mxGeometry x="740" y="83" width="160" height="197" as="geometry" />
        </mxCell>
        <mxCell id="78961159f06e98e8-44" value="+ field: type" style="text;html=1;strokeColor=none;fillColor=none;align=left;verticalAlign=top;spacingLeft=4;spacingRight=4;whiteSpace=wrap;overflow=hidden;rotatable=0;points=[[0,0.5],[1,0.5]];portConstraint=eastwest;" parent="78961159f06e98e8-43" vertex="1">
          <mxGeometry y="26" width="160" height="26" as="geometry" />
        </mxCell>
        <mxCell id="78961159f06e98e8-45" value="+ field: type" style="text;html=1;strokeColor=none;fillColor=none;align=left;verticalAlign=top;spacingLeft=4;spacingRight=4;whiteSpace=wrap;overflow=hidden;rotatable=0;points=[[0,0.5],[1,0.5]];portConstraint=eastwest;" parent="78961159f06e98e8-43" vertex="1">
          <mxGeometry y="52" width="160" height="26" as="geometry" />
        </mxCell>
        <mxCell id="78961159f06e98e8-49" value="+ field: type" style="text;html=1;strokeColor=none;fillColor=none;align=left;verticalAlign=top;spacingLeft=4;spacingRight=4;whiteSpace=wrap;overflow=hidden;rotatable=0;points=[[0,0.5],[1,0.5]];portConstraint=eastwest;" parent="78961159f06e98e8-43" vertex="1">
          <mxGeometry y="78" width="160" height="26" as="geometry" />
        </mxCell>
        <mxCell id="78961159f06e98e8-50" value="+ field: type" style="text;html=1;strokeColor=none;fillColor=none;align=left;verticalAlign=top;spacingLeft=4;spacingRight=4;whiteSpace=wrap;overflow=hidden;rotatable=0;points=[[0,0.5],[1,0.5]];portConstraint=eastwest;" parent="78961159f06e98e8-43" vertex="1">
          <mxGeometry y="104" width="160" height="26" as="geometry" />
        </mxCell>
        <mxCell id="78961159f06e98e8-51" value="" style="line;html=1;strokeWidth=1;fillColor=none;align=left;verticalAlign=middle;spacingTop=-1;spacingLeft=3;spacingRight=3;rotatable=0;labelPosition=right;points=[];portConstraint=eastwest;" parent="78961159f06e98e8-43" vertex="1">
          <mxGeometry y="130" width="160" height="8" as="geometry" />
        </mxCell>
        <mxCell id="78961159f06e98e8-52" value="+ method(type): type" style="text;html=1;strokeColor=none;fillColor=none;align=left;verticalAlign=top;spacingLeft=4;spacingRight=4;whiteSpace=wrap;overflow=hidden;rotatable=0;points=[[0,0.5],[1,0.5]];portConstraint=eastwest;" parent="78961159f06e98e8-43" vertex="1">
          <mxGeometry y="138" width="160" height="26" as="geometry" />
        </mxCell>
        <mxCell id="78961159f06e98e8-53" value="+ method(type): type" style="text;html=1;strokeColor=none;fillColor=none;align=left;verticalAlign=top;spacingLeft=4;spacingRight=4;whiteSpace=wrap;overflow=hidden;rotatable=0;points=[[0,0.5],[1,0.5]];portConstraint=eastwest;" parent="78961159f06e98e8-43" vertex="1">
          <mxGeometry y="164" width="160" height="26" as="geometry" />
        </mxCell>
        <mxCell id="78961159f06e98e8-129" style="edgeStyle=elbowEdgeStyle;html=1;labelBackgroundColor=none;startFill=0;startSize=8;endArrow=open;endFill=0;endSize=16;fontFamily=Verdana;fontSize=12;elbow=vertical;dashed=1;" parent="1" source="78961159f06e98e8-69" target="78961159f06e98e8-56" edge="1">
          <mxGeometry relative="1" as="geometry" />
        </mxCell>
        <mxCell id="78961159f06e98e8-56" value="Classname" style="swimlane;html=1;fontStyle=1;align=center;verticalAlign=top;childLayout=stackLayout;horizontal=1;startSize=26;horizontalStack=0;resizeParent=1;resizeLast=0;collapsible=1;marginBottom=0;swimlaneFillColor=#ffffff;rounded=0;shadow=0;comic=0;labelBackgroundColor=none;strokeWidth=1;fillColor=none;fontFamily=Verdana;fontSize=12" parent="1" vertex="1">
          <mxGeometry x="90" y="482.00000000000006" width="160" height="300" as="geometry" />
        </mxCell>
        <mxCell id="78961159f06e98e8-57" value="+ field: type" style="text;html=1;strokeColor=none;fillColor=none;align=left;verticalAlign=top;spacingLeft=4;spacingRight=4;whiteSpace=wrap;overflow=hidden;rotatable=0;points=[[0,0.5],[1,0.5]];portConstraint=eastwest;" parent="78961159f06e98e8-56" vertex="1">
          <mxGeometry y="26" width="160" height="26" as="geometry" />
        </mxCell>
        <mxCell id="78961159f06e98e8-58" value="+ field: type" style="text;html=1;strokeColor=none;fillColor=none;align=left;verticalAlign=top;spacingLeft=4;spacingRight=4;whiteSpace=wrap;overflow=hidden;rotatable=0;points=[[0,0.5],[1,0.5]];portConstraint=eastwest;" parent="78961159f06e98e8-56" vertex="1">
          <mxGeometry y="52" width="160" height="26" as="geometry" />
        </mxCell>
        <mxCell id="78961159f06e98e8-59" value="+ field: type" style="text;html=1;strokeColor=none;fillColor=none;align=left;verticalAlign=top;spacingLeft=4;spacingRight=4;whiteSpace=wrap;overflow=hidden;rotatable=0;points=[[0,0.5],[1,0.5]];portConstraint=eastwest;" parent="78961159f06e98e8-56" vertex="1">
          <mxGeometry y="78" width="160" height="26" as="geometry" />
        </mxCell>
        <mxCell id="78961159f06e98e8-60" value="+ field: type" style="text;html=1;strokeColor=none;fillColor=none;align=left;verticalAlign=top;spacingLeft=4;spacingRight=4;whiteSpace=wrap;overflow=hidden;rotatable=0;points=[[0,0.5],[1,0.5]];portConstraint=eastwest;" parent="78961159f06e98e8-56" vertex="1">
          <mxGeometry y="104" width="160" height="26" as="geometry" />
        </mxCell>
        <mxCell id="78961159f06e98e8-61" value="+ field: type" style="text;html=1;strokeColor=none;fillColor=none;align=left;verticalAlign=top;spacingLeft=4;spacingRight=4;whiteSpace=wrap;overflow=hidden;rotatable=0;points=[[0,0.5],[1,0.5]];portConstraint=eastwest;" parent="78961159f06e98e8-56" vertex="1">
          <mxGeometry y="130" width="160" height="26" as="geometry" />
        </mxCell>
        <mxCell id="78961159f06e98e8-62" value="+ field: type" style="text;html=1;strokeColor=none;fillColor=none;align=left;verticalAlign=top;spacingLeft=4;spacingRight=4;whiteSpace=wrap;overflow=hidden;rotatable=0;points=[[0,0.5],[1,0.5]];portConstraint=eastwest;" parent="78961159f06e98e8-56" vertex="1">
          <mxGeometry y="156" width="160" height="26" as="geometry" />
        </mxCell>
        <mxCell id="78961159f06e98e8-63" value="+ field: type" style="text;html=1;strokeColor=none;fillColor=none;align=left;verticalAlign=top;spacingLeft=4;spacingRight=4;whiteSpace=wrap;overflow=hidden;rotatable=0;points=[[0,0.5],[1,0.5]];portConstraint=eastwest;" parent="78961159f06e98e8-56" vertex="1">
          <mxGeometry y="182" width="160" height="26" as="geometry" />
        </mxCell>
        <mxCell id="78961159f06e98e8-64" value="" style="line;html=1;strokeWidth=1;fillColor=none;align=left;verticalAlign=middle;spacingTop=-1;spacingLeft=3;spacingRight=3;rotatable=0;labelPosition=right;points=[];portConstraint=eastwest;" parent="78961159f06e98e8-56" vertex="1">
          <mxGeometry y="208" width="160" height="8" as="geometry" />
        </mxCell>
        <mxCell id="78961159f06e98e8-65" value="+ method(type): type" style="text;html=1;strokeColor=none;fillColor=none;align=left;verticalAlign=top;spacingLeft=4;spacingRight=4;whiteSpace=wrap;overflow=hidden;rotatable=0;points=[[0,0.5],[1,0.5]];portConstraint=eastwest;" parent="78961159f06e98e8-56" vertex="1">
          <mxGeometry y="216" width="160" height="26" as="geometry" />
        </mxCell>
        <mxCell id="78961159f06e98e8-66" value="+ method(type): type" style="text;html=1;strokeColor=none;fillColor=none;align=left;verticalAlign=top;spacingLeft=4;spacingRight=4;whiteSpace=wrap;overflow=hidden;rotatable=0;points=[[0,0.5],[1,0.5]];portConstraint=eastwest;" parent="78961159f06e98e8-56" vertex="1">
          <mxGeometry y="242" width="160" height="26" as="geometry" />
        </mxCell>
        <mxCell id="78961159f06e98e8-68" value="+ method(type): type" style="text;html=1;strokeColor=none;fillColor=none;align=left;verticalAlign=top;spacingLeft=4;spacingRight=4;whiteSpace=wrap;overflow=hidden;rotatable=0;points=[[0,0.5],[1,0.5]];portConstraint=eastwest;" parent="78961159f06e98e8-56" vertex="1">
          <mxGeometry y="268" width="160" height="26" as="geometry" />
        </mxCell>
        <mxCell id="78961159f06e98e8-130" style="edgeStyle=elbowEdgeStyle;html=1;labelBackgroundColor=none;startFill=0;startSize=8;endArrow=diamondThin;endFill=0;endSize=16;fontFamily=Verdana;fontSize=12;elbow=vertical;" parent="1" source="78961159f06e98e8-82" target="78961159f06e98e8-69" edge="1">
          <mxGeometry relative="1" as="geometry" />
        </mxCell>
        <mxCell id="78961159f06e98e8-69" value="Customer" style="swimlane;html=1;fontStyle=1;align=center;verticalAlign=top;childLayout=stackLayout;horizontal=1;startSize=26;horizontalStack=0;resizeParent=1;resizeLast=0;collapsible=1;marginBottom=0;swimlaneFillColor=#ffffff;rounded=0;shadow=0;comic=0;labelBackgroundColor=none;strokeWidth=1;fillColor=none;fontFamily=Verdana;fontSize=12" parent="1" vertex="1">
          <mxGeometry x="470" y="1130" width="160" height="304" as="geometry" />
        </mxCell>
        <mxCell id="78961159f06e98e8-70" value="POST /v1/customer" style="text;html=1;strokeColor=none;fillColor=none;align=left;verticalAlign=top;spacingLeft=4;spacingRight=4;whiteSpace=wrap;overflow=hidden;rotatable=0;points=[[0,0.5],[1,0.5]];portConstraint=eastwest;" parent="78961159f06e98e8-69" vertex="1">
          <mxGeometry y="26" width="160" height="26" as="geometry" />
        </mxCell>
        <mxCell id="78961159f06e98e8-71" value="GET /v1/customer/verify:" style="text;html=1;strokeColor=none;fillColor=none;align=left;verticalAlign=top;spacingLeft=4;spacingRight=4;whiteSpace=wrap;overflow=hidden;rotatable=0;points=[[0,0.5],[1,0.5]];portConstraint=eastwest;" parent="78961159f06e98e8-69" vertex="1">
          <mxGeometry y="52" width="160" height="26" as="geometry" />
        </mxCell>
        <mxCell id="78961159f06e98e8-72" value="GET /v1/customer/:id" style="text;html=1;strokeColor=none;fillColor=none;align=left;verticalAlign=top;spacingLeft=4;spacingRight=4;whiteSpace=wrap;overflow=hidden;rotatable=0;points=[[0,0.5],[1,0.5]];portConstraint=eastwest;" parent="78961159f06e98e8-69" vertex="1">
          <mxGeometry y="78" width="160" height="26" as="geometry" />
        </mxCell>
        <mxCell id="78961159f06e98e8-74" value="DELETE /v1/customer/:id" style="text;html=1;strokeColor=none;fillColor=none;align=left;verticalAlign=top;spacingLeft=4;spacingRight=4;whiteSpace=wrap;overflow=hidden;rotatable=0;points=[[0,0.5],[1,0.5]];portConstraint=eastwest;" parent="78961159f06e98e8-69" vertex="1">
          <mxGeometry y="104" width="160" height="26" as="geometry" />
        </mxCell>
        <mxCell id="78961159f06e98e8-75" value="+ field: type" style="text;html=1;strokeColor=none;fillColor=none;align=left;verticalAlign=top;spacingLeft=4;spacingRight=4;whiteSpace=wrap;overflow=hidden;rotatable=0;points=[[0,0.5],[1,0.5]];portConstraint=eastwest;" parent="78961159f06e98e8-69" vertex="1">
          <mxGeometry y="130" width="160" height="26" as="geometry" />
        </mxCell>
        <mxCell id="78961159f06e98e8-76" value="+ field: type" style="text;html=1;strokeColor=none;fillColor=none;align=left;verticalAlign=top;spacingLeft=4;spacingRight=4;whiteSpace=wrap;overflow=hidden;rotatable=0;points=[[0,0.5],[1,0.5]];portConstraint=eastwest;" parent="78961159f06e98e8-69" vertex="1">
          <mxGeometry y="156" width="160" height="26" as="geometry" />
        </mxCell>
        <mxCell id="78961159f06e98e8-77" value="" style="line;html=1;strokeWidth=1;fillColor=none;align=left;verticalAlign=middle;spacingTop=-1;spacingLeft=3;spacingRight=3;rotatable=0;labelPosition=right;points=[];portConstraint=eastwest;" parent="78961159f06e98e8-69" vertex="1">
          <mxGeometry y="182" width="160" height="8" as="geometry" />
        </mxCell>
        <mxCell id="78961159f06e98e8-78" value="+ method(type): type" style="text;html=1;strokeColor=none;fillColor=none;align=left;verticalAlign=top;spacingLeft=4;spacingRight=4;whiteSpace=wrap;overflow=hidden;rotatable=0;points=[[0,0.5],[1,0.5]];portConstraint=eastwest;" parent="78961159f06e98e8-69" vertex="1">
          <mxGeometry y="190" width="160" height="26" as="geometry" />
        </mxCell>
        <mxCell id="78961159f06e98e8-79" value="+ method(type): type" style="text;html=1;strokeColor=none;fillColor=none;align=left;verticalAlign=top;spacingLeft=4;spacingRight=4;whiteSpace=wrap;overflow=hidden;rotatable=0;points=[[0,0.5],[1,0.5]];portConstraint=eastwest;" parent="78961159f06e98e8-69" vertex="1">
          <mxGeometry y="216" width="160" height="26" as="geometry" />
        </mxCell>
        <mxCell id="78961159f06e98e8-80" value="+ method(type): type" style="text;html=1;strokeColor=none;fillColor=none;align=left;verticalAlign=top;spacingLeft=4;spacingRight=4;whiteSpace=wrap;overflow=hidden;rotatable=0;points=[[0,0.5],[1,0.5]];portConstraint=eastwest;" parent="78961159f06e98e8-69" vertex="1">
          <mxGeometry y="242" width="160" height="26" as="geometry" />
        </mxCell>
        <mxCell id="78961159f06e98e8-81" value="+ method(type): type" style="text;html=1;strokeColor=none;fillColor=none;align=left;verticalAlign=top;spacingLeft=4;spacingRight=4;whiteSpace=wrap;overflow=hidden;rotatable=0;points=[[0,0.5],[1,0.5]];portConstraint=eastwest;" parent="78961159f06e98e8-69" vertex="1">
          <mxGeometry y="268" width="160" height="26" as="geometry" />
        </mxCell>
        <mxCell id="78961159f06e98e8-128" style="edgeStyle=orthogonalEdgeStyle;html=1;labelBackgroundColor=none;startFill=0;startSize=8;endArrow=block;endFill=0;endSize=16;fontFamily=Verdana;fontSize=12;" parent="1" source="78961159f06e98e8-82" target="78961159f06e98e8-43" edge="1">
          <mxGeometry relative="1" as="geometry">
            <Array as="points">
              <mxPoint x="630" y="430" />
              <mxPoint x="790" y="430" />
            </Array>
          </mxGeometry>
        </mxCell>
        <mxCell id="78961159f06e98e8-82" value="Classname" style="swimlane;html=1;fontStyle=1;align=center;verticalAlign=top;childLayout=stackLayout;horizontal=1;startSize=26;horizontalStack=0;resizeParent=1;resizeLast=0;collapsible=1;marginBottom=0;swimlaneFillColor=#ffffff;rounded=0;shadow=0;comic=0;labelBackgroundColor=none;strokeWidth=1;fillColor=none;fontFamily=Verdana;fontSize=12" parent="1" vertex="1">
          <mxGeometry x="550" y="482.00000000000006" width="160" height="270" as="geometry" />
        </mxCell>
        <mxCell id="78961159f06e98e8-83" value="+ field: type" style="text;html=1;strokeColor=none;fillColor=none;align=left;verticalAlign=top;spacingLeft=4;spacingRight=4;whiteSpace=wrap;overflow=hidden;rotatable=0;points=[[0,0.5],[1,0.5]];portConstraint=eastwest;" parent="78961159f06e98e8-82" vertex="1">
          <mxGeometry y="26" width="160" height="26" as="geometry" />
        </mxCell>
        <mxCell id="78961159f06e98e8-84" value="+ field: type" style="text;html=1;strokeColor=none;fillColor=none;align=left;verticalAlign=top;spacingLeft=4;spacingRight=4;whiteSpace=wrap;overflow=hidden;rotatable=0;points=[[0,0.5],[1,0.5]];portConstraint=eastwest;" parent="78961159f06e98e8-82" vertex="1">
          <mxGeometry y="52" width="160" height="26" as="geometry" />
        </mxCell>
        <mxCell id="78961159f06e98e8-85" value="+ field: type" style="text;html=1;strokeColor=none;fillColor=none;align=left;verticalAlign=top;spacingLeft=4;spacingRight=4;whiteSpace=wrap;overflow=hidden;rotatable=0;points=[[0,0.5],[1,0.5]];portConstraint=eastwest;" parent="78961159f06e98e8-82" vertex="1">
          <mxGeometry y="78" width="160" height="26" as="geometry" />
        </mxCell>
        <mxCell id="78961159f06e98e8-86" value="+ field: type" style="text;html=1;strokeColor=none;fillColor=none;align=left;verticalAlign=top;spacingLeft=4;spacingRight=4;whiteSpace=wrap;overflow=hidden;rotatable=0;points=[[0,0.5],[1,0.5]];portConstraint=eastwest;" parent="78961159f06e98e8-82" vertex="1">
          <mxGeometry y="104" width="160" height="26" as="geometry" />
        </mxCell>
        <mxCell id="78961159f06e98e8-87" value="+ field: type" style="text;html=1;strokeColor=none;fillColor=none;align=left;verticalAlign=top;spacingLeft=4;spacingRight=4;whiteSpace=wrap;overflow=hidden;rotatable=0;points=[[0,0.5],[1,0.5]];portConstraint=eastwest;" parent="78961159f06e98e8-82" vertex="1">
          <mxGeometry y="130" width="160" height="26" as="geometry" />
        </mxCell>
        <mxCell id="78961159f06e98e8-88" value="+ field: type" style="text;html=1;strokeColor=none;fillColor=none;align=left;verticalAlign=top;spacingLeft=4;spacingRight=4;whiteSpace=wrap;overflow=hidden;rotatable=0;points=[[0,0.5],[1,0.5]];portConstraint=eastwest;" parent="78961159f06e98e8-82" vertex="1">
          <mxGeometry y="156" width="160" height="26" as="geometry" />
        </mxCell>
        <mxCell id="78961159f06e98e8-89" value="+ field: type" style="text;html=1;strokeColor=none;fillColor=none;align=left;verticalAlign=top;spacingLeft=4;spacingRight=4;whiteSpace=wrap;overflow=hidden;rotatable=0;points=[[0,0.5],[1,0.5]];portConstraint=eastwest;" parent="78961159f06e98e8-82" vertex="1">
          <mxGeometry y="182" width="160" height="26" as="geometry" />
        </mxCell>
        <mxCell id="78961159f06e98e8-90" value="" style="line;html=1;strokeWidth=1;fillColor=none;align=left;verticalAlign=middle;spacingTop=-1;spacingLeft=3;spacingRight=3;rotatable=0;labelPosition=right;points=[];portConstraint=eastwest;" parent="78961159f06e98e8-82" vertex="1">
          <mxGeometry y="208" width="160" height="8" as="geometry" />
        </mxCell>
        <mxCell id="78961159f06e98e8-91" value="+ method(type): type" style="text;html=1;strokeColor=none;fillColor=none;align=left;verticalAlign=top;spacingLeft=4;spacingRight=4;whiteSpace=wrap;overflow=hidden;rotatable=0;points=[[0,0.5],[1,0.5]];portConstraint=eastwest;" parent="78961159f06e98e8-82" vertex="1">
          <mxGeometry y="216" width="160" height="26" as="geometry" />
        </mxCell>
        <mxCell id="78961159f06e98e8-94" value="+ method(type): type" style="text;html=1;strokeColor=none;fillColor=none;align=left;verticalAlign=top;spacingLeft=4;spacingRight=4;whiteSpace=wrap;overflow=hidden;rotatable=0;points=[[0,0.5],[1,0.5]];portConstraint=eastwest;" parent="78961159f06e98e8-82" vertex="1">
          <mxGeometry y="242" width="160" height="26" as="geometry" />
        </mxCell>
        <mxCell id="78961159f06e98e8-127" style="edgeStyle=orthogonalEdgeStyle;html=1;labelBackgroundColor=none;startFill=0;startSize=8;endArrow=block;endFill=0;endSize=16;fontFamily=Verdana;fontSize=12;" parent="1" source="78961159f06e98e8-95" target="78961159f06e98e8-43" edge="1">
          <mxGeometry relative="1" as="geometry" />
        </mxCell>
        <mxCell id="78961159f06e98e8-95" value="Classname" style="swimlane;html=1;fontStyle=1;align=center;verticalAlign=top;childLayout=stackLayout;horizontal=1;startSize=26;horizontalStack=0;resizeParent=1;resizeLast=0;collapsible=1;marginBottom=0;swimlaneFillColor=#ffffff;rounded=0;shadow=0;comic=0;labelBackgroundColor=none;strokeWidth=1;fillColor=none;fontFamily=Verdana;fontSize=12" parent="1" vertex="1">
          <mxGeometry x="740" y="482" width="160" height="168" as="geometry" />
        </mxCell>
        <mxCell id="78961159f06e98e8-96" value="+ field: type" style="text;html=1;strokeColor=none;fillColor=none;align=left;verticalAlign=top;spacingLeft=4;spacingRight=4;whiteSpace=wrap;overflow=hidden;rotatable=0;points=[[0,0.5],[1,0.5]];portConstraint=eastwest;" parent="78961159f06e98e8-95" vertex="1">
          <mxGeometry y="26" width="160" height="26" as="geometry" />
        </mxCell>
        <mxCell id="78961159f06e98e8-97" value="+ field: type" style="text;html=1;strokeColor=none;fillColor=none;align=left;verticalAlign=top;spacingLeft=4;spacingRight=4;whiteSpace=wrap;overflow=hidden;rotatable=0;points=[[0,0.5],[1,0.5]];portConstraint=eastwest;" parent="78961159f06e98e8-95" vertex="1">
          <mxGeometry y="52" width="160" height="26" as="geometry" />
        </mxCell>
        <mxCell id="78961159f06e98e8-98" value="+ field: type" style="text;html=1;strokeColor=none;fillColor=none;align=left;verticalAlign=top;spacingLeft=4;spacingRight=4;whiteSpace=wrap;overflow=hidden;rotatable=0;points=[[0,0.5],[1,0.5]];portConstraint=eastwest;" parent="78961159f06e98e8-95" vertex="1">
          <mxGeometry y="78" width="160" height="26" as="geometry" />
        </mxCell>
        <mxCell id="78961159f06e98e8-102" value="+ field: type" style="text;html=1;strokeColor=none;fillColor=none;align=left;verticalAlign=top;spacingLeft=4;spacingRight=4;whiteSpace=wrap;overflow=hidden;rotatable=0;points=[[0,0.5],[1,0.5]];portConstraint=eastwest;" parent="78961159f06e98e8-95" vertex="1">
          <mxGeometry y="104" width="160" height="26" as="geometry" />
        </mxCell>
        <mxCell id="78961159f06e98e8-103" value="" style="line;html=1;strokeWidth=1;fillColor=none;align=left;verticalAlign=middle;spacingTop=-1;spacingLeft=3;spacingRight=3;rotatable=0;labelPosition=right;points=[];portConstraint=eastwest;" parent="78961159f06e98e8-95" vertex="1">
          <mxGeometry y="130" width="160" height="8" as="geometry" />
        </mxCell>
        <mxCell id="78961159f06e98e8-104" value="+ method(type): type" style="text;html=1;strokeColor=none;fillColor=none;align=left;verticalAlign=top;spacingLeft=4;spacingRight=4;whiteSpace=wrap;overflow=hidden;rotatable=0;points=[[0,0.5],[1,0.5]];portConstraint=eastwest;" parent="78961159f06e98e8-95" vertex="1">
          <mxGeometry y="138" width="160" height="26" as="geometry" />
        </mxCell>
        <mxCell id="78961159f06e98e8-126" style="edgeStyle=orthogonalEdgeStyle;html=1;labelBackgroundColor=none;startFill=0;startSize=8;endArrow=block;endFill=0;endSize=16;fontFamily=Verdana;fontSize=12;" parent="1" source="78961159f06e98e8-108" target="78961159f06e98e8-43" edge="1">
          <mxGeometry relative="1" as="geometry">
            <Array as="points">
              <mxPoint x="1000" y="430" />
              <mxPoint x="850" y="430" />
            </Array>
          </mxGeometry>
        </mxCell>
        <mxCell id="78961159f06e98e8-108" value="Classname" style="swimlane;html=1;fontStyle=1;align=center;verticalAlign=top;childLayout=stackLayout;horizontal=1;startSize=26;horizontalStack=0;resizeParent=1;resizeLast=0;collapsible=1;marginBottom=0;swimlaneFillColor=#ffffff;rounded=0;shadow=0;comic=0;labelBackgroundColor=none;strokeWidth=1;fillColor=none;fontFamily=Verdana;fontSize=12" parent="1" vertex="1">
          <mxGeometry x="920" y="481.99999999999983" width="160" height="147" as="geometry" />
        </mxCell>
        <mxCell id="78961159f06e98e8-109" value="+ field: type" style="text;html=1;strokeColor=none;fillColor=none;align=left;verticalAlign=top;spacingLeft=4;spacingRight=4;whiteSpace=wrap;overflow=hidden;rotatable=0;points=[[0,0.5],[1,0.5]];portConstraint=eastwest;" parent="78961159f06e98e8-108" vertex="1">
          <mxGeometry y="26" width="160" height="26" as="geometry" />
        </mxCell>
        <mxCell id="78961159f06e98e8-110" value="+ field: type" style="text;html=1;strokeColor=none;fillColor=none;align=left;verticalAlign=top;spacingLeft=4;spacingRight=4;whiteSpace=wrap;overflow=hidden;rotatable=0;points=[[0,0.5],[1,0.5]];portConstraint=eastwest;" parent="78961159f06e98e8-108" vertex="1">
          <mxGeometry y="52" width="160" height="26" as="geometry" />
        </mxCell>
        <mxCell id="78961159f06e98e8-116" value="" style="line;html=1;strokeWidth=1;fillColor=none;align=left;verticalAlign=middle;spacingTop=-1;spacingLeft=3;spacingRight=3;rotatable=0;labelPosition=right;points=[];portConstraint=eastwest;" parent="78961159f06e98e8-108" vertex="1">
          <mxGeometry y="78" width="160" height="8" as="geometry" />
        </mxCell>
        <mxCell id="78961159f06e98e8-117" value="+ method(type): type" style="text;html=1;strokeColor=none;fillColor=none;align=left;verticalAlign=top;spacingLeft=4;spacingRight=4;whiteSpace=wrap;overflow=hidden;rotatable=0;points=[[0,0.5],[1,0.5]];portConstraint=eastwest;" parent="78961159f06e98e8-108" vertex="1">
          <mxGeometry y="86" width="160" height="26" as="geometry" />
        </mxCell>
        <mxCell id="78961159f06e98e8-120" value="+ method(type): type" style="text;html=1;strokeColor=none;fillColor=none;align=left;verticalAlign=top;spacingLeft=4;spacingRight=4;whiteSpace=wrap;overflow=hidden;rotatable=0;points=[[0,0.5],[1,0.5]];portConstraint=eastwest;" parent="78961159f06e98e8-108" vertex="1">
          <mxGeometry y="112" width="160" height="26" as="geometry" />
        </mxCell>
        <mxCell id="X9pTo2VU-LmLKZ8eIbQH-1" value="&lt;span style=&quot;color: rgb(55, 65, 81); font-family: Söhne, ui-sans-serif, system-ui, -apple-system, &amp;quot;Segoe UI&amp;quot;, Roboto, Ubuntu, Cantarell, &amp;quot;Noto Sans&amp;quot;, sans-serif, &amp;quot;Helvetica Neue&amp;quot;, Arial, &amp;quot;Apple Color Emoji&amp;quot;, &amp;quot;Segoe UI Emoji&amp;quot;, &amp;quot;Segoe UI Symbol&amp;quot;, &amp;quot;Noto Color Emoji&amp;quot;; font-size: 16px; font-style: normal; font-variant-ligatures: normal; font-variant-caps: normal; font-weight: 400; letter-spacing: normal; orphans: 2; text-align: start; text-indent: 0px; text-transform: none; widows: 2; word-spacing: 0px; -webkit-text-stroke-width: 0px; background-color: rgb(247, 247, 248); text-decoration-thickness: initial; text-decoration-style: initial; text-decoration-color: initial; float: none; display: inline !important;&quot;&gt;This microservice will handle user authentication and authorization. When a user logs in, the authentication microservice will verify their credentials and generate an access token that will be used to authorize API requests to the other microservices. The access token will be sent in the request header of subsequent API requests.&lt;/span&gt;" style="text;whiteSpace=wrap;html=1;" vertex="1" parent="1">
          <mxGeometry x="210" y="-130" width="560" height="120" as="geometry" />
        </mxCell>
        <mxCell id="X9pTo2VU-LmLKZ8eIbQH-4" value="" style="shape=image;verticalLabelPosition=bottom;labelBackgroundColor=default;verticalAlign=top;aspect=fixed;imageAspect=0;image=https://github.com/NairaLink/documents/raw/authentication/sign_flow.jpeg;" vertex="1" parent="1">
          <mxGeometry x="240" y="-400" width="357.59" height="240" as="geometry" />
        </mxCell>
        <mxCell id="X9pTo2VU-LmLKZ8eIbQH-14" style="edgeStyle=orthogonalEdgeStyle;rounded=0;orthogonalLoop=1;jettySize=auto;html=1;entryX=0;entryY=0.5;entryDx=0;entryDy=0;exitX=1;exitY=0.5;exitDx=0;exitDy=0;strokeColor=#0000FF;" edge="1" parent="1" source="X9pTo2VU-LmLKZ8eIbQH-5" target="78961159f06e98e8-20">
          <mxGeometry relative="1" as="geometry" />
        </mxCell>
        <mxCell id="X9pTo2VU-LmLKZ8eIbQH-5" value="FrontEnd" style="swimlane;html=1;fontStyle=1;align=center;verticalAlign=top;childLayout=stackLayout;horizontal=1;startSize=26;horizontalStack=0;resizeParent=1;resizeLast=0;collapsible=1;marginBottom=0;swimlaneFillColor=#ffffff;rounded=0;shadow=0;comic=0;labelBackgroundColor=none;strokeWidth=1;fillColor=none;fontFamily=Verdana;fontSize=12" vertex="1" parent="1">
          <mxGeometry x="-2060" y="146.5" width="160" height="227" as="geometry" />
        </mxCell>
        <mxCell id="X9pTo2VU-LmLKZ8eIbQH-11" value="" style="line;html=1;strokeWidth=1;fillColor=none;align=left;verticalAlign=middle;spacingTop=-1;spacingLeft=3;spacingRight=3;rotatable=0;labelPosition=right;points=[];portConstraint=eastwest;" vertex="1" parent="X9pTo2VU-LmLKZ8eIbQH-5">
          <mxGeometry y="26" width="160" height="8" as="geometry" />
        </mxCell>
        <mxCell id="X9pTo2VU-LmLKZ8eIbQH-19" style="edgeStyle=orthogonalEdgeStyle;rounded=0;orthogonalLoop=1;jettySize=auto;html=1;" edge="1" parent="1" source="X9pTo2VU-LmLKZ8eIbQH-15">
          <mxGeometry relative="1" as="geometry">
            <mxPoint x="30" y="120" as="targetPoint" />
          </mxGeometry>
        </mxCell>
        <mxCell id="X9pTo2VU-LmLKZ8eIbQH-15" value="" style="shape=image;verticalLabelPosition=bottom;labelBackgroundColor=default;verticalAlign=top;aspect=fixed;imageAspect=0;image=data:image/png,iVBORw0KGgoAAAANSUhEUgAAAPwAAACSCAYAAABhVadNAAAbIUlEQVR4nO2dbWxUV5rnf9n0rrwxlLEDtnsTBwMmimICKVneCCR7SIn6AAvBQQZGDnxggo3aCnSv2Q3yugFBxouYHjMzAdGKSS8fAE8zWMGAZSKVVdC2FpRBltduiKKm/MJU0rGx45cLZNhdYPfDvbfq1nVVuapct8qknp9kyVXnnnPPvfZzXp5znv954bXXXvt/BOEXv/hFsK99/Pa3vw2bLgjC7ONn4RJP/I8TQb//6K8+sqQygiBYy78JlfDCCy+EzBQuTRCE2UtIgxcE4adHZAb/7o98ffk7vr08xvl3La6RIAiWEYHBP+X8h+Pwz7m8+l4WW69ZXylBEKwhIoPPtv17/vg/X7S+NoIgWIrM4QUhhRCDF4QUYnqDf/cJOfxb/kXm7oLw3BNm482/cO3ydyxVMvnkvbl8lrg6CYJgEWF6+Nd4971XePV38MvLD/hN4uokCIJFTD+kv/Yzhvm/vCbr74Lw3CNOO0FIIcTgBSGFiMDgX+S+8q9kL7a+MoIgWEtEBr/1d5nkbJS99ILwvBM2Ht7HtZd489pLvo+7pbcXhOeSsAa/+8PdiaqHIAgJIKTBDw0N8eWXX4bM+NJLL4VME4R48N+P1APw32rrklyTnw7ipReEFGLaOfyPP/6YiHoIQkjkfzB+SA8vCCmEhQa/mkO/b6PtxE5gJ8fb2rhwcPXUy6rbOeAe1H56Wes0pDmb2OMe5EDjUeuqOauI8J3FhI39lRW0lOcBeRzbW8E5hy1OZU+H4X45hZzbW8Gx5Qm6tRBAZMtylnGU7eUFDDTnc+ZkYu9sbxykZKSeT+tOJfbGgpBELDT463hHP+bNEQ8AYwrw5+uBlzjzyMRDZyhjd1Xwqcu6Gs4+InhnMaPw7Ti8MTYJwLgCjCpxKns6Jv33G1YYRmF8OEG3FgJ4IdTJM5s2beLLL7+01mFS3c6BcrjiWEO3KcneOMiGAvX3iZumntjZxJ7abDodXSxzb2URwOQNGt+vYEi7JLe+l6qV/iGrPoowf+/Dc57DVfvUOr3dRePIWt915vsHlqFw68hyrrq053n7PrcWrKI4Q+FW822Wlq9iXkDdjrJdr3OwZ5uWnRxv28SS/i9Y99HnUeSbnlLHemrs/nfT72qiplf/ZGN/5XqKfI/dw7FTd+jAxv7KUuibpMieB/c6uUQJGxea80fP3//D3wHwq1/+59gLEQKIqIfPzMzkyZMnPHjwIKZ0M2aj2+AeZAP4jQ7orsqnG23oHbSUAja4s7l1JJ8zLtWInNWoUwNnE1tW3ueKY/mUhmSobjmHmWZIX7CVKs5z2KE1AOVbsXNKLcvZhJPjHHac8j9LdRPdLs2gC1YxvzmfK28PsqE8myuO8yxzr8XuhKuuStZe3ErmzXoO151CNf46tlefituUJi0tjfT0dJ4+e8rE+ETkGXMK2WWf5FJDK6eDJJc6VsDlJsqGQTf+XQ4vHW71c9GSAY6dHWPXthLWdLdybKyUmtfzoNcbl+cS4sO0Tru0tDRsGTYyszJjSg/GUN1yDjvyOdzsATxcceSrnzVjj5SBZq1nZR+3PZD5SqUhtYBl1VEV52fyBo16XU52MUA2uboz0VXBGUMjMXT9NhMZ2fzckNelGe/EzfOBDY7zXZZyg3/y5d+H66bCorejcUp+zu5168L27nPmzsFmi8Uhl8dbIZxpHe5OPvENwxX+0KeQnpXhS+//6g4dAHhpdydqqiBEy7Q9/OPHj1EmFZ48eRJTunV4uG3oFfURAaDO/Ze2c6B8kAPlTBnuz4xK1l6sozjD+J0nsqxLs5mXUUCVezDw+wizR8Ljx495+OAhz549iy7j8B0+cGXR4qygxYlhyK6RU8i5bStIN+a5F5cqCwkkoiH9+Pj4jNKTwsk1HNYaBHvjIFUXm+Ji9PbGOoq5QaNDK0vzJ0RMXBuf4Pzwww+xZeztpEybc+8or6CmEjh1hw7yOLZtBXS3Uqb13qWO9dRkxae+QuJIiY03349MHWJ+P6Iw7813yY2lwBGvZrCVrK1exbxI853sYiBjFVvqK6e/NiTq+ry6Vm8dfWNT39mw7tXPKWSXPc5r+I5DXGhro+33h4jXzgNhKklehw9FoCebgjoOuOsi9mhP9cR7uOII7FWH6o5z62Kdf3htcBiGo/vCDUpqt3LAvRWAgZs3mFgZaQ+/jzMO2O5Wn0cnGfsQzJg99ODlUoN/Xt7SrVCjD/fx0tWtUBTPHt59ja+riim2ZVEAxGsxUggkuctygmBg54k2Ns2/xd/85UGuI8tyVjBLe3ghpag8Ttv7S0DxG7tgDWLwQvI5tZt1ssM5IUxr8CJ0ISQb+R+MHynhpRcEQSVsDy8OOyGZiLMu/kgPLwgphBi8IKQQYvCCkEIkTeIqt77XL22VMhJWsPrgBdrajrMTdaNJPLeSljrW07K3hB2oe+FbKgsp9aWqMlMteyto2bue/TnRlKzKY8UuiSUSV7OFpPXweohs402LQimr2zlwsSm2vfI/SbzUNDRR1tBJf7KrIiQNCw3+Ot5ReDSixryPKTAUN7mm55frfx4CZQwP4Bl5BKPeuO0s6xidBGWMPrTgl3HFH96aVFSJq2GRuEo6YffSf/HFF5ZXILe+l6oFV4MErpgCaMzBLdXtHCgv8H30BdY4m9hTGyyCzaNJaVWy9uJuOHmV+bV6+Z5AmS1T2f7glqNsdxcxejOb4pU2Jm6e5+6bW1U5K13myhwvH2FQjpHVBy/w8Ttw6283c9AdVdYIyOPY3hWMn201CFro4a49lDVrCjU5hZzblkV7QyenNYWbN/pa+cCtaGWUsBgvlxo6VYWc5SW0OPO00hS6TOULs4OIevjMzEzmzp0bc3os2BuLuK0r4TjOM1Cwle0+BZujbC9X5a0Oa9f4ouhcFXyqq+lM3qDRV4ZRN89Gce1aRo/kc9hRz63JAkp8IatH2f52l6/cw80eFpW3Y/flLaB4wVUON3uYt3Ir8135XPHYWLq6Uqt3HcUj57X89dxasJU9MwqHncrLL79MZmbkCkPxRTX2nO5WynRjzynknDODrrNNlDU0UeaapGib6ksQZhdJkbiKhO4qo4EGk7DyG1ks+OWxTtH9tcK8BXqPvo8zxh7ZLHGFwq0LWrpBzkrlKMsKPFzx5T/FVZcn6rj764c2s25d8N49LS2NOXPnMNcW3wY2MvzG/oFBxqq0cBF0d/h79N4eupTQcllC8pi9ElemYTXAxIj+2z7OHMljT60eV+4JqnwbK0bFXBWF0UgyOvPIpMAvyqkzeT9ONVN5+OAhT589jWuZkZBuX8FiFLruBDpal2TZSF+4nhZ74PXiHJx9zE6JK2cTe0wHVExRrzVo1ufW91Llboc4GH1ufS8bCowNyFG2u9dGUUJ8Gx8zjx8/5vHjxxaVHp5H3a18Rik120rYoQ/nDWkfiHjlrGcWb7xRGL2r/VrdbupxAxn6LkgPevc+ExnLsDunJk3L5H2+1361Nxoch9PhusbdyQI2zHBfgbpWf4FDjhkVEz2ZNm3dXtWwSw9ySYe7lUv38thoWOM//Scv6fbSKNf2TYjEVUJIUjy8WflVk4zSPdquCjo3D7KhdpDiWmDyBrc8BSzVL58y3Fe95AG9qquCf1rdS5VeRoQ971DdVQbcW33SVxM3bzBQsCzC5zrF1feBi3U+CSy1jFlwpFWAFx3YVkGLwZve4e7gL5asp2bvCmpQ6HL18MgZXMPqdHMrr1aup2bvIv7ibCuf9HZSRgkt2ypo8V1l8OBHgkhcJYSkL8sJgo5Z4kqIP6J4IyQfkbhKGGLwQvIRiauEMYuddoIgxBsxeEFIIcTgBSGFEIMXhBRCDF4QUggxeEFIISxcllvNod9/TPHoF6z7CI63bSL3q79h86HErbKqQTDGWHWVgMMmp8SrW1tv9dDGSS41dEJ5BRszTeewW4Yeww7Rx6ub4+FjQS2jSHvt/a4manpjLCpqtGc3n3mPKgW2caH6++yKBzBEJt7J49y2FQzH4Z2lZA9vubzWrCSZEld5HNu7nsyvtHj5hk5wRqurZw2nm9U6XbqX7JokBgt7+Ot4Rz/mzREPAGMKkGCJq+6q/Bii1qytd8foJDWaDJVa+GyRobKOUscKtafy9U5eWrpXsKvQBsOJaHTVxu75QpUFI86yYJbutPv8o3V8rv1+8C/NRhNaCiq3vpct3GZ85SoW4eFKM2woLwgcfoeUocIkcxV9uGr4eqvsPNHGpsV9fLFut+/aiOjtpEz/x3e3TjV2U5BL4DAzcFiMYYha6ljPLgYYtq9QpadcsNGZB/c6/bJVYQgvcWUmGomrPMrsk7Q3BBp2x50Bdr2XR6n7Dh0B0w0CyvhDYQTPZXpnxulCwLn3Eb6L6DDVPWDaECrNxv7KUuibpMiuPsslSti40Fh3hU9O6Y2Ul5qG+NQ7IoPPzMzkyZMnPHjwIKb0YPikoN7fh278e+o9vqiyeSuXcfdIPaPVdWxw3qDxyH221BZhB7p9MlRr1MKq2zlQ3o79pGbYeqy8s4k9tdkR1ylepKenk5aWxtNnT5kYn4giZx7HNKmoYPPrUscKuNxE2TDoxr/L4aVDaxDS7YsYP9tK13vr2fhOD8fOjrFrWz478EYetRZJHXWJK70hMkhcfTKMaoB6zPzyfBbfG6QG43xZoetsD8OohrijvITFujHmFGrzVbXBKC2c7rnyOPb6oDpNQLu3s4QdvWpD1OFupcOtN2hxewmh34UPG/srjWnq36umXKGjeRKwUbRkQHuWEtZ0t3JsrJSa1/OgN96Nkp8kSVxFIAXluepztA24KhgKyD+dDJX1fP7ROtaF6N2fPn3KnLlzsNli0XG38UZh8Hwd7k5DQ6Dwhz6F9KwM/wX3enzp/V9Z4QiMXuKqdH4Gj8YmYXmJ6qBs6KSfSb4d9pf51kLo/5P2Tz7s5RsFcuYb3kHY5/JSY+y1ewfpJ4NXE+AfKHWsYLHSw2fBHH3LV1Bk89LuS1P45HIPjxbm+7T+/M9ivM5akiNxFQcpqJhlqBLEwwcPY8jlpeZsD+e26XJRpphyrfcLEKZIoLMpVomr4VGFHa/n0f9VJx05hexSxmgB3gL0uWqR3rPl5PGGTeGbO5EbgNHTrqLQFfXTRc+SLFt4KXDdVzOLSKLEVei59XSCjzOXobKWGclQDd/hg4Y7gDYM3VsCDZ3q0HXbCjAMH60ZpoYmFomrHeU2GLXxqj4AzMkifXyQjhwbu8YVOlBYMg5FC0to2esvK9Ilw1LHejYuNDaMqgx3IugbUyDc+7dlsQT8DUJOVlAVoUSSnGW5eEhBxSpDFSd2nmjzHRllFR2jk1O+Gx71z5t32WM9+ikEFkhc9Y0FNgI7Xleda6WFi2BsEnIKWbPQy6UGfcmuKfq1cENPuqPc7PybOTvK1SO6zMdjddwZ4NHCkuDHZvUO0k8ea3zHc9nY/04ej7p74udPiUEWLEnx8DOTgppOhipgYw1oUwfjQRRh5LWSiVmGSvNUq/8gXlq6FWqcFbQ41c9d3QpFkfbwSZK46gNy5kNLn1r3nO4e+u0l1Cz0cqlBAe7Qfq+CjXsr2Gi4R6SbYDrcPZTZS7R6w6PuHvoX6s2/aVUDbRTh89abvOjatCTiDTjDd/jgLJzbpv9NMHjivdQ0dHJsr2Gqc6/T58CLCzHIgonElWAty0toeWcs9G7CYMt/OYWc27aIb+T0mmmJVhYsJXfaCQmkt4cuVrDLcPLsjnLDqTRB5rWlhYtID/DkC1OoPE5bW/QagNLDCwnANHQ2bYCZ6mWPUvFWiBgxeEFIIWRILwgphBi8IKQQYvCCkEKIwQtCCiEGLwgphIUGv5pDv2+j7cROYCfH29q4cDD1zgW1Nw6yp77S91k9GVbdkrvzRHxPSy11rKdlr7rGvaO8ghbD9teI8pbnTX9hEpjJcwmByFFTQtzQxSam6tWZtrhOsw6fWL271MLCHv463lF4NOIBPIwpMJRgiavZyPU/D4EyhgfwjDyCUW/cDk/sGJ30BZL0jSnhQzfjio39lRXsYiCoXl6po5Q3+lp9enb9C0s4Z9h5p+vKlTU0UXa2hxyT3l3ynuunR5IkripZe3E3nLzK/Fo90s0cLnuU7W5DFJw5uMUkcWUOvDEH0OgSWPbGQUpGzEE6akDNfJd6Tai8vvs679N4ErboMloBdTMH58DEiOFWxoMTD20OauyrD17g43fg1t9u5qA7yAWhiFI+K1hPauxtp6SHkN8qdZSS+VUTH/TmccwUEw+a6ozvk5c/3oPFWRlAkACVYYUpO2qney4hYpImcQU2imvXcutIPmdcmqBF41G6NcOxNxZx25HPGUA3/u3V+zTDO8r28mxuHckPkJ/24Wxiy8r7XHEsnxJv//2IwrwFBUEyaVS3U2XMW93OgfJe1t41SF1nrKKq1sMVRz7dzib21K5lrXMfV11m6S6tgYnirUTCyy+/zLNnz6LUIQgvBQXAQlVqqaxZmZq+vISWEPJbHfE0wuX5LFYGOCb76C0hSRJXKgPNfiPq/l8eWJDnE7/orjL29vu47YHMVyoNuW0sXW38bKaAZdVTvx36zq+q43eoFTA/Q2H0biVrnQVM3Dzvv/fJNVzxmO+lcOuIrp93jbuTNuYvBZxNlARId8XG9UObWbcueO+elpbGnLlzmGubG2WpEUhB3ev0h4Vq8dxvLQd/LHfHzKPXlpewcaFCV6dRt02dErTsraDFmWeRPJcAyZK4CkVGNj8HVb/ONGQH49B4H2eO5LGnto4D7jqmTAdcFXy6tJ0D5YMcKAcmb9D4vqaLd/c+E848cjnKMjyM+3r7+wy5ILcaxr+bJiZ/8jbdvpHFKa6+r12fIE29hw8e8vTZ06jzRScFpUpPqc14Bpk2g/hGrOQUcs6ZR7/LPEowKrSqxn9u/mw6FOKnQxIlroKgq9g4m9hTXhAwd54yNNaVadHm3O52MBr9yTUcNuStutikGr3Ly3htET+vziZz5DydC7Zid94nU7t3LvpIQjf6SnIXAMZ5eBKJVT4reimoDDJtuha60fhjRNPjo7t1Gg+8Ks5ZFGqOL8yIWbLx5ijbywuY+PqaQZ1WYfSu9mt1u0mwMhDjMD0Y349M/cfJfQXuXj/F9yPZLNuczbwRL0OcovtrhXkrt+LzPVVvpTjDQ2cESjy4vIwbphKq9t702cyoa/UXOOSIPm9YopCCUhVZB/jDMOhGuNhpiGOPBoOxT99r51Fmt/lVbCNElRxr43i4WZ6Q3HX4RfqQG5OX3VVB5+ZBNtQOUlwLTN7glqeApXrGKcN99fw4vXc3e9nVIb8ude1hdHIrxW/eoLEOhrhNZu0qJm6eB9RjqBrre6nyKeoGlh2efZxpLvJPJTznaby5li1RvhcrCC8FpWEQksR0DluHuxVYT41BisonBWWWz9JkuHQv/44STR/PblS21eW1zDJUsa3Df97Tx6bFS8j9D6uJTOwpNUlSPHzgMpggzBjHIS78l2KGLq5jdwSDsVRFdtoJzznaab826BNjnxYxeOE553rI8/+EqSRRplqaYkFINLPESy8IQiIQgxeEFEIMXhBSCDF4QUghxOAFIYUQiSuLMUtcJYLc+l4OuAe1n3bsQdK2B4kkjB1r/9axS1ypgThBT3dNOlqEYHkealxDRYAoiFXIOnwSCNz6axb+mCHOJrasJLRWgBA1sUl3mbcM+0/qTSYWGvx1vKMf8+aIB4AxBRCJK1Xoo8BjEOc4ynaD8MeMWZrNvIDw3UCG6pZzOD53MmDt37pjdJIaPfBnTAESKd21njf6euhnamShT7rLraCfn3fOoQcIGUN+UeMNtpWwwxetqPDtOLwxNgnAuALMNPw4AkTiylefBEhcOZsoKTCIZwCwjzNV/mtD3zuSdwa5r2QDwaIHje9TDQgKGAGEea7c+l62cJvxlatYhIcrzbChvCDguUP/rf3sPNHGpsV9fLFut+/aiJixdJfxMMupB1XqPbg5f3ylu8Z4RFbAV6ebm3z1CGgcLEQkrsxYKHGVu3pZ2N53+nsb35nasJTUV9Jdd0obOegFraLKPQgYG8J9nHHs097l2uD3D/Fc3cC8lcu4e6Se0eo6Njhv0HjkPltqi7BDXKYjaWlppKen8/TZUybGJ6LIOb1012LnCrrONlE2rImAlOdxWht6q8Y+yaWG1imn1cZTuqu0cBHp93qSfiKuSFzNGomryO7tf2da7L7WeHVX5XPYkU/jTUVV+HGonz+NJI5/uucC8Fz1/a0GXBUG3YLI+fyjdawL07vPmTsHmy1ax9X00l39Lv/c+fSfvLAwX4vr12LvXXE4mjqodJfqjGvZW0GNHVNachCJq1kmcTXtva0kxHPl1lt/68ePH/PwwUOePXsWdd6opLuMQ+scGzkofDNTR1pI6S4vNQ36UF01/mNJ1tyPaFlufHw87HB9uvSICSJxdVjrqa54TNe6KvjUofdq2WwwLT9xco0/78gqqi42qaMHl5fxjGx+Xl1E5sh5blOE3Znnk7gC80hCk7iKA0Pf3YeMZdjDNAxW3ft54IcffohaLs0v3dXk170PlyEni3TdARhMEjtaIpbuUuf4OfOtX3oLxyzZeJMiElcnz3Nr0kZxdZNv6qJ76ZnpvZ8DVBkq9ZituBKxdJemvtvn1ebmXv54z0bRezEeXRWNdFdOIWsWKnxzJ7k6fSJxlVCJq1NcfR+4WOdzqunTkZnfexpM72xR7SDFtUG89c8ZkUh3LdYkt8Agy6VxurkJyit8+cHg5Z+RdJdxZcD4fXyfP1pE4koQUohZMqQXBCERiMELQgohEleCkEJIDy8IKUTIHj43N5fq6tAxlCdPirdNEJ43wg7pj//ueNDvd3+425LKCIJgLTKkF4QUQgxeEFKIsAa/69djfHv5O749+yO7ElUjQRAsI6zBf/bXWbz63iv84+g4v/z100TVSRAEi4hoSP9f/2jDNl8MXhCed2QOLwgphBi8IKQQkRl8/4soi/83v7G4MoIgWEtkBn/tJd78uxf5T5e/49u//z8WV0kQBKuIzOA/fMC3H8I/vPcKr/7q31lcJUEQrCLyOfzoz/jMwooIgmA94rQThBRCDF4QUoiIDP43bykooy9aXRdBECwmbHjsrl+Psf8//itg4x9/JQYvCM87YQ3+s7/OEkedIPyECGvwInQhCD8tQurSC4Lw00O89IKQQojBC0IKIQYvCCmEGLwgpBBi8IKQQojBC0IKIQYvCCmEGLwgpBBi8IKQQojBC0IKIQYvCCmEGLwgpBD/H9mgysMw2xC3AAAAAElFTkSuQmCC;" vertex="1" parent="1">
          <mxGeometry x="-370" y="-1460" width="172.6" height="100" as="geometry" />
        </mxCell>
        <mxCell id="X9pTo2VU-LmLKZ8eIbQH-17" value="" style="shape=image;verticalLabelPosition=bottom;labelBackgroundColor=default;verticalAlign=top;aspect=fixed;imageAspect=0;image=data:image/png,iVBORw0KGgoAAAANSUhEUgAAAboAAADoCAYAAACZxiHNAAAgAElEQVR4nO3df1BUd57o/ffE3B3qoo2NRpwfHRFIJhUSCEVZWVPVxHTsZ1YLA8kl8Q7RrXJKcNcdrSzMDWXxqKUuj4+5D8zWmHV3ILVWjcrElYoYKXxSOD0O1NVNWRQLyjxJhl9OZxJaCchRbvXsgD5/nNPdp3//oBuh+byqrLL72+d7vud0cz7n++N8v9968sknHyKEEEIkqccedQGEEEKIRJJAJ4QQIqlJoBNCCJHUJNAJIYRIahLohBBCJDUJdEIIIZJa5IHu1SlufPIHbn0yxq9eTWCJhBBCiDh6PLKPzfCrXd/Av3+PNQeXJLZEQgghRBxFWKObZlXaf+VmpwQ5IYQQC4v00QkhhEhqjy1ZIrU0IYQQyeuxBw8ehP/Uq9Os4i+w/zrxBRJCCCHi6fGHD0PN6fwnfv2Jg5zJFfzDDw00zVmxhBBCiPj4VkSrF7w6xY13Z7j0QwPvzkGhhBBCiHiJbDDKrx/nNv+JSZ6fE0IIscDIqEshhBBJTQKdEEKIpBZhoHuc25P/m1U5iS2MEEIIEW8hA93yx10zhC3hYnMm2W/8gVufODn3f0Q4c5gQQgjxiIUMdF3PPsvyxx+nfOVKyv+/p3j5taf4v/96Dc+MPqsLgkIIIcT8FTJanXA46Hr2WQCKP/+cW3/6E//scABqEHy+ry/xJRRCCCFmIeRzdFlZWQwNDc1leYQQQoi4klGXQgghkpoEOiGEEElNAp0QQoikluBAt4FDH7bT/v5OYCfH29s5d3BDYnc5J3THYjnEufZ2jlc86jIJIYQIZJ4/I1DBpvO1rOzI5NSJGDbffZkD1ts0vl7OaNzLljibfvYer63VXig9/ONf/4rP3ak5/PiXlawzaC+HP+Fv/95n/aQNP+LYOwUYAqUJIcQik+Aa3RXsYzB1ZwAYYFyB0a+uJHaXc0J3LDY7o0wxPhinrH/8d7zGJ/xt6bv8bWkj1yngnZ95ZtPe9LNK1n3jSv+EobU/5FitZ8qaH9Tu559/DJ8Px6k8QgixwD3ixwvUGtu6NNfrAS5aNtIDFDSOsCXAlGN3r9Xx81ptZbzdlzlQ5vnQcItW87M2s3ffSyz329qVv39NcXVdH5VPXOJwZU3AvL32G5GdHG9/g+yhj9j8kw+i2M7bD2r3884PBtRa3YYfceydHD7/xyP865Ug6SW3qfn7X6u1QqRGJ4QQETddGo1GpqenuXfvXkzpgayu28O6O2c5/HqNX1pPZWbAgORxjO0vdHPYslF9ufsyB8ouU3BiIz0d5fy8g1k0XR5je9kqrh/N5FJHVBtGLDU1lZSUFGYezHB34m5kG2WlY1AG+F+uSvGP/4531i0D0skCPr/yK2qSocIshBBxFFHTZUpKCoY0A8Z0Y0zpIeUUUhD9VkANpyp1AfJEN8OsYrU1pswCMPDUhtmMMPmAPZs3B63NzczMsHTZUgwGQ8B0ADb8iB+vW8bQFX0fnfr+sdb3+OfX4OPSTxgine8kwxgfIYRIgIhqdE6nE2VSYXp6Oqb0YEZr87jYOMIW2whbiL550L95U2EsqhIEU8Opoyb27qvlgK0WfZNqPN2/dz9E6qv8j3cK4Hoj//NfdW8bCnjnnVt8XPoulwA2/IgNjHNTanJCCBFQxE2XExMTs0oPRm2iBDjGdlste+uIKNitrutjS44+AB1ju21TTGUIyNX8qe2r0nYZ4hjsnE4nTqczSOqr/I/WH5I1/Al/WzfgeXtoHIV0Pv/Hf1KDHGjNmePIRG1CCBHYPHpgfICxSd/3mhi9A2tfOBZ4k8nbfK39t6BxK2t9039/m7tpz1EQpDnT+D2taXL3ZSrXB29CHP3j7dBFD0h91k59hjAauiDnO5DkynU+V5ax7sc/4gcA5PDjDWtQPr/u3bQZrmTvt9Muz/4JIRaJR/gcne+IS2DgLId9anM9lWd5zraVA7atgKd5c7T2EsO2rVTaRrT3rzKc85z3LjrK+bcNfVTuG2HdPvA0QTZx6cQrPOVqmpy8ysVrq9jyhLadz4hLULh+NC/uTZeB/KD2JbIA1v6Qf279ofv9oY/f5X/+6wD/+teN8MtK3mlVezaV643UuGt9WpB0b6Xl4RM0P+gd5I2sbFZ/dwMgbZ5CiOQmqxcsRpZDnPvpOkbPb2ZPNE9MCCHEAjTPZ0YR8bWBQx++yzoDDEqQE0IsElKjE0IIkdTm0WAUIYQQIv4k0AkhhEhqEuiEEEIkNQl0QgghkpoEOiGEEElNAp0QQoikluBAt4FDH7qmwVKnxDp3MPg0+wWNI+ytm6N5qSqO095+jkMW2HDwHO3tx4l2sq6wlh2h9Y3/l8tvtFC3LN6ZCyGEiMTCrtFZm9lruxzjMj+J9gp1f7kOfneMjR+VURv5Mn1CCCHiKMGB7gr2MZi6MwAMMK7A6FfzZG7FwXGmGMVugytfjYIyzkD4raKQw4pl9+n/42/imqsQQojoPOKZUfwndvZek+4Y2226VQkGznK4ssb/fTd18uVL+uV13KsSeKdFYsPBc7z7Ilz/f97koC26I4MK/uWNH/JNh9TmhBDiUXp8yZIlzMzMhP2g0Whkenqae/cCX7XDpQdS0FjLujtnOfx6jfZ6BLNXeiE3LZmcAlzBbfvuGk6dqOGUpUZtuty3iq5A68RZm7FynMMWNWiuruujcnczPR3ljEZcwuBSUlJITU0F4JtvvolDjkIIIRLh8QcPHoT9UEpKCoY0Aw8fPgwYyMKlB2RtxpwzwEVLTdCP9FRu1L2q4ebAVszfqwAimI24o5xTutrb6JWb3F2/iu9AxIHuyqE3Qy5is3TZUh4+fBg40C17ktU46JHanBBCPFKPP3wYtOXSzel0okwqTE9Px5QeM7914eDunUg3DrDeXRx74ZYsWcL9e/eZeeBbG67gX974b+Tcu87/9dHfEXWLpxBCiLiKeJmeiYmJWaVHzdrM3rIchlsyOXVCfcu3aTOUgsZa1nGVRovWVKk1c8bL1NQUU1NTAVKa+JuPmrRHC/6Jpz76O34Rt70KIYSI1qN7vKDDzgQ5PLdbfbm6ro8tOb4fUhj7vfbf3Zf9033y8HPHrjVTVrBp90ssj7KI6vN16rN2Ubv3B0bJ4El5fk4IIR6pR/gcXQ2nWgZYWzbCAdsIlU9covGa4knuKKdrwMC6fWr6Aettrvu1PHrnccDWxyarmtJz7ip3c7Zq79ey8ndXuTtXhyaEEGLekIVXE0YeLxBCiPlgYc+MMq8N8M29payQpkshhHikJNAlzG+o/ffrrP5LmetSCCEeJWm6FEIIkdSkRieEECKpJSzQZWVlJSprIYQQImJSoxNCCJHUJNAJIYRIahLohBBCJLV5HejUKbiOsxPY+X477R8eYkNccq5g0/kR9tZVxCU3/+yPu6cO0x9DXOSZaa0uZn8GFFmKaa02syNeeYdkYH9FOQ15IcpVkUtRIouQkcuZ6nJay0wxbGyiobo88WWcb2Z1zkTk1L+PMxZD+I8Kjzm6nkU8qfO8FGo9OhG9PDOtVu8L4lBHM1V9cco/I5cz2/JJ1V5O9bTxtk0JuUnEfMoeebkN7K8oplB/fVJ6aWjqpzNAvio7F+q7OImJhmozeO0r0HuRldk7b48dZeWUrFHoPt3GEYf2putc3uqitMXuye/FcU/ZQyiyFFNV4HNR1h93SOox+g43i/Sc++/b+5jV4/UqmPexR1k+z+8swHdNgN+h1+/Us+/ZnbMIyqv/Ll1lneim21jIM4P+fys7ysrZOO5537t8unPq83cX6Ji9znlcjml+mdeB7spXo7yrjKuL69yZAuwh14ebNwbHmQLsNriSrTuGeHCoeX/pgM6MSaqUcQbjlXdfF6W+F+x40S7q+othkcXM/oyuyC9gjn7eru8PkjdcqG9W/7DzzLRai9nv0F8c7VTVNwfIVOFIk+f9IksxVdm6ZNc5ce/DOwjNSti8te+gp5epNWsDln3KmMkO7MHLFOScddra6LS5jnc4ygub61xGEdR96S7qO8rKKanIZVBXhphvsLSLOj1tlLoDgOt35vqu1SASKHio30Ua3aeb/X6XsztnodipOt3LmW1mGvLU4y6yFFFILw0tn4PlKQqzTRTZ9Psz8fwahc+61PKrgcrOhfo27bdgoqHMBC12n9+Aduy6vRdZiikx9tJQr+a/o6ycqjKFTnfQTaBEXs905nWgo2kPm11rrHotgqquNu76099iG2ELAArXj+ZxSVtwtaBxRLfigXeaN1d+A1x01Q691sLz3nZ1XR9vcZyuJ2rd+euXE8J2kDddC9Hpj0HPcohzP10Hn77Hm4eiCN+Oft6u1/7vFZhcQt/Nev9xh/iDD0qfv3/tI1t3V+m17xdNTPW0eV28Om1d3hcKnxqO/q5Tf8fpfTeq5j3U0ewpR18XF54uZ2OuARyK952u111zogWq+UReO9lRls/E6WaOkMuZgkCfmOSzwTQ2WgycDPD9BT9nkfCt/fh/10HlmWl9eoSG8fwAvwV/g+MKGKMoWoiy7TBrtVzdvvx+Z6HyfTEtytpjMK7vXl/7z+TG6XE2umpX+pqTo59f9Kyl6sVcihywqwC6T2tp/cPsKljLyxn9dLrKlZdJljJMgwPIyGXjGoXu0/rvx05VS2TlLC0wMNThCaInu3rZuC3MDVS8hL2exUfEgc5oNDI9PR10BfFg6ampqaSkpDDzYIa7E/7rB4RLD6yGU5aakE2Xq+v62PKEZz261XV9VO67zGiH72fVIGe8VsfhWi0iWZvZW7aK60cz1eC2+zIHfLZdvr4W87U6Dlc2qXlbm1l9ojzi1ctDSUlJITU1NcpzAuoFwEyG+27WREN1MQ1jzVT1Kfx2UPG+M8ww8YxB4bP+yC+AWdZ8uk83U+pQLzZeF1lDPiXpXZTW27U76yL297dxhAj2E+JOGuBkixrIdpSVs9ErJQ2jQWHCZ5vBcYUS17Hq78TTIz7UOPCuRRZZitlFZ8QX0ZMtbep/MoJ/5ktbL8YK37t91/bBzll4RZYiCie6KG2K8aZgjZkqtN9CnplWaz47bIECpYGXsw0woUQejCqKg5TNxPNrYKgjxjJnmHjGMMlnucW0btOiaEzNeGqQy9DVKl3vl2xztTyox7HLYqdT+0ynrZfSAjNV24BbupYOh53PlHye0W7cAHY8bWJqsJdOoCh3LanKML+NOTj7/P04FBys5fsZwKwD/vwQ0WCUlJQUDGkGjOmBb7tCpc/MzLB02VIMhsCdtOHSY3MM63oDwx2ewDNae5zrk75r173iDnI/r/VUu1ZveA6uHffU/k6c9d924Kx7m9ErN7mbtorvRFNE20He3Lw5aG0upnOSYeIZevmF+4/LTmuPQtbTai2p09bLkGEtL2sXzqLctaTe6o3q7nWow3W3qwbO1HTdEu5KLw2u2pLDzmeKQf3j9KJ22rdWl7s7oT01vsiDgOeYDWQwyZe+zUxjk1FmlGAZuezKHtZ9N/Fi58ZEPqXBBgnNxprM2AcG6H8LfSMMkaZeON15m92/gWcG2/xq2VlW12/EZ4BHXj6FBjsXElErz0gnFRPP0ElpfTOl9W10k09VVAN5PEHOvwarr3UF+PvR/l5BobvL7rXdbwcVUrNN2kAqrdkyihvU4OzcuGWg0Ow5xh1l/v2vC11ENTqn04kyqTA9PR1T+v1790PmHy49NrpFW4NYvv4llqNw/Yp32+J3njCwPKeWA7Zar/eH413EIJxOJ/fv3efBgwfRbZiRTqrBRFV1PlX692+5/mPnxi2z1qQHL2dD98eJasZT+HICr74A1/tqP4mJhup87b00jAZwjMXwhxvk7rNoZRpMjMyTDnUD+19by2cftyWkPCe7ejljNsEX8cuz09ZGdno5JdXllBDngUPgbkJW+7u8a6SumqhKbZU4g7r/opVpoAwnpB8HAEV/o6hw5FM7rS8aKIKIvrvUgnyyUOiONAgZdXln5LJLa+otfC2XIl1NslPffJmha7aMg5MtXTxfbaa1Wn091NHF0JpMv5vHhSzipsuJiYmY0p1OJ06nM+h24dJjZ2DlU4C7Ty6HlWnen7h7rY5/Y0/AJs27PrW8ufbNN9/EtmGYppaTX9gpedFEUT88wzC/SNiP2cD3jeD4QtGCkcGr6cXbJBPRdtN4bWvA6BPostMNTI0nulYXrNzeTUFFliKeGezk7USda4edz4xF7F8Z3+P1BBzvYBNPrua60rx+OgP2z9i5ccvTets5Nuk9WMiL+n0UPm2Cvhhu4BzjTBnSySayoBbIVE8bv6CIqm1mdkTSp+lusjWw/zWtf7HLwJlt+V7Nmvrmyx3pnmZL0M6Jbx9eVHwGamXkckYZpzWWrOapef0cXVgddibwbY4EqOHmAKy1NrNae2d13SbWTl6l44T3J0dr87g4kMOW857P9vzHAMvX73GvVp4QlkOca2/n3MH4PBkIqE1Ehnx2hXqWp6+XbvLZ9dpaHJ96B0R1dJr2Ii+TLOzciLVzWGtiUrdXm2RSC4o8+XtRm2ayrLE8QxNg2zwzJWvsXI7ooqyNTgNc/UVTg/YIL3RqrdXVNAxQZMknS99fkmemKiFNlt7lOPLpJM9kp4X/aEzUAJIYWvP6i0Geb8wzU6Jvpgv5G1drYKwxez3v6fW7DsVh5zPFxEZ33lqTesS/B1WnrY0Lt0yUhHpmU6u9DX3hejQkn0KD1mTp6OcXPQqpBfm6vwdX82URG32bLft66VYMai3Q/abud52nOx/h+uUzcjmzbS2ffexzs+x6HjPIMe0oU5uZAz9n6+quKI7se/BVcZz29nba34/9aeT5PeoyrBpOtRRyoGyEA2WgHx3ZU5kJjSNU2ka0zw5w0RJ4sEhPZR2rz9dSaetTtz+xkcNc5sC+EdbtQ7f9fH9ez05VfRcN1cW06kbpeQ/V1galFEz6BbFOWy8vV5TTalA/1326LbpRV4Z8XbOp9yi9TlsbnWNmWreV6+4UFbp16VBMldZUBvrmMp/Ri2vU43Ol+2+r37fvCD2ticY9+tJO1RdmWl2PUviM2PMdCao25XnyP9nSxvcrit3NPuq+XRcJEw1WE+DdnOw+rjB5+z63VbitnFbXqE3fc983gsNqJstd9NDnzDtv7XtztwYEeN7M67z45G0tp9Ua+yMBrlqdWoNJ8xmpqh8yr772/43rvu++Lkox06qVCbRjdoDfb6HA+5yozereeeubbEOfM2+u30VV9Vpedo/iNGjfocp9vjJyOWNVRyW7+qg7bZ28nF3s9diF2nyZT6rS6zPwROFIUxv7K4r9/v7QzsmNMs/5GOrwHvDl//xdlH/3idbUy+Dr2WSvNLEBYnrELGHr0cladvOXOvqwdw6H2Qux2Kl90hNxeXRhsdnAoQ/fZd3YR2z+yQcx5bDAa3Qiahm52jM6EuSEEPPbhoPnePfFVBiKPciBBLrFQzcNkG/ThRBCzEdXvCYKiZ00XQohhEhqC3vUpRBCCBGGBDohhBBJTQKdEEKIpCaBTgghRFKTQCeEECKpzetAt+HgOdrbj7MT2Pl+O+0fHiKOE2bFz+7LHNBNIbY4beDQh65penZyPN7Tm7kU/po/HbrFnw79miinvBZCLFLzOtAtDBVssuZ4LQmUaAWNI+ytq5ijvc0n7zHzWg6Pf7yGbx98VX68QoiIzOtrxZWvRkEZZwAYuDMFY/a4PDwYV9ZXeAr/yaIXnyvYx2DqzgAwwLgCo1/F+dv6rokHDPCt7vAfFUIIl4X7wPjuyxyw3qbxdVdN6hjbbZsY0yZ1Bm1V8fWemWmHWzI55Q5IFWw6X8s614TvA2c5XFmj/t+9cnk3z9m2shZg8qpuXx4FjSOY7wRY0mf3ZQ6U5bhfepb98S+nXx5BtvU9Hje/sr/Ecr+0Cjad3wO/u8269TkwcJaLbGVLjvd58d6HfiJr9Xyt7Mjk5gsjbMkB/STakdr5fjtvZA3y0eY9RD2hz3d/xZ93rWKJ1OaEEFF4fMmSJczMzIT9oNFoZHp6mnv37kWVnpKSQmpqKhB4jbVw6TGzNvPW+ttctOQFXHGgoLGWdXfOcvh1VxCoZW/dgC5g5bDFtorrRzM51XGM7batWHejC5TqPsw5A3RVBgpy6rbRBAHVMbYH2Xa0No/DhAiuHGP7vpeYaMnk5ye017at2nEBGFj37E0aj97mrX1bMV+ro/HOHipfOAbUwO7LVOrO2eq6PirPN/O1LsCvLRvBeK2Ow5VNFDSOsOXNY1zqqIn2IINasWIFDx48CLv+oRBCROqxSFaxTklJwZBmwJgeeGnMcOlLly0ldWlq0PzDpccu0Fp1AMd4LmeAi65aEE1c6hhg+bOveA0oGW5x1VbU9e2M3/PuF1u94TmWD3T7BFK1z+7uteMxBDkXA09tiL4Pzn/NvRpOtXgfl6cvcYAun0BZ8EIOwy2epYhGay8xnPYcBfp1+QbOugNsz38MwBOmqAbhfPCTzWwOUptLSUlh6bKlLDMsC7zxd1bx4O5tvhXF/oQQ4vGHD4O2XLo5nU6USYXp6emo05csWcL9e/eZeRC41hguPWYd5fz8qcueter0TY9WE0Zy2GIbYYt+m8nbuhcD3NTV3noqM30C2jGs6+H6Ud/ajLqS+cQfY12dvIZTR03s3VfLAVstUa+Dd8ce46CYClY/odbY1LX9XBTGdK+G/0N3vCc2cjjOfZMBfwvf/RV/3vUSDwbP8u2fvRvfHQohkl7EqxeEa0oKlj41NcXU1FTQ7cKlz4ruQlzQOELl+WZdP9ssF1LdXcjayZt0+NXaBhibhJWx5gtqkNb3M9ouQ6Rl1WpYrmC3+nurgNshNvDm3Y85t5xOJ06n0z/hqx/xXw6iPlrw97/iL372I6nVCSEitrD79NNW8R1A7WPTBo0E8fUd3arRHb/h95M5bGk8FuOOQz1S0ETP7xTWll2mIMCWKgMrn1L/t7quTxvYEdjoH/2D1Nd3FL9mVoDRKze5m/YSVndz7TGs6w0RPvoQSblnb+f77e5nI6P29W0eW76K8G0QQgjhsXDXozuxkYsvjLibH4dbzjJctsmd7D9CcYCLFtcFv4lLrwPnazlg2+r+hGdkZBjWV3gqbYCuIDWf0do8Guv6qNQ1jXryruFUS6GnSXXgLBcHtmJ2bewz4tI1srHHK//jXD9fS6VtRDs0bWRlRzk/p5m9+zzNj3ev1WkDU8ILVO5go02FEGKhWLiPFzxCwUc9ioSSxwuEEDFYuDW6R8h/YIqYE1/ZeYzn4LvAV4+6MEKIhUJujMUC8i5LPr7Nn3fJXJdCiMhJjU4sLN2v8m2ZAkwIEQWp0QkhhEhq8zbQZWVlPeoiCCGESALzNtAJIYQQ8SCBTgghRFKTQCeEECKpJXGg28nx9nbOHdwAlkOca2/nuN+CAMfYbhvhwPnm0DPwW5vZa9NPjRVJ3rEysL+inNYyE2CiobqcM5YAa9CJpFdkKdZ+B/ONiYbqYvZnJCb3IksxrdVmdgA7yspprcilKDG7EouEPF6wwBRZiqkq8A58Qx3NVPVFsrWJhmozXsN8lF4amvrpTPi+1YtWyZpQ+9XKF0WZIs87wm3VDOg+3cYRRxQFCMjA/opiCt2nLHC+rvMazbmMSp6ZVqsJbnVR2mJ3v+173P779/69RFM+39/KVE8bb9sUn0+5zk+8zrcQgSVxoBtgXAG+ugK2HEZ/+izjg76fqeGUJZZFQyPJO1YKX07AM+OTAEwowJj3BSLwRSNSdi7Ud3Eyxq1j3XeRpZgSYy8N9WoA2lFWTlWZQqfrwptnptUK3T0KZEeZeZ6ZEroorbfjunh65R2BxAQZhSNNzV7lbN1mZof7/KtlfWawlyHy471zjYkGaxpDtxSvG5wiS7HunGlls5rZ0aeVLSOXM9vycXQ0UxrteckzU5U97P6u1byK2N/vHcyKLEUUTtgZMqR5bd45NkmVMs4goP6hKVHd9AjhK4kD3RUO/vcr2v8/YM9m76U+vSZ9dk2KrOc3ufJAxHmrdnK8/Q2yhz5i808CpQd3sqXZHYi8LpQR8r2bju4i7lPri6Z25Ko5qBvq7tJNlBYYGOrw5HOyq5eN2zLZgZ2TmGh4cZyG+n6wFFMY7XH1dekuxgq/HVQozDZQBNr+fGpW0dYYgx5XoHKFuJFwjDNFum67IoyfNvN2n4mGEEtG6Gteft+lV9n8b0R2lJnJutVFw3g+VZ5dk51uYEq7mQpUth1mNciF/N1owTAVvM5p0co0mBjxnF+Hgl9lLSOXXQXQfXoE4xqfIK//Pm1tEuTErEUc6IxGI9PT09y7dy+q9NTUVFJSUph5MMPdibt+280mPSUlhdTU1KDbhjJam8dhtID3hE+itZm9Zau4fjRTXSXc2szefauiyj+ccMcdK/WiO8mF+rYYam1qkMvoaaM02lpbRi5nrGl0n25Wg4Bf7UVhQn+1cyg4WMv3MwCHnSptfuxgfTGzOa4iSz583EypA1xBb5fFTmckxxjuuPLMXuUqshRTVZHLYIBAWpS7ltRbve7yd0ZyEV9jZmNPG6Utin+tK89Mq75svvLMlKyxc6HeDhbvYHLyCzsl1mIaxpqp6jOw/7V8Um+5visTz69RmBg301rtCqK+AdxAoTWdC/XNnPQ5p539w+zaZuaMRQ26O8q05miHZ9v9r+VDTxtHHGk0hDsHQsxSRIEuJSUFQ5qBhw8fBgx0odJnZmZYumwpDx8+DHhBn216qLRYFbz5ElyrU4NczILV9FThjiuU1IJiWl01AK9+F1fNKVQwMFFSXU4J4Fs7KbLkqxekEAEg2L6LctdCT6fngtvXS/eLxTyfB/TZuXHLTInZBNrnd5SZyUIhstm8IjkuTUYuu3xqj522Ll1A0Wp86WmA5zizrOW0WtX/62tFoY8LdjxtYqijWRe8eiktyOfljH46tdqsp4as0H068uZUAG51eWpofSMMWc3avg3sf9HEVE+wvi013Vlh5FoAABlISURBVFU2vxuIvi5K+9TBTq1W9ZjdNzcZBjIwkJXeS2l9F6DVKr0CuEL3ac9NjFqLNlFk66fT0c/b9Xb2V2i/lVtdlDbpjjsvn0JcvzPvZkshEiGiQOd0OlEmFaanp2NKv3/vfsj8Y013Op3cv3efBw8W5vS+4Y47kE5bG5021yv1Trq1TAs4GQYyUPgsaKe+nap63z6jYvZrwS473QATwftDQu07O91A6hpdENS4Fmo62dLF89VmWqu19zu6GFqTyZeRDEAIe1wuJhq2qTUFryY3fRObyy3Pf/VNxa4RhWdQg13o4zLwfaN3kFTpA7j+nKuBpSHm/sBJJhQwApCG0QCOscA3JWr/V1fw/jVdbbDUoR5za7a+SdfOBV0fp9rUnE42BPx9dI5NUuXqW/Xq39N+J9WuGqHaZ9h9ukuaJMWcibjpcmJiIqZ0p9OJ0+kMut1s07/55puQ5Zqvwh1XZFy1E+1loL6QUPpGGLJ6mrQGxxV03TTR7ZtwA1V8gmxGLmeUcVoj2VVEx6XVnG51+TS7eoKf6/0iS7FXf5VvOW/cAv3I+XADcCLvA1Xz3rjSgL42Gbk0jAZXE7A+6Pky8HK2AQyeGwuVmdZqhe7TneBVG7RTVd9FQ7WZ0rx+Ovv0zcqRlUzfL7fDrDaDqudE4UhTG/sritloMXByLJMsDLCt3Pu731ZOq8+oUCHiJYmfo4vd13cUlj/7ivZs3TG273uJ5VHnoj5r1/7+zngXz8PVTPeF6+Jg58YtA4WvRfbckdp3MsxvtYtZZ/8wU2vMNORFv++TX9hJLSiK7NmqjFzObFvLZx9HOiAk3HHpglyQC6W75qOVO6g8MyVrFD7rVz8f+rjUYJ9lVZ/5Cisjl426vKOlNi27vq9Q+1ZHe5bWe/419ChqE2K9p6kzNV3XbJiXSZa7H1U732bPIBc1eI0EaTrWmpa/0J17o8HzXWWYeMZV++zr8ipXaX0XQyhqzTKKILfz/Xba4/r8qkhm83aF8cSuUF7BpvO1rPPtHnCPvtSnK1w/eomV+wq5adkYxYKrsY+6DC6y57KCPh/lM0LP97kqwL+Zzz2aLoJ9++avG8AQemSib96++w59XIGe7wuebqe7J43C9F7t2H2fLQwwajLEceF3bPpy++btc8788g1zXAFGi0b2vJqrFtvr1Z8bsmy+34lPX7Dv85jetVr/7zN4rddEQ3U+E9E+R1dxnPbXs5n69D3ePHQl/OfForZIA50QYkGzHOLcT9cxen4ze5oedWHEfJfEz9EJIZLPBg59+C7rDDAoQU5ESAKdEGIB0U/WIERkZDCKEEKIpCaBTgghRFKTQCeEECKpSaATQgiR1CTQCSGESGoS6IQQQiS1JA506hRc5w5uUB8uDTZd0O7LHLCNaP/62KSbnHd1XR8HbCNs3z1nhX7EIjxnMVEnND5jMaizr1SXRzbVWDzkmWmtLmZ/hjpDSGt1hFN2CSGSwiJ/ju4Y28tyGG7J5NSJudyvOsXYyo653q8QQiw+SVyjG2BcgdGvroDNzihTjA/6fMRqwsgAN4MEm9HaPA5bFlMwiuCcxUydbd8xpmirEfgsxJpIjnGmmORLh7qcDMo4cTssIcS8t7jnutx9mQNlcNFvsuZjbLdtZS2gTuqc570I6+7LHLDepvEEvOVa2cA9ITT4Txo94N5HQeMIW3L8i3L3Wh0/r21S836hm8Y7m6hcb/BOC5T35FUaXy9nFLWp9S1uMrH+JdYywMUW2FKW41223Zc5UOYqQIBjCysRk1WD/0TAvpMr+0wk7J5k2ERDdSYTPWkUFhiY6unis2wzhYbAE14LIRafiJsujUYj09PTAVcYD5WekpJCaqo6F36gteNmm75ixQoePHgQdr08vdV1fe4gArDFNsIW0AWEGk5ZalAD3qbAmaS9ROW+AS5aMumxNrN33yY2WWu41AGr6/aw7s5ZDr9e47dZT2UmPeGaLnO2UslZDltqtMC0lQKa6AFW122FE5kc7gBX0HurrsIdCJevf47fH61jbHctW6xXaTx6m7f2FVIAajnLVnH9aKYa3HZf5sC+y4x2RLMqQ2jhvq9g3AuFNgVeqmVHWSY36pupAlxBryHPNSO+icL0Lko7Mmm1mjF2NHPh6XI25hrAEduSOEKI5BFR02VKSgqGNAPG9MDLPIZLX7psKalLUwOmzSY9JSWFpcuWssywLMwReHM1SR5uGUCtbWWqryv9A1NwCtePagGi4zf8ftLAyqd0yTlqcInJ5FUaXWU50c0wq1htdZV9o64G1kTP7xSWP6GrIg5ccqcPd6g1PZfVG56Da8c92584y/XJHJ6LarDNB+zZvDlkbS7c9xnUmsygg0ROtuhrd9riqCtdNysK3V1agFR6aY1p9W4hRLKKqEbndDpRJhWmp6ejTl+yZAn3791n5sFMwG1nmx4qLaEmb9KjCziXXvdMoz5am8fFxhF3TdG76XGWrM3s9V0IdiCyTb/zhIHlObUcsNV6vT8cn5IB4b+vYDptbWSnl1NSXU4JAdZVC7B229R4HAoshEh6ETddhmsaDJY+NTXF1NRU0O1mk+50OnE6nSHL9aioTZSgNn/WsreOOAQ7dbVzrtVxWMtrdV0flU9EnkNcg24A4b7PUE62NGu1NhMN1cWcQQt2GbmcsZq8Fu/cUVbOxngVWgiR1JJ41OV8McDYpO97TYzegbUvHIspx4k/aoHK2sxb6/1X1g6m5z8GWL5+j9ezgtFTn7Vrf3/nbDIJQx2h6U03SjPP7LXSeFxUHKc94cclhHgUFvlzdEF4jUyEtftGWLcv0hGKviMuUQe5+NSieirP8pxtKwdsW4FIa1o1dFzbRGXZCAfKAAa4fk1hXaQ1uhMbOcxlDuwbYd0+d+ECjDqda74jLlFHVbqaLh39XL6VT8m2cloBlF66b5l4Jp5FaOpl8PVsslea2ADIimdCJI/F/XiBEG7aytVj8X5sQgjxqEmNTix6Gw6e490XUyHuzwYKIeYDCXRi0bty6E1pqhQiiclgFCGEEElNAp0QQoikJoFOCCFEUpNAJ4QQIqlJoBNCCJHUJNAJIYRIakkc6NSpqs4d3ACWQ5xrb+d4hSd1dV0fB2wj6r/G2KbiWng2cOhD1zRXuvMTFwb2V5TTWmZCnauynDMW3VQnGbmcqS6ntbqc1mpz0FUKAlPza8iLsWh5Zlqri9mfAUWW4hj2L4RYyJI40IXmWqqn8Vpi1israBxhb11F+A8uFo5+3q5vpvR0L7FN+SyEELFJ4kA3wLgCo19dAZudUaYYH3zUZXrUrmAfg6k76jp87vMTFwpfTsDU+CSuSZkdY/Nk0VPHOFNM8qUDOscmQRln0f8UhFhEFv1cl+oyN5f8F131mdh5uMV7NXDfVcpd6b7vu7lXLz/GdlshN4/exuxaV27yKo2v6xZJDbbv3Zc58MJtrj/xEuvSFK633OSpspdY7rX9MbbbtrJW2zaWZXl2vt/OG1mDfLR5D3GfECsjlzPb0rlcr19IVZ3U2fipZxmeIksxVem9lLbYca0ojmuZnoxczmzLJ1XppaGpn07X5wtc593OBa/8hRCLWcRTgBmNRqanp7l3715U6ampqaSkpDDzYIa7E3f9tptNekpKCqmpqUG3jd0xtr/QzWGLtuLZ7sscKLtMwQltln9rM2+tv81FS57frP+jtXkcRm26NN8JFmRy2LIPLloy6dECk3U3WiANs++cl1jZksnFF0bYUraKi5azPGfbRIEVLnVUsOn8Vozu9erUtfC2727yCtKzEe77SjgtyDl0a9ORZ6aqYJIL9W2cRAt6FbkMakFQCLG4RdR0mZKSgiHNgDHdGHX6zMwMS5ctxWAIvG7abNNDpcWuhlP6Gt6JboZZxWqvddxyeG53rPkrXD/qWhqnhpsDYPyeqz8vzL4nr9KhBa271856B1rrKzzFVf7NHVxr6LimRL3u3Qc/2czmILW5cN9HQq0MEOSAHU+bGOrw1OA6bb0MGdbycsbcF1EIMf9EVKNzOp0okwrT09Mxpd+/dz9k/rGmO51O7t+7z4MHD0JuH4uCxhG25OjfURhz/bejnJ8/dZkDrnXhfJseE7nvUJ5axfK0HCptI97vD8SpYJpw31eiZBXkA3Zu9OnfNfB9I2RZy2n1uhFR6J7T0gkh5quImy4nJiZiSnc6nTidzqDbzTb9m2++CVmuWKyu62NLjn5B0mNst23y/tCJjRzWalYFjSNUnm+OS7CLaN+hxDno+gr3fSTSUEczN54upyRAs+SQTy1PCCFcknjU5SxN3uZr7b8FjZ7BHYF8fcd/dOHXdxSWP/sKqxO8by8nuhlOe4m3ZvlYw87322lvP87OWeUSvYyVWnNonlk3sMTbyZY2usmnqsykvaPw20GFLOssn42rOE57u+sZQyFEMlmk69FVsOl8LevSXK+3csC21T0ycrT2EsO2re4mwLvXrjKc85x7a/+RlQNctHjXokZrj3P9fK2nGdE96jK0cPsOrYZTFthuq+WArdb9ru+I0UfBe1QklFSXU+IeHalw5ONezmwrprUAUHq50JNGSXqgnBSONHXRUG2mtVrb3tYGFFNVXU6J+2OeEZkRaepl8PVsslea2ACyPp0QSWTRP14ghGoDhz58l3Vjssq4EMlmkdbohPDYcPAc776YCkMS5IRIRhLoxKJ35dCb0lQpRBKTwShCCCGSmgQ6IYQQSU0CnRBCiKQmgU4IIURSk0AnhBAiqUmgE0IIkdSS+PGCnRxvf4PVn77Hm12vcO6n6xg9v5k90S3NNgvaunAB5p7UT9rsv16c/sFlPMdwKB4D4NV13wonuihtgYZqMxk9bbxtm4MFUl1ryAHRrxfnsx7dnO9/llz7vtWlra/noh5XFgAK3afbOOKYq0KFkWem1ZpG9+k2fptbrC2DJGv8iYUpiQPd/NVTmUkP2pp1j7owc8XRz9v1/e6FV+dUnplWK1yob1Yv1HlmWufFenV2quqbUQNe/iMtiRDJLImbLgcYV2D0qytgszPKFOODc7n/Gk5ZMjkc9UoCV7CPwdSdAbyOIS4UvpyAqfFJYJIJBRxjc1Cbe6QM7H8xje7TutpIXy/dzOF6dY5+3q5v9qnNzXOOcaaY5EsHdI5NgjLOnP75CBFHSVyju8LB/+4KEB+wZ7Pv1E4+Ezu7J12uYNP5PfC726xbnwMDZ7nIVrbkeE+O7D2xs8L1o3lc6giQFuFkznof/GSze9FTzzHoqc2y2TFMWXWypdl9wT/S1OyX7jv5svfyN1rTp/uwXRMnG9hfUQSDkxQWmOBWFxcwU7Im0uVz1HyNn3o+W2Qppiq9N3BwcDUF6iduzjPTavWsaOBuBszLp3Cil1KvJkGF3w7CrlwDOBSfZk0XOxfqe/l+BMflfc68myB3lJVTskb9/1Qimom9jttnH77H5W46NdFQnclETxqFBQamerr4LNtMoUFXdkc/b9dr2/V1USpLIIkFLOIandFoZNmyZVGnp6SksGLFClasWBFwu9mmr1ixAqMx8MrnoRQ01rLuzlkOWzI5bKnj+hNb2ete3sbAumdv03j0KndztmK+U0ejfqVuazNWjmvbZtJ4DdbtbnYvyTNam6e9/+hqSzGdl4xcdhVMcqG+mVLtnz5IFVny4WNXmrpczi6L6wJvoDB7nIbTvUytMbNxvI2GHoWsp00BdxWzDM8q46WuIJeRyxlrGt2ntbJ1TFK4TV22Z8fTJoa+cF3cy2mtLqe1IhfGJt3l3v9aPvS0advaUYOVqwYY5rgyciml032+Gnqg8LVcirTcT7ao71+4Fd/TAOj60TzflyeQmmhwnaf6ZkrruxhaY+aM+/syUZjeS2mHndQCM8ZPm7lwy8AzuY9g5XghEiyiQJeSkoIhzYAxPfCFM1z60mVLSV2aGjBtNukpKSksXbaUZYbgATiwYzyXM8BFd02riUsdA17rxw13uJocB+iq9RnB0lHOKd17o1ducjdtFd+JshSx+4A9mzcHrc3Ffl4ATDyfFzil09alGyyhrgOXmu5e64ihT119XnYuJ2KAy0pPkPMKwLlroafTU7a+XroVE8/nGfi+UWHCATvK1IE3pR12mFA8fXMZJp4xKHzWr5W3b4QhDBh1zZohj8vRT5Xuvc7+YaYM6WTH9cADMbD/RRNT+uPWKbLkk6X00uo+T3aqOuykZpu0IKzQ3aXVlr0+J0Tyiajp0ul0okwqTE9PR52+ZMkS7t+7z8yDmYDbzjY9VFpQVhNGcthiG2GL/v3J2xFm4LueHcBAdGVIsJjOi6OftzvSabWW02rFf023QE18iaipBJFVkA/YueFzUc5ON5C6RlvLTkdd5GmSLx0mnl9j53KLQpElTeuj1DgUHGg1GYcCeZlkYedCxBd+n+ZcAOaiLy4NoyFMH6s+oAuxiEXcRzcxMRFT+tTUFFNTU0G3m0260+nE6XSGLFdwA1y0bKTH7/3wq3MXNNayjqs0uhZbtTazd9+qGMsRf7M6L7r+mB1l5VRVAE39dGpNYfS0UarVYNR+tPiUORJDHc3ceLqckgAjJgP3f5losMKXGQYygBuoQdHxhULRyjR3kJhQIKvAEyiHOpojHka/o6yYQnppqNc1o87JqFJ1MFHIxmmjgSJwn6eilWnAeMJLJsR8k8SjLkPo+A2/n8xhS+Ox2PO4Y9eaNivYtPsllsepaJHZyfH2dtrf35nQvQyO+9cW3DWIjFx2FcS3PydjpZZfntlrQIzeyRa1b7CqzNP3d/ILO6kFRez3G0WpBgMPE8+vATDwcjZMuAar0EtDkH7JiLhrTmp/X/BG+FgY2F9RTmt1sc/xqU3HWVa1L9KX2oSaT6m7GdpEaYFB1wwrxOKRxKMuQ2ni0uvA+VoO2La631Uf3g6/dc+5q5j3bXVvO3ztKnfXu2p0vs2a2ufcoy+1B8ldyTm1HLDVBnhwfO75jrhURx56+qdaexSqXM2a2OnuUSiMsPLim3dJdTkl7ge3FY583MuZbVqtSunlQk8aJQHzVjjS1EVDtZnWam37vi5KMdO6rZxWr7L3Aml8n14+U/IpqU6ju8dOobVYHYHoABy9dL9YTFV1PlW6vUQ2WhROdvWycZuZ1mptu55epgpcBdc/EA5ozavu2qfPiEm2ldMaxYPjnbY2oJiq6nJKtPfceTv6efs0nNnm+r60NOmLE4vQt5588smHwRKzsrIYGhqKKePZbBuP7YUAtfl143iIYf15ZlpfHPfui3Q/YC4zgQiRDBZn06VYNE529YJXs6aJBl2zp9pv5W3H0yZ5QFqIJLJImy7FouEaSapr1hzq8Dwo32nr5OVsn6ZL39GmQogFTQKdSH4hZ/ZQAs4QI4RIHtJ0KYQQIqnN20AnA1GEEELEw7wNdEIIIUQ8SKATQgiR1CTQCSGESGrzetTlg7++xZ+zgcGzfPuX7z7q4gghhFiA5nWN7rFfruHbB/+B/7JiKzOFj7o0QgghFqJ5HehUTXzrc4UHGeFXFRBCCCF8LYBAJ4QQQsQu4j46o9HI9PQ09+7diyo9NTWVlJQUZh7McHfirt924dKFEEKI2YioRpeSkoIhzYAxPfAyj6HSZ2ZmWLpsKQZD4PXFwqUDfMtxmwc/sBB0mQUhhBAiiIgCndPpRJlUmBgPvIp4uPT79+4zdT/4KuLh0ul+lW93ruI/D93iz5ulr04IIUTkIm66nJgIHMTCpTudTpxOZ9DtwqUDPNx8g/9ceYlvH3w1fEGFEEIInQUzGOWxsd8/6iIIIYRYgBZMoBNCCCFiIYFOCCFEUlsAga6Chz8w8Jij6VEXRAghxAK0MOa6vHuVv+h+1KURQgixEM3rQPfYL9fw7UddCCGEEAvaAmi6FEIIIWKXsEA3NDSUqKyFEEKIiEmNTgghRFKTQCeEECKpSaATQgiR1BI86rKCf3njv5EDDPz7X/E3XyV2b0IIIYSvBNfomvibj/6KjR3XWf2X/8SuxO5MCCGE8DM3TZf3bPTfy+DJZXOyNyGEEMJN+uiEEEIktYgDndFoZNmy4FWycOlCCCHEoxBRoEtJScGQZsCYbowpHX7DH5Sl5H7vlVjLKYQQQsQkokDndDpRJhUmxoOvIh4qHeAXn/4Vl9JquPxGC3VS8RNCCDFHIn68YGIieBALn/4KddYaVvT/FRs/jXSPQgghxOzN4WCU+3xzb+72JoQQQoCMuhRCCJHkJNAJIYRIanMT6JZZyF3m4A/SdCmEEGKOzdlcl/d/d4xfJHZnQgghhJ9vPfnkkw+DJWZlZckCqkIIIRY06aMTQgiR1ELW6IQQQoiFTmp0QgghkpoEOiGEEElNAp0QQoikFjbQVRwa49Ynf+DWv01RMRclEkIIIeIo4sEo7534A5vufI/nDy5JdJmEEEKIuIm46fLd3uUYnphOZFmEEEKIuJM+OiGEEElNAp0QQoikFnmgG1iCkv0n3ktgYYQQQoh4izzQ/TqV599bwqZP/sCtE39KYJGEEEKI+Il89YJdCrdeXcI//PBJmhJYICGEECKeouujG3tcgpwQQogFRQajCCGESGoS6IQQQiS1iAPde/l3Ue4keEFyIYQQIs7CRq6KQ2P8n3/5v4HlnN0t038JIYRYWGThVSGEEElN+uiEEEIkNQl0Qgghktr/D5W8fEnCJqfaAAAAAElFTkSuQmCC;" vertex="1" parent="1">
          <mxGeometry x="-370" y="-1340" width="209.57" height="110" as="geometry" />
        </mxCell>
        <mxCell id="X9pTo2VU-LmLKZ8eIbQH-18" style="edgeStyle=orthogonalEdgeStyle;rounded=0;orthogonalLoop=1;jettySize=auto;html=1;exitX=0;exitY=0.5;exitDx=0;exitDy=0;entryX=1;entryY=0.5;entryDx=0;entryDy=0;" edge="1" parent="1" source="78961159f06e98e8-21" target="X9pTo2VU-LmLKZ8eIbQH-17">
          <mxGeometry relative="1" as="geometry" />
        </mxCell>
        <mxCell id="X9pTo2VU-LmLKZ8eIbQH-22" style="edgeStyle=orthogonalEdgeStyle;rounded=0;orthogonalLoop=1;jettySize=auto;html=1;entryX=0;entryY=0.5;entryDx=0;entryDy=0;" edge="1" parent="1" source="X9pTo2VU-LmLKZ8eIbQH-20" target="78961159f06e98e8-23">
          <mxGeometry relative="1" as="geometry">
            <Array as="points">
              <mxPoint x="-80" y="-1135" />
              <mxPoint x="-80" y="148" />
            </Array>
          </mxGeometry>
        </mxCell>
        <mxCell id="X9pTo2VU-LmLKZ8eIbQH-20" value="" style="shape=image;verticalLabelPosition=bottom;labelBackgroundColor=default;verticalAlign=top;aspect=fixed;imageAspect=0;image=data:image/png,iVBORw0KGgoAAAANSUhEUgAAAQIAAABaCAYAAABT5Vh+AAAPJUlEQVR4nO2db0xUZ77HP3ttNubiDsIqsGmnINKmKQo7IabXJjPrjk4aDC60Qd2L+IJEICGtLyDREK4a7BqjWXjRGpNiE1+obL2aLa4EY6BTOyR6jSFzodI06/Cvs7sVmIJzLBt7o959cc6ZOfOHP4PDjC2/z6s5f55znnNmzvf8nt/zPN/52csvv/z/CIKwrPm3ZFdAEITkI0IgCIIIgSAIIgSCICBCIAgCIgSCICBCIAgCIgSCICBCIAgCswnB1hm+vP4NY9d9/GlrgmskCELCeSFy1RP+VPsd/M+LZB9ZkfgaCYKQcKJEBI/JSP137rpEBARhuSA5AkEQRAgEQYgmBFsfk8HP8X6WhNoIgpAUDMnCH/js+jh5/l/yh7dMnElenQRBSDA/izAm2TrDlweecO0tEweSVClBEBJLZNPgsxeY4P8wy/gBQVg2SLJQEAQRAkEQogrBC0z4/0lGXuIrIwhCcogiBCv4z49+ScY7MtdAEJYLkb0GgiAsOyRHIAhCUAhyc3OTWQ9BEJKIRASCIIgQCIIgQiAIAlEdihbLFpo/OcAm35/Z/i582PUOWbdPsrP5RvxOMQ+WtlF25CncOV7Ate7g+qxjA9RsNqkLnoscrTmYsHrb7CXUW/xcaemF8gpK0/ppPTOIKy5HnwszrQ1W1MyPQt/5Tt4fX2hZE4eqS3htqJM9TmWR51ePUaTd9uHuduoHFnmomNGuXYm811XlFZRmq59n3M9yffFGrXOmu5M9g2YuVBYynsB7tiwigvtNBRy159B263n50hOBl/qWdspaehlO+LnNtDaUkHa7nTKtDjhKOJSZ8IpEcPayWqcrY8muyfNFHCOCG3h9B3h90gPAlAL8I3HRAIC7Jgd3zKWWtt4un596ZYqhwMGVBEQDycVmL1TfbIG3mZcOdyG1+SYYT4QYqyL448LPtAL4FBhXGEdhesER3LMTRyGAj9/dzsfa5yO/D3+Yqin+tIlNqdqiIUTPOjbALu4yvflN1uHh6mXYUZ4XGsbX9XC4PDjueeRyDudOawuOdvY3vslq9cBctW+LSRDmrrfKvlNdvJM7xJ+3vxfYd0EM9FKmPxDOzkgRKLDS4TAHFkPD1dDwGkOoa7OXUMsI45ZCcvFypRtKHWYY66XssnfeatnsJdSn9wf3zcznQmU6PS29nI3YW29meLmibw+pt7HpYabM4qenJfSBdw2OUPs7MzbnIK6QZgshx/gifwHXFXbPjM0OtSmm3bAF3ovYCKt7SPNjtm0mDlXbYMhPkUW9litYKc021l3h/TO6eHmpb4l3vecmqhCkpaXx+PFjHj58GLXQfNujYWlrYtPkRY6+fRBdFPYf8/BBk2qBsnrzBu4dP4avrokdjpu0HZ9gV2MRFsDNCfb+uo+j9m3qwep6OFzeg+W09sB3V/BBN5ogZCz86uPEypUrSUlJAeC7776LoaSZVkcqfefbo7bfbfZC+Es7ZeOgi0Kt3YtLE4oUyzqmz3fS97sSSt/op/X8FLWVOVThjfIwL5Zg27VMF6jMfC4Y611gpaPSSlVLL2cLcsgdG6UeY3tcoe98P+OoD2hVuZVc/SHNzNfaw6qQ2PLnuy4zra+Oqs0NtHM7rFQNqALlcnbicupCF7ebMPu9CGDiULVxm/p91ZcruC77ARNF60e0a7Gyzd1J65SN+lfNMJDYhz4aETmClStXYko1kZaeFrXAfNujc4INeR6uBpJ0Z7jW7WH1678lS9/Fcy2Q4BvpruB+SPmDnDMm+E73MUIGWY4YqvCMfPzudrbPEQ2s+sUqUlalLOLIJl7LN0Xd4nL2GgRC4YshhZT01OAOY/2B7cO3lyIBaUhgGX74tvx14HYF6zbQT59iZmMB2NakMjPlhwKrmhht6WUYP38bDx5zYzYM/1X78Y97+VqBzDWGezDndXmpN77lB0YZJpWXEpB/sNkLyVX6+ShagrGgkCKTl57ANoX3/9LPTHYOVdqa4LUY93s+iIgIHj16hOJXePz4cdQC822PisNMGnnscI6yw7jeP7HgQ6g9AsY1Cr6F12BJWbFiBd8//J4nT5/EWNJL/fl+LlSW0GFRl68YQ3PtbRkiLwlMcqVYCslFoW8w9Ee7Pt1ESrZe5yB6UnLcp1D1qpnh2724MvOpVaboADYCelu4SH8TZpp5zaTw9eDCHwxj5l9FoS/mq4ud9ekmmJ4jx6Pngn6ERG0aTE9Pz1lovu3Rmb3tnhVlXcj2YwPsyDOWP8FeZ/Ei6rA0zMzMMDMzs7jC44PsaRkEtHC2wQotvWoIXFkIhjB0acLd2Zlxd/IRNur1sD9sW7Sut6pyE/hMvKQHjJnppEyP4so0UTut4EJh/TQUZVvpaAgea6FdmzZ7CaXZRsE009pQuPiLjIGhKQXmuv+mdNZDUCgy01lMjJgMEtN92P059/x57Gg7sfhj+Cf4VvtoadvNurhUbOHsO9VFV9eH7FvCc7h8/oh1475gu7zWEr0JsWjSTNgANNGJ9qN1OTu5MmamtDpf2xfO/tVLisUWtTtwaCpUHKpeVZN6tvx1MOWHzHy2ZXu50qJ3LbbH3pdvePNWlYcnHZ+dqvIKOhoqaC0IXe8aHGEm2xqxHtCaKGa22fXvyMShN8zMuPvjl6+xN3Opq4uuT5rZEq9jasS112B2znDtbeDTJg47dwfWPrh1LJAsnIv7TdcYce6mxjmqlbvJSN6GwPaQAUOgNUH0CCKst4Ldah0iBhYlgbDst545V384XjrcCvWOCjoc6nKfW6FooRFB+LErK+gwZPddThe/WV9CfUMh9Sj0dfcz44h+8LOXO3mpuoT6hnX85nwn7w/0UoaVjsoKOgJ7qW/pISBzDXQMqXXPdPczbLFSn+3lSosCDNIzVkFpQwWlhnMsdHCPy9lPmcWq1Rtm3P0MZ+uvhbBeFrSoI9B7EJbV15o3Cx5YND7InvNwoVL/TjD0DHipb+mltcHQZBrrDSQO44Lzc76q2cQmUzp5QDw75wN+BLm5uQwPJ37oifATo8BKxxtTs4+ejNZNmZnPhcp1fB3T6Mflyb5TXbyz5g4nf38krkKwLEYWCglkoJ8+Cqm1B9+CVeXWQOY8WrvZlr+OlJCeBSGC6g/p6loaEQCJCIQlISwEDxvYE5n1D+stERKOCIEgCNI0EARBhEAQBEQIBEFAhEAQBEQIBEEgrkKwheZPuug6tQ/Yx4ddXVw6Eu+BkM8/lrZR9h+rDixvOXIpMDR536n4Dg+12UvoaFD76KvKK+gwDANeUNly8/w7JoFnuS5hcSRoiLHwU0Q3AYn0Iwwb6jvPOILE+hkK0YhjRHADrw9mJj2AhykF7ifYqux55MY/7oMyhQfwTM6Azxu3UWEunz8wAWdoSpl7imxcMXGouoJaRqL6IdrsNl4b6gz4FQ5nW7lgGGmo+waWtbRTdr6fzDA/w+Rd1/IlQVZl1RR/+h6cvsaaRn3mYPi05BPsdRpmFYZPCgqzKgufsBQ+8Ui3MrO0jWKdDJ/cpE5EWtOt7jNb2cB5HRO0nYZduh1aSN3CJzXBg0nDqc68x3b91M07o4rAliOXOPAG3PnjTo44o+wwGzHaoEV78xrfzhHbZ7FRs9ltpN1uZ8+AmdYwTwLQXIICS16+HIPc9FQgysSecYWIkcXzXZcQdxJmVQYmNjUWc+d4Due6NaORthO4tQfK0lbEXXsO5wBdFPbWHdQeyBPsLc/gzvGcEJvyAI52dm2e4Kq9IMLv4NtJhdVr5/iP97oeaoxl63o4XD5A8T2DJXrqm9Q0erhqz8HtaGd/YzHFjoNc6w63YNOEJ4a7Mh+6DdqTp094MP0ghpJzW3oBkK1aZpVdViK3F1jpmMVGzRXPh7Mgh1xlhFaZZ5BUEmRVpjJyOfhwuf/XA2vNAVMSd40xOjjIXQ+kvVhtKG3ilS3G5XDy2FAXufb+34MuSMFEXh5rUhV896opduTx4NbF4LlPb+OqJ/xcCneO6/6In3PPb2LNK4CjHWuIBdviuNG8k+3bZ48GVv1iFSZTrFNZF2DpNdYbnH6rzaffWADBufSuZ58NWGClNFuhr9foy6c2LToaKuhwmJfIZk2IhcRYlc1Gaga/AtWfMCz0B2OIfZBzx83sb2zisLOJiGZFdwUfvNLD4fJRDpcD/pu0va35Ht6b4IHDTBYn2ICH6UB0MMH9bsiqg+m/z+OJ4L+LOxCJnOHa29r+CfBMfPToEd8//J6nT5/GXDY2Sy/VQkyV91TSTAZTlMWSmc8Fh5nh7vCowujYq4rChTXP05+NLD8SaFUWBd11yNHO/vK8kLZ5RIitOxWjtemdPWAUg9PbOGooW/NpuyoG3V6mG4v4VV0GaZMX6V27G4tjgjTt3FnokYcuBtVkrQWM7fwkE5szskrsll6ppJl0L32jKCwSzW8Rd+c8PQKqKWvRbDkEISEkaUDRCfaW5/Hgq88NbsUKvnvax7qeMKPSUIzhfjS+nYz8QWW9CPdunOHbyQw27Mxg9aSX+5zB/ZXC6s27CeS86nazKdVD7wKck+j2Mm1okqjeivMXC0cda3CJZnvsZeckBksv1aF3hC/GQX84cx0GH4FYMIjA/G95M2UWU9DVWEgKCR1HsE4P3QnL+ndX0LtzlB2No2xqBPw3uePJ4xW9YESzQf1/Qz0aCM/6q00H3RLdg8+/m02v36StCe5zl7TGN3lw6yKg/h1a27EBagIOy6HHnpuDnLtcFGySeC7SdquYXTHel6VgbksvDYOBKGH/E+hydgIl1BssxQKWXuE2aJqdmt7rUGXV/A8tRqdj3SYt3E5MxhE8DyTIjyC0u04QhOcLmWsgCIIIgSAIYlUmCAISEQiCgCEiEARh+SIRgSAIIgSCIIgQCIJAmBBUN/sYu/4NY/89w1zz/ARB+GkRNVl48vQ3FE++yMYjK5JRJ0EQEkzUpsGB/tWY1sZhmrEgCD8KJEcgCIIIgSAIswmBZwXK+h84meDKCIKQHKILwWcpbDy5guLr3zB2+ocEV0kQhEQT3ZikVmFs6wr+8NbLLMCnRxCEHzmz5wh8L4gICMIyQZKFgiCIEAiCMIsQnCx8gDIp/48qCMuFkKe9utnHf/3HP4HVXKyT4cWCsFwQYxJBECRHIAiCCIEgCIgQCIKACIEgCIgQCIKACIEgCIgQCIKACIEgCIgQCIIA/AuIcche/fuJTgAAAABJRU5ErkJggg==;" vertex="1" parent="1">
          <mxGeometry x="-360" y="-1160" width="143.33" height="50" as="geometry" />
        </mxCell>
        <mxCell id="X9pTo2VU-LmLKZ8eIbQH-21" value="" style="shape=image;verticalLabelPosition=bottom;labelBackgroundColor=default;verticalAlign=top;aspect=fixed;imageAspect=0;image=data:image/png,iVBORw0KGgoAAAANSUhEUgAAAbEAAADxCAYAAABF/4lpAAAgAElEQVR4nO3df0xUd774/+eu+7k7+aKDg1bs3Z2KQLvN0kIJIb32m6F26mSvBgvth9bPUv0kNoL3uqvZC3trDF816uVr7PcLu1l7vbfQXJNV2XolFSvBT4M760K+ehtDuKBs3C4C7nRbUApylE9m76J+/zhnZs6Z3zMMyMDrkZjIvOec8z5nZs7rvF/nfd7vbzz11FOPEEIIIZLQNx93BYQQQoh4SRATQgiRtCSICSGESFoSxIQQQiQtCWJCCCGSlgQxIYQQSSt8EHt1kmuf/pFbn47yq1dnqUZCCCFElL4VuugBv9r+NfzHd1i1f9Hs1UgIIYSIUpiW2BQrUv8PrndIABNCCDE3yT0xIYQQSUuCmBBCiKQVOoi9OsUK/grXr2exNkIIIUQMgnTs+DO//nSE7Ill/NMPzDTOfp2EEEKIqHwj5Cj2r05y7d0HXPiBmXdnuVJCCCFENEKnE3/9LW7zX1jl+TAhhBBzlHTsEEIIkbQkiAkhhEhaYYLYt7g98b9ZkT17lRFCCCFiESaILeKHHyxjxRsydqIQQoi5KXTvRCGEEGKOk3tiQgghklZAEMvMzHwc9RBCCCFiJi0xIYQQSUuCmBBCiKQlQUwIIUTSmoEgtpYDH7XR9v42YBtH29o4s39t4jcz63T7Yj/AmbY2jlY87joJIcTCFmQU+8etgvVna1jensGJY3EsvuMi+xy3aXi9nOGE123mrP/Ze7y2WvtD6ebn//NX/N5bms07v6yk0Kz9Ofgpf/8P+jlyXuUfW36Ap0uOcrWB3bX9s1BrIYR4vGagJXYJ1yhM3ukH+hlTYPjLS4nfzKzT7YvTxTCTjN1M0Krf+RGv8Sl/X/ouf1/awFXy+cnPfE+Xr/9ZJYVfe8o/ZWD1DzhS4xlKJZt3fvkDll9tUMt/3g2FlfzjOwmqmxBCzGEBDztnZmYyMDAwg5tUW1qFqZ6/+zlvX0c3kN8wxMYgw1zdvVLLL2q0mc12XGRfme9Ng81ai83RxK49L7E0YGnP+gNbeCtre6l84gIHK3cHXbdhu1HZxtG2N8ga+JgNP/4whuWMvlezl598r19tja39IUd+ks3vf36If7sUpPydH/Evr8Enpf/MBW359T97Tw2K/yAzmgoh5rew6USLxcLU1BT37t2LqzyYlbU7KbxzmoOv7w4o667MCBpsfI6w5YUuDtrXqX/uuMi+sovkH1tHd3s5v2hnGunEI2wpW8HVwxlcaI9pwailpKRgMpl48PABd8fvRrdQZhpmpZ//z9OYfedH/KRwCZCmpg+fTIPBy94A9r2avWpaUlnB90CXkhRCiPknZDrRZDJhTjVjSbPEVR5WdgH5sS8F7OZEpS74HetikBWsdMS1siDMPL12Or01PmTnhg0hW2EPHjxg8ZLFmM3moOUArP0h7xQuYeDSr4wBaO0POdLyntbq+pQB0nhS31/mnR/xLy3vqS20n3ejmNOQx9aFEPNdyJaY2+1GmVCYmpqKqzyU4ZpczjcMsdE5xEZiT9kFphwVRmOqQSi7OXHYyq49Nexz1qBPcybS/Xv3w5S+yj/+JB+uNvD//JvuZXM+P/nJLT4pfVdtca39IWsZ4/ol4P8EVv+Af1nWzc9L/1kNfO/8CLMyxkwmhYUQYi4Im04cHx8Pu3Ck8lDUtCHAEbY4a9hVS1SBbGVtLxuz9cHlCFuc6+OqQ1CelKS2rUrnRUhgIHO73bjd7hClWg/DwU/5e33PwoExFNL4/c9997zUFKMapH7/1Rgwxie63ozfezINvr4hqUQhxLz3mB927md0wv+1RobvwOoXjgRfZOI2X2n/zW/YxGr/8j/c5m7qc+SHSDFavqOlC3dcpHJN6LTe8J9uh696UOqzZOozcrHQBTD/zhiXrvJ7ZQmF7/yQ7wGQzTtrV6H8/qoapP7tBgOs4jVvb8ZXea1wCQPXjOvZ9n4bbfJsmxBinpnl3on+PROB/tO+3oFeR9ji9AUoX8rR//XLjK95jtHDuYbOGCtre3UBStdy0/dgnLjM+d89x0ZP70S/nomgcNVvvZHF1zvxezV7tc4aRgOfvKulFY3PiQU+B2Z8Tsy3nE7FUdpez2Lys/d488B8eORBCCEeSxd78VjYD3Dmp4UMn93AzlieGhBCiDlsDo7YIRJrLQc+epdCM9yUACaEmGekJSaEECJpySj2QgghkpYEMSGEEElLgpgQQoikJUFMCCFE0pIgJoQQImlJEBNCCJG0ZiCIreXAR56hl9RhmM7sXxvy3fkNQ+yqnaWxkCqO0tZ2hgN2WLv/DG1tR4l1gKiIlhyi5Y3/xcU3mqkNHIRDCCFEAiVfS8zRxC7nxTincplpr1D7N4XwuyOs+7iMmuinWRNCCBGHGQhil3CNwuSdfqCfMQWGv5wjY/XdHGOSYVxOuPTlMChj9EdeKgbZLFtyn74//SahaxVCCBHcYxixI3AQYOOcYsZBfn0DBPu97mUcqNc4+G/sg/iu3X+Gd1+Eq//vm+x3xrZnUMG/vvEDvm6XVpgQQsyGsGMnWiwWpqamuHcv+Bk5Unkw+Q01FN45zcHXd2t/D2EzlBdw3Z7BCcATuLbs2M2JY7s5Yd+tjUS/gs5g83w5mnBwlIN2NSCurO2lckcT3e3lDEddw9BMJhMpKSkAfP311wlYoxBCiOkIGcRMJhPmVDOPHj0KGqQilQflaMKW3c95u//UKz7dlet0f+3mev8mbN+pAKIYuba9nBO6VtfwpevcXbOCJyHqIHbpwJuES34uXrKYR48eBQ9iS55iJSN0SytMCCFmRcgg5na7USYUpqam4iqPW8C8XnD3TrQLB5mvLIF3vRYtWsT9e/d58PBBwHb/9Y3/Tva9q/zfH/+ImLOQQggh4hI2nTg+Ph524UjlMXM0sassm8HmDE4cU1/yTzeGk99QQyGXabBr6UMt9Zgok5OTTE5OBilp5O8+btS61/8zT3/8Iz5I2FaFEEKEMrtd7NtdjJPNczvUP1fW9rIx2/9NCqN/0P6742Jgud86AtxxaanDCtbv0GZxjoH6/Jj6LFnM7v2RYdJ5Sp4PE0KIWTHLz4nt5kRzP6vLhtjnHKLyiQs0XFF8xe3ldPabKdyjlu9z3OZqQDbQuI59zl7WO9SS7jOXuZu9SXu9huW/u8zd2do1IYQQs04mxUwo6WIvhBCzKflG7JjT+vn63mKWSTpRCCFmhQSxhPoNNf9xlZV/I2MnCiHEbJB0ohBCiKQlLTEhhBBJK6FBLDMzM5GrE0IIIcKSlpgQQoikJUFMCCFE0pIgJoQQImnNuSCmDvt0lG3AtvfbaPvoAGsTsuYK1p8dYldtRULWFrj6o97hqvT7kBC5Nlqqi9mbDkX2YlqqbWxN1LrDMrO3opz63DD1qsihaCarkJ7DqepyWsqscSxspb66fObrONdM65iJ6Km/j1N2c+S3Cp8En8/CDgA8J4WbT0zELtdGi8N4shtob6KqN0HrT8/h1OY8UrQ/J7tbeduphF0kan51j77eZvZWFFOgP/coPdQ39tERZL0qF+fqOjmOlfpqGxi2Fey16OpsXLfP1rJySlYpdJ1s5dCI9qLnWN7qpLTZ5Vvfi2O+uodRZC+mKt/vhKvf77DUffTvuhXtMQ/ctnGf1f01VMy47zHWz/c9C/JZE+R7aPie+rY9vWMWRX31n6WnruNddFkKePZm4G9la1k568Z8rxvrpzumfr+7YPtsOOYJ2afHY84FsUtfDvOuMqZOoHJnEnCFnd9rzrg5xiTgcsKlLN0+JMKIuu4vRqAjfYIqZYybiVp3byel/ifjRNFO2PoTXZHdxt70zuhPTiN9vF3XF2LdcK6uSf3R5tpocRSzd0R/4nNRVdcUZKUKhxp9rxfZi6nK0hV7jol3G8YAMy0R1619Bt09TK4KnMccFCYtGWzFFbpOIY5Zh7OVDqdnfwdjPGl5jmUMAduf7oS9tayckoocburqEPfFk3bCpruVUu/J3fM983zWaoAIFhjUzyKVrpNNAd/L6R2zcFxUnezh1GYb9bnqfhfZiyigh/rm34P9aQqyrBQ59duz8vwqhRudav3VIOTiXF2r9l2wUl9mhWaX33dA23fd1ovsxZRYeqivU9e/taycqjKFDm9AnUEJPp/NuSBG4042eOa/NExQqc7y7PlZb3QOsREAhauHc7mgTYaZ3zCkG/neWGbkWV8/5z2tOsNcZsZlV9b28hZH6Xyixrt+/ZQxOPfzpmciMf0+6NkPcOanhfDZe7x5IIbQPNLH23Xa/w1BxyP8VajxhxvmxxySfv2BrYYs3dWgYdsvWpnsbjWcmDqcncaTgF/LRH+1qL9SNF5FquseaG/y1aO3k3PPlLMuxwwjivEK1XC1O9OCtViib1VsLctj/GQTh8jhVH6wd0xw42Yq6+xmjgf5/EIfs2j4t1oCP+uQcm20PDNE/VhekO9CoJtjClhiqFqYum21aa1T3bYCvmfh1vtiaoytvlA8n72+1Z7BtZNjrPO0ivQtnpE+PuheTdWLORSNwPZ86DqplfUNsj1/NS+n99HhqVduBpnKIPUjQHoO61YpdJ3Ufz4uqpqjq2dpvpmBdl+APN7Zw7rNES6OEiXi+Sw2YYOYxWJhamoq5MzNocpTUlIwmUw8ePiAu+OB48hHKg9uNyfsu8OmE1fW9rLxCd98Yitre6ncc5Hhdv/3qgHMcqWWgzVatHE0satsBVcPZ6iBa8dF9vktu3RNDbYrtRysbFTX7Whi5bHyqGeNDsdkMpGSkhLjMQH1x20j3XsVaqW+upj60SaqehV+e1MxXtGlW3nWrHCjL/qTW6Yjj66TTZSOqCcSwwnUnEdJWieldS7tiriIvX2tHCKK7YS5AgY43qwGqa1l5awzlKRiMSuM+y1zc0yhxLOv+ivotKh3NQGMrb8iezHb6Yj6BHm8uVX9T3ro93zh7MFS4X+V7lk+1DGLrMheRMF4J6WNcQb8VTaq0L4LuTZaHHlsdQYLgmZezjLDuBJ9oKkoDlE3K8+vgoH2OOucbuVZ8wQ3copp2axFyLhSa2oAS9e1Bj2vl2z2ZAzU/dhud9GhvafD2UNpvo2qzcAtXYZixMUNJY9ntYsygK3PWJm82UMHUJSzmhRlkN/GHXj9fj8jCiOs5rvpwLSD+ewK2bHDZDJhTjVjSQt+uRSu/MGDByxeshizOfgNz0jl8TmCY42ZwXZfUBmuOcrVCf+5x17xBrBf1PiaSyvXPgdXjvpabcdOBy7bf9q7zPCl69xNXcGTsVTRuZ83N2wI2QqL65ikW3mWHj7w/nBctHQrZD6jtm46nD0MmFfzsnZSLMpZTcqtnpiuOgfaPVepalBMSdNNna30UO9p5Yy4uKGY1R+egXoDvKW63HtD19dSi/4E79tnM+lM8IV/6md0IsYVzbD0HLZnDeo+m0RxcW08j9JQHW6mY1VG/DfZ9d+F3iEGSFVPit5127zfgWdvtga0jjMdnu+IX2eJ3DwKzC7OzURrOj2NFKw8SweldU2U1rXSRR5VMXWK8QWwwJanvrUU5Pej/V5BoavTZVjutzcVUrKsWqckLZUYw8VnaC6u3TJTYPPt49aywPudySJkS8ztdqNMKExNTcVVfv/e/bAbjlQeH92EmiEsXfMSS1G4esmY73vyCTNLs2vY56wxvD6Y6CqG4Ha7uX/vPg8fPoxtwfQ0UsxWqqrzqNK/fsvzHxfXbtm0NBu8nAVdn8xUak3hi3EMuXfP6+p9CSv11Xnaa6lYzDAyGsePMsRVY9HyVBgfmiM3p83sfW01Nz5pnZH6HO/s4ZTNCp8nbp0dzlay0sopqS6nhAR3wgFvWle9v2RsSXpakCo1m3AKdftFy1NBGUzcfWB/iv4iUOHQZy5aXjRTBFF9din5eWSi0BVtgLHo1p2ew3Yt/VrwWg5FuhZghz6lmK5LJSbA8eZOnq+20VKt/j3Q3snAqoyAC8NkEDadOD4+HnbhUOVutxu32x1yuUjl8TOz/GnAew8sm+WpxnfcvVLLv7MzaJrxrl/rbLZ9/fXX8S0YIf1x/HMXJS9aKeqDZxnkgxn7opr5rgVGPle0QGM2pEOMJhiP9baIYVkzFr8glpVmZnJspltjoeptTM8U2Yt49mYHb8/UsR5xccNSxN7lid1fXzAxBpJE8qTQSnP76Ah6P8TFtVu+jGrH6ISx442B+nkUPGOF3jguzkbGmDSnkUV0ASuYye5WPqCIqs02tkZzD9GbRjWz9zXtfl6nmVOb8wypRn1KcWuaL5UI2jHxv2cWE79OT+k5nFLGaIlnVY/ZnHtOLKJ2F+P4pwgBdnO9H1Y7mlipvbKydj2rJy7Tfsz4zuGaXM73Z7PxrO+93f/Zz9I1O72zRM8I+wHOtLVxZn9innwD1LSNOY/t4Z5V6e2hizy2v7aakc+MwU7txaX9kZtBJi6uxXujVUv7qMuraZKU/CLf+g3UdEmmI55nRIIsm2ujZJWLi1GdcLVeXIDn/szkTVeUJzG1telJ1wIU2fPI1N+fyLVRNSNpRGM9Dn02wbNZqZHfGhc1OMwMLeX9Yojn93JtlOhTZ2G/42rLiVU2w/OMhu91OCMubihW1nnXraW5o/4+qDqcrZy7ZaUk3DOJWqtr4HPP4xF5FJi1NOJIHx90K6Tk5+l+D56UYhHr/FOJvT10KWa19eZ9Ufe9ztUdj0j3wdNzOLV5NTc+8bsQ9jxvGGKftpapqd/gz5F6biEUR/c5+Ks4SltbG23vR37adu71ToxoNyeaC9hXNsS+MtD3IuyuzICGISqdQ9p7+zlvD97xoruylpVna6h09qrLH1vHQS6yb88QhXvQLT/Xn0dzUVXXSX11MS263mzG7spaB4/8iYAA1eHs4eWKclrM6vu6TrbG1jvJnKdLZRp7s3U4W+kYtdGyuVx3hafQpSuHYqq09BXoU1h+vfxWqfvnKQ9cVr9t/55sWtrE20vRRdXnNlo8jxP49Wzz7zGpptd86z/e3Mp3K4q9qRh1254TgJV6hxUwpni9+xVh3f7PJRVsLqfF07vR/9j3DjHisJHprXr4Y2Zct/a5eVvxQZ6nMhwXv3U7ymlxxN8t3tMaU1seqX49OvXdxtW/A7/jus+7t5NSbLRodQJtn0cg4LuQbzwmaqrbuG59GjX8MTPyfC+qqlfzsre3o1n7DFXe45WewymH2nvXc0+4w9nBy1nFhkcP1JRiHilKj18nDoVDja3srSgO+P2hHZNrZb7jMdBu7DwV+HxZjL/7mdbYw83Xs8habmUthH3MKqHziclcZHOX2kuvZxa7mgux0Kn3gMcT0n1/oVnLgY/epXD0Yzb8+MOw70zClpiIWXqO9gyKBDAhxNy2dv8Z3n0xBQYiBzCQIDa/6Yae8U8nCCHEXHTJMMhFZJJOFEIIkbSSr3eiEEIIoZEgJoQQImlJEBNCCJG0JIgJIYRIWhLEhBBCJK05F8TW7j9DW9tRtgHb3m+j7aMDJHCQpsTZcZF9umGrFqa1HPjIMzTMNo4mekgtj4Jf8+cDt/jzgV8T4/DIQoh5bs4FseRQwXpHtmHal5mW3zDErtqKWdraXPIeD17L5lufrOLb+1+VL6wQwmDOnRMufTkMyhj9QP+dSRh1xfTg26xwvMLTBA4svPBcwjUKk3f6gX7GFBj+MsGf1l9beUg/3+iK/FYhxMKTXA8777jIPsdtGl73tICOsMW5nlFtAGDQZnNe4xvFdLA5gxPeYFPB+rM1FHoG/u4/zcHK3er/vTNGd/GccxOrASYu67blk98whO1OkGlbdlxkX1m290/f1C6B9QxYR4hl/ffHK6DuL7E0oKyC9Wd3wu9uU7gmG/pPc55NbMw2HhfjNvSDHqvHa3l7BtdfGGJjNugHXI7WtvfbeCPzJh9v2EnkQWT8/PWv+Mv2FSySVpgQIoiww05ZLBampqa4d+9eTOUmk4mUlBQg+BxZkcrj5mjirTW3OW/PDTryfH5DDYV3TnPwdc8JvoZdtf26YJTNRucKrh7O4ET7EbY4N+HYgS4IqtuwZffTWRksgKnLxnKCVx1hS4hlh2tyOUiYwMkRtux5ifHmDH5xTPvbuUnbLwAzhd+/TsPh27y1ZxO2K7U03NlJ5QtHgN2w4yKVumO2sraXyrNNfKUL3qvLhrBcqeVgZSP5DUNsfPMIF9p3x7qTIS1btoyHDx9GnL9OCCH8hby4NZlMmFPNWNKCT1sYqXzxksWkLE4JueFI5fELNtcYwBGey+7nvKf1QiMX2vtZ+v1XDJ0zBps9rQx1fjLLd4z3oVaufY6l/V1+QVK9R3b3ytE4ApiHmafXxn7PK3DOtN2caDbul+/eXT+dfkEw/4VsBpt9080M11xgMPU58vXzqvWf9gbP7v/shyesMXVo+fDHG9gQohVmMplYvGQxS8xLgi/85Aoe3r3NN2LYnhBi4QjZEnO73SgTClNTUzGXL1q0iPv37vPg4YOgy0Yqj1t7Ob94+qJvrjF9OtBhxUI2G51DbNQvM3Fb90c/13Wtru7KDL9gdQTHGrh62L8Vos4gPf6neGeF3s2Jw1Z27alhn7OGmOcxu+OKs4NJBSufUFta6txsHgqjur8G/1O3v8fWcTDB9wKDfhf++lf8ZftLPLx5mm//7N3EblAIMW+ETSdGSu+EKp+cnGRycjLkcpHKp0V3ks1vGKLybJPuvtY0J7ncUcDqieu0B7S2+hmdgOXxrhfUAKy/r+e8CNHWVWsZeQLZyu+sAG6HWcDIeN9wdrndbtxud2DBlz/kv+1H7V7/D7/ir372Q2mNCSECJN+98tQVPAmo97S0DhghfHVHN1tv+2/4w0Q2GxuOxLnhcN3qG+n+ncLqsovkB1lSZWb50+r/Vtb2ap0kghv+U2AA+uqOEpD6BBi+dJ27qS/h8KZQj+BYY46y+3809Z6+be+3eZ/9i9lXt/nm0hU8ivxOIcQClFzziR1bx/kXhrwpwcHm0wyWrfcWB/bk6+e83XMyb+TC68DZGvY5N3nf4etBGIHjFZ5O7aczRItluCaXhtpeKnXpSt+6d3OiucCX5uw/zfn+Tdg8C/v1TPT0AOw2rP8oV8/WUOkc0nZN64HYXs4vaGLXHl9K8O6VWq2TR2TB6h2qV6YQQsw1ydXF/jEK3TtQzCjpYi+ECCO5WmKPUWAnDzErvnTxTZ6Dvwa+fNyVEULMNXJxK+a4d1n0yW3+sl3GThRCBJKWmJj7ul7l2zLslBAiCGmJCSGESFpzKohlZmY+7ioIIYRIInMqiAkhhBCxkCAmhBAiaUkQE0IIkbTmWRDbxtG2Ns7sXwv2A5xpa+NowMDwR9jiHGLf2abwI7E7mtjl1A/HFM2642Vmb0U5LWVWwEp9dTmn7EHmEBPzXpG9WPsezDVW6quL2Zs+M2svshfTUm1jK7C1rJyWihyKZmZTYp6RLvZJoMheTFW+MagNtDdR1RvN0lbqq20YuswoPdQ39tEx49tWT0glq8JtV6tfDHWKft1RLquugK6TrRwaiaECQZnZW1FMgfeQBV+v57jGcixjkmujxWGFW52UNru8L/vvd+D2jd+XWOrn/12Z7G7lbafi9y7P8UnU8RYL3TwLYv2MKcCXl8CZzfBPv8/YTf/37OaEPZ4JHaNZd7wUvhiHZ8cmABhXgFHjjz/4CSFaLs7VdXI8zqXj3XaRvZgSSw/1dWpw2VpWTlWZQofnpJpro8UBXd0KZMW48lwbJXRSWufCc2I0rDsKMxNAFA41Nhnq2bLZxlbv8Vfr+uzNHgbIS/TGNVbqHakM3FIMFy9F9mLdMdPq5rCxtVerW3oOpzbnMdLeRGmsxyXXRlXWoPezVtdVxN4+Y6AqshdRMO5iwJxqWLxjdIIqZYybgPpDU2K6oBEL1zwLYpfY/z8uaf//kJ0bjNMwGgYI9gygqxcwEG9/1OtWbeNo2xtkDXzMhh8HKw/teHOTN8gYToJR8r8Kju0E7ddai6VV47niVxfUXV1bKc03M9DuW8/xzh7Wbc5gKy6OY6X+xTHq6/rAXkxBrPvV26k70Sr89qZCQZaZItC259ciirWlF3K/gtUrzEXCyBiTpOmWK8LyWRNv91qpDzN1gL7FFPBZGuoWeJGxtcxG5q1O6sfyqPJtmqw0M5PahVKwum21qQEs7PdGC3QpYDimRctTYXzId3xHFAIaWek5bM+HrpNDWFb5BXD95+lslQAmohY2iFksFqamprh3715M5SkpKZhMJh48fMDd8bsBy02n3GQykZKSEnLZcIZrcjmIFsye8Ct0NLGrbAVXD2eoszM7mti1Z0VM648k0n7HSz2hTnCurjWO1pYawNK7WymNtbWVnsMpRypdJ5vUE3xAq0NhXH8mG1EYYTXfTQdGXFRpYymHuvcxnf0qsufBJ02UjoAnoG23u+iIZh8j7VeuzVCvInsxVRU53AwSJItyVpNyq8db/45oTtCrbKzrbqW0WQlsLeXaaNHXzV+ujZJVLs7VucBuDBTHP3dR4iimfrSJql4ze1/LI+WW57Oy8vwqhfExGy3VngDpH5zNFDjSOFfXxHG/Y9rRN8j2zTZO2dWAurVMSxGP+Jbd+1oedLdyaCSV+kjHQIgohQxiJpMJc6qZR48eBQ1i4cofPHjA4iWLefToUdCT9XTLw5XFK//Nl+BKrRrA4haqhaaKtF/hpOQX0+K5cjfc5/C0eMKd6K2UVJdTAvi3KorseerJJszJPdS2i3JWQ3eH72Ta20PXi8U8nwv0urh2y0aJzQra+7eW2chEIboRpKLZL016Dtv9Wn0dzk5dsNBaammpgG8/Mx3ltDjU/+tbM+H3C7Y+Y2WgvUkXmHoozc/j5fQ+OrRWqK9lq9B1MvoUJwC3On0tq94hBhw2bdtm9r5oZbI71L0ktdxTt4CLg95OSnvVjkMtDnWfvRcu6WbSMZOZ1kNpXSegtQYNwVmh66TvAkVt/VopcvbRMdLH23Uu9rLsskAAABlJSURBVFZo35VbnZQ26vY7N48CPN8zYypRiOkIGcTcbjfKhMLU1FRc5ffv3Q+74XjL3W439+/d5+HD5BwKNtJ+B9PhbKXD6flLvQJuKdOCSbqZdBRuhLxB7qKqzv8eTTF7tUCWlWaG8dD3H8JtOyvNTMoqXYDTeCbjOd7cyfPVNlqqtdfbOxlYlcEX0dzMj7hfHlbqN6tX+IY0mD7t5XHL9199+tbT8+4UaiALv19mvmsxBkCVPjjrj7kaNOrjvv82wbgCFgBSsZhhZDT4BYd6v6kz9P0sXSuudETd55YsfZrVxTndPUU1/ZtGFgT9fnSMTlDluZdpuJ+mfU+qPS059R5d18lOSROKhAubThwfHw+7cKjykFPOJ6j866+/DluvuSrSfkXH06rQ/gx27yGc3iEGHL40080xBd1tkdi2TaROH34BND2HU8oYLdFsKqr90lo8tzr9UqG+wOZ5vchebLg/5F/Pa7dA33s8UmeW6O85qutet9yMvhUYvVQsZk9aVh/Q/Jl5OcsMZt9Fg8pGS7VC18kOMLTiXFTVdVJfbaM0t4+OXn2qN7qa6e+DbbWpqUn1mCgcamxlb0Ux6+xmjo9mkIkZNpcbP/vN5bT49Z4UIlbz7Dmx+H11R2Hp91/Rnh07wpY9L7E05rWoz5K1vb8t0dXz8aTOPvf88F1cu2Wm4LXonqtR71UM8lvtRNXRN8jkKhv1ubFv+/jnLlLyi6J7dig9h1ObV3Pjk2g7V0TaL10AC3ES9LZYtHqHlGujZJXCjT71/eH3Sw3kmQ71maaI0nNYp1t3rNR0r+fzCrdttVdkaZ3vX323oqb16nzpx5Q0XSovN4NM731L7XjbfB1G1MA0FCKdq6V7P9cde4vZ91mlW3nW02rs7TTUq7SukwEUtUUYQwDb9n4bbQl9PlPMB3NqZueZnRm6gvVnayj0T8d7eynqyxWuHr7A8j0FXLevi2EyzPh7J4YW3XNHIZ//8evJ5v/cEBCYevP2Ooti2/7r13UGCN+Dz3/d/tsOv1/Bnl8LXe6iqzuVgrQebd/9n50L0rswzH4RsG/6evuv2++YBaw3wn4F6VUZ3fNYntZnj+H+adi6+X8mfvde/Z83NLZGAz/P0K1VK/XVeYzH+pxYxVHaXs9i8rP3ePPApcjvFwvCAgpiQoikZj/AmZ8WMnx2AzsbH3dlxFwxz54TE0LMP2s58NG7FJrhpgQw4UeCmBBijtMPNCCEkXTsEEIIkbQkiAkhhEhaEsSEEEIkLQliQgghkpYEMSGEEElLgpgQQoikNc+CmDrs05n9a9UHI0MNUbPjIvucQ9q/XtbrBnJdWdvLPucQW3bMWqUfsyiPWVzUwW9P2c3qqCDV5dENb5UIuTZaqovZm66OXNFSHeUwUUKIpLIAnxM7wpaybAabMzhxbDa3qw5rtbx9trcrhBDz1zxrifUzpsDwl5fA6WKYScZu+r3FYcVCP9dDBJLhmlwO2hdSoInimMVNHXV9ZFTRRqX3myRzJo2MMckEX4yoU4agjJGw3RJCzBkLb+zEHRfZVwbnAwb2PcIW5yZWA+oAwLnGCTJ3XGSf4zYNx+Atzwj33sGDIXCA4X7vNvIbhtiYHViVu1dq+UVNo7ruF7pouLOeyjVmY1mwdU9cpuH1coZR059vcZ3xNS+xmn7ON8PGsmxj3XZcZF+ZpwJB9i2imRjYGAIHjfUfiNdv0FnvgLRW6qszGO9OpSDfzGR3JzeybBSYgw+OLISYv8KmEy0WC1NTU0Fndg5XbjKZSElRx0QPNvfXdMuXLVvGw4cPI853preyttcbIAA2OofYCLqT/W5O2HejBrP1wVeS+hKVe/o5b8+g29HErj3rWe/YzYV2WFm7k8I7pzn4+u6AxborM+iOlE7M3kQlpzlo360FnU3k00g3sLJ2ExzL4GA7eALaW7UV3iC3dM1z/OFwLaM7atjouEzD4du8taeAfFDrWbaCq4cz1MC14yL79lxkuD2W0fnDi/R5heKdxLEx+HQcW8syuFbXRBXgCWj1uZ6R0a0UpHVS2p5Bi8OGpb2Jc8+Usy7HDCPxTXsihEg+IdOJJpMJc6oZS1rwKfgilS9espiUxSlBy6ZTbjKZWLxkMUvMS0IuG4wnTXiwuR+1lZSh/l0ZGHRCU7h6WDv5t/+GP0yYWf60rjhbDRxxmbhMg6cux7oYZAUrHZ66r9O1nBrp/p3C0id0Tbv+C97ywXa1heaxcu1zcOWob/ljp7k6kc1zMXVc+ZCdGzaEbYVF+jxDWpURssPF8WZ9q0ybuHK550JEoatTC35KDy1xzZoshEh2IVtibrcbZUJhamoq5vJFixZx/959Hjx8EHTZ6ZaHK5tRE9fp1gWTC6/7htMersnlfMOQt4VnTAdOk6OJXf6TdPZHt+iTT5hZml3DPmeN4fXBxNQMiPx5hdLhbCUrrZyS6nJKCDIvVpC5tybHElBhIcS8ETadGCldF6p8cnKSycnJkMtNp9ztduN2u8PW63FR04agpiRr2FVLAgKZOss0V2o5qK1rZW0vlU9Ev4aEBtQgIn2e4RxvbtJaW1bqq4s5hRbI0nM45bAaJlbcWlbOukRVWggxL8yz3olzRT+jE/6vNTJ8B1a/cCSuNY7/SQtCjibeWhM4o3Eo3f/Zz9I1Ow3PwsVOfZas7f1t01lJBGpPRiNdb8Zcm2GG54SoOErbjO+XEGImLcDnxEIw9OCD1XuGKNwTbU8+/56JqB1G/Fo/3ZWnec65iX3OTUC0LaTdtF9ZT2XZEPvKAPq5ekWhMNqW2LF1HOQi+/YMUbjHW7kgvTNnW+B09tzqpNSTThzp4+KtPEo2l9MCoPTQdcvKs4msQmMPN1/PImu5lbWAzFglRPJZeF3shfDSZgweTfSjA0KI2SItMbEgrd1/hndfTIGEP/smhJhNEsTEgnTpwJuSPhRiHpCOHUIIIZKWBDEhhBBJS4KYEEKIpCVBTAghRNKSICaEECJpSRATQgiRtOZZEFOHRzqzfy3YD3CmrY2jFb7SlbW97HMOqf8a4hv+Kfms5cBHnqGVdMcnIczsrSinpcyKOvZhOafsuiE40nM4VV1OS3U5LdW2kKPVB6eurz43zqrl2mipLmZvOhTZi+PYvhAiGcyzIBaeZzqWhiszM99UfsMQu2orIr9xoRjp4+26JkpP9hDf8MBCCBHePAti/YwpMPzlJXC6GGaSsQU/J/0lXKMweUedR817fBJC4YtxmBybwDOA78joHJmQcmSMSSb4YgQ6RidAGWPBfxWEmIcW5NiJ6lQmFwInxPQbBHiw2TgLs//s0J5y/9e9vLNGH2GLs4Drh29j88wLNnGZhtd1E1iG2vaOi+x74TZXn3iJwlSFq83XebrsJZYalj/CFucmVmvLxjP1yrb323gj8yYfb9hJwgdhSs/h1OY0LtbpJ7lUBwC2fOabaqXIXkxVWg+lzS48MznjmYolPYdTm/NIUXqob+yjw/P+fM9xd3HOsH4hxEIQdtgpi8XC1NQU9+7di6k8JSUFk8nEg4cPuDt+N2C56ZSbTCZSUlJCLhu/I2x5oYuDdm3Gqh0X2Vd2kfxj2mjvjibeWnOb8/bcgNHfh2tyOYiaTrTdCRVAstm4B87bM+jWgo5jB1qQjLDt7JdY3pzB+ReG2Fi2gvP20zznXE++Ay60V7D+7CYs3vnG1LnMtuxoNATg6Yj0ec04LYCN6OYWI9dGVf4E5+paOY4W0CpyuKkFOCHEwhAynWgymTCnmrGkWWIuf/DgAYuXLMZsDj7v1XTLw5XFbzcn9C2zY10MsoKVhnm4snluR7zrV7h62DP9yW6u94PlO577ZxG2PXGZdi0g3b1y2hhEHa/wNJf5d2/g3E37FSXmecs+/PEGNoRohUX6PGbU8iABDNj6jJWBdl/Lq8PZw4B5NS+nz34VhRCPT8iWmNvtRplQmJqaiqv8/r37YTccb7nb7eb+vfs8fPgw7PLxyG8YYmO2/hWFUc9/28v5xdMX2eeZ18s/HTiT2w7n6RUsTc2m0jlkfL0/QRXTRPq8Zkpmfh7g4lqv/lUz37VApqOcFsNFhkLXrNZOCPG4hU0njo+Ph104VLnb7cbtdodcbrrlX3/9ddh6xWNlbS8bs/WTRR5hi3O98U3H1nFQaxHlNwxRebYpIYEsqm2Hk+CA6i/S5zGTBtqbuPZMOSVBUoUDfq0zIcTCM896J07TxG2+0v6b3+DrKBHMV3cCe+F9dUdh6fdfYeUMb9vgWBeDqS/x1jS79m97v422tqNsm9ZaYpe+XEtR5tp0nTSMjje30kUeVWVW7RWF395UyHRM89mviqO0tXmeoRNCJKMFNJ9YBevP1lCY6vl7E/ucm7w9CIdrLjDo3ORNy929cpnB7Oe8Swf2QOznvN3Y+hmuOcrVszW+1J63d2J4kbYd3m5O2GGLs4Z9zhrvq/49Kx8HY+9BKKkup8Tbi1Dh0Cc9nNpcTEs+oPRwrjuVkrRga1I41NhJfbWNlmpteWcrUExVdTkl3rf5ei5GpbGHm69nkbXcylqQ+cWESEILsou9EKq1HPjoXQpHZXZnIZLVAmqJCeGzdv8Z3n0xBQYkgAmRzCSIiQXp0oE3JX0oxDwgHTuEEEIkLQliQgghkpYEMSGEEElLgpgQQoikJUFMCCFE0pIgJoQQImnNsy722zja9gYrP3uPNztf4cxPCxk+u4GdsU2tNQ3avF5BxjLUD/AbON+X/qFbfPtwIBGdwNV5uwrGOylthvpqG+ndrbztnIXJKz1zgAGxz/flN5/YrG9/mjzbvtWpzY/moe5XJgAKXSdbOTQyW5WKINdGiyOVrpOt/DanWJvqRuZoE3PbPAtic1d3ZQbdaHOOPe7KzJaRPt6u6/NOijmrcm20OOBcXZN6Es610TIn5htzUVXXhBrM8h5rTYSYD+ZZOrGfMQWGv7wEThfDTDI2q3PS7+aEPYODMY8ofwnXKEze6cewDwmh8MU4TI5NABOMKzAyOgutsMfKzN4XU+k6qWtF9PbQxSzONzbSx9t1TX6tsDluZIxJJvhiBDpGJ0AZY1Z/PkLEYZ61xC6x/394Tv4fsnOD/3BCfoMAewforWD92Z3wu9sUrsmG/tOcZxMbs40D6RoHAVa4ejiXC+1ByqIc+Ffvwx9v8E5I6dsHPTVVmhXHMEnHm5u8J/NDjU0B5f4D9RqnONHSkd7d9gyya2ZvRRHcnKAg3wq3OjmHjZJV0U6Roq7X8pnvvUX2YqrSeoKf+D3pOf0gv7k2Why+ke29qbncPArGeyg1pOkUfnsTtueYYUTxSzV6uDhX18N3o9gv4zEzpgW3lpVTskr9/+RMpG4N++23Df/98qYzrdRXZzDenUpBvpnJ7k5uZNkoMOvqPtLH23Xacr2dlMo0NyIJhG2JWSwWlixZEnO5yWRi2bJlLFu2LOhy0y1ftmwZFkvwGafDyW+oofDOaQ7aMzhor+XqE5vY5Z3CxEzh92/TcPgyd7M3YbtTS4N+hmRHEw6Oastm0HAFCnc0eaddGa7J1V5/fK2cuI5Leg7b8yc4V9dEqfZPH4CK7HnwiadMnRJlu91z8jZTkDVG/ckeJlfZWDfWSn23QuYz1qCbilu6b3bnUk8AS8/hlCOVrpNa3donKNisTs2y9RkrA597TtzltFSX01KRA6MT3nrvfS0Pulu1ZV2ogcjTcouwX+k5lNLhPV713VDwWg5F2tqPN6uvn7uV2MMA6O5b+T4vX5C0Uu85TnVNlNZ1MrDKxinv52WlIK2H0nYXKfk2LJ81ce6WmWdzHsOM3UIkSMggZjKZMKeasaQFPylGKl+8ZDEpi1OClk2n3GQysXjJYpaYQwfX4I7wXHY/570tpEYutPcb5v8abPekAfvprPHrDdJezgnda8OXrnM3dQVPxliL+H3Izg0bQrbC4j8uAFaezw1e0uHs1HU8UOfxSknzzmfDwGeee0wuLs5EZ5HlvgBmCK45q6G7w1e33h66FCvP55r5rkVhfAS2lqmdWErbXTCu+O6FpVt51qxwo0+rb+8QA5ix6FKNYfdrpI8q3WsdfYNMmtPISuiOB2Nm74tWJvX7rVNkzyNT6aHFe5xcVLW7SMmyagFWoatTa+Ua3idE8gqZTnS73SgTClNTUzGXL1q0iPv37vPg4YOgy063PFxZSA4rFrLZ6Bxio/71idtRrsB/PjKA/tjqMMPiOi4jfbzdnkaLo5wWB4FzcgVLu81ECyOEzPw8wMU1vxNuVpqZlFXaXGQ66kQ+E3wxYuX5VS4uNisU2VO1e4KaEYURtBbIiAK5GWTi4lzUJ3W/FCsAs3HvKxWLOcI9TX2wFmIBCHtPbHx8POzCoconJyeZnJwMudx0yt1uN263O2y9QuvnvH0d3QGvR54VOb+hhkIu0+CZCNPRxK49K+KsR+JN67jo7n9sLSunqgJo7KNDS0/R3Uqp1vJQ71slps7RGGhv4toz5ZQE6VkY/H6TlXoHfJFuJh24hhrwRj5XKFqe6g0A4wpk5vuC4EB7U9RdybeWFVNAD/V1utTmrPS+VDvmhE0YW8wUgfc4FS1PBcZmvGZCPC7zrHdiGO2/4Q8T2WxsOBL/Ou64tHRjBet3vMTSBFUtOts42tZG2/vbZnQrN8cCr/K9V/7pOWzPT+z9k/Tl2vpybYbOJXrHm9V7cVVlvnttxz93kZJfxN6A3obqid7HyvOrAMy8nAXjno4f9FAf4j5gVLwtHvX+WujEeDzM7K0op6W62G//1HRupkO99+dPTWvmUepNDVspzTfrUqNCzD/zrHdiOI1ceB04W8M+5ybvq+qDx5GX7j5zGdueTd5lB69c5u4aT0vMP9Wovc/bS1F7CNpTnF3DPmdNkIeeZ59/z0S1h57vflBLt0KVJ9WIi65uhYIoGx3+6y6pLqfE+9CxwqFPeji1WWsNKT2c606lJOi6FQ41dlJfbaOlWlu+t5NSbLRsLqfFUPceIJXv0sMNJY+S6lS6ul0UOIrVnnojwEgPXS8WU1WdR5VuK9H1qoTjnT2s22yjpVpbrruHyXxPxfUPMwNaytPbavTrWcjmclpieOi5w9kKFFNVXU6J9pp33SN9vH0STm32fF5amdz7EvPYN5566qlH+hcyMzMZGBiIa2XTWTYRywsBakp03ViYru25NlpeHDPe+/M+HC0jVAiRTBZOOlEsGMc7e8CQarRSr0tFqveJjLY+Y5WHe4VIQgsonSgWDE+PS12qcaDd95B3h7ODl7P80on+vTKFEElBgpiYn8KOOKEEHblECJF8JJ0ohBAiac2pICadOoQQQsRiTgUxIYQQIhYSxIQQQiQtCWJCCCGS1pzrnfjwf97iL1nAzdN8+5fvPu7qCCGEmMPmXEvsm79cxbf3/xP/bdkmHhQ87toIIYSYy+ZcEFM18o3fKzxMjzy6vBBCiIVrjgYxIYQQIrKw98QsFgtTU1Pcu3cvpvKUlBRMJhMPHj7g7vjdgOUilQshhBDRCNkSM5lMmFPNWNKCT8EXrvzBgwcsXrIYszn4/FCRygG+MXKbh9+z8yjkO4QQQix0IYOY2+1GmVAYHws+e3Ok8vv37jN5P/TszZHK6XqVb3es4L8O3OIvG+TemBBCiEBh04nj48EDVKRyt9uN2+0OuVykcoBHG67xX8sv8O39r4Z9nxBCiIVrTnfs+OboHx53FYQQQsxhczqICSGEEOFIEBNCCJG05mgQq+DR98x8c6TxcVdECCHEHDZ3x068e5m/6nrctRFCCDGXzbkg9s1fruLbj7sSQgghksIcTScKIYQQkSU0iA0MDCRydUIIIURY0hITQgiRtCSICSGESFoSxIQQQiStGeidWMG/vvHfyQb6/+Nv+bsvE78FIYQQAmakJdbI3338t6xrv8rKv/lntid+A0IIIQQwk+nEe0767qXz1JIZ24IQQogFTu6JCSGESFphg5jFYmHJktBNqUjlQgghxEwKGcRMJhPmVDOWNEtc5fAb/qgsJuc7rySinkIIIUSAkEHM7XajTCiMj4WevTlcOcAHn/0tF1J3c/GNZmqlwSaEECLBwnaxHx8PHaAil79CrWM3y/r+lnWfxVM1IYQQIrwZ7thxn6/vzewWhBBCLFzSO1EIIUTSkiAmhBAiac1cEFtiJ2fJCH+UdKIQQogZMqNjJ97/3RE+SPwGhBBCCAC+8dRTTz3Sv5CZmSmTWwohhEgKck9MCCFE0gpoiQkhhBDJQlpiQgghkpYEMSGEEElLgpgQQoikFTSIVRwY5danf+TWv09SMds1EkIIIaIUtmPHe8f+yPo73+H5/Ytms05CCCFEVMKmE9/tWYr5ianZqosQQggRE7knJoQQImlJEBNCCJG0wgex/kUoWX/mvVmqjBBCCBGL8EHs1yk8/94i1n/6R24d+/MsVUkIIYSITvhR7Lcr3Hp1Ef/0g6donKUKCSGEENGKfE9s9FsSwIQQQsxJ0rFDCCFE0pIgJoQQImmFDWLv5d1FuTMDkz8LIYQQCRA0QlUcGOX/+pv/DSzl9A4ZckoIIcTcJJNiCiGESFpyT0wIIUTSkiAmhBAiaUkQE0IIkbQkiAkhhEhaEsSEEEIkLQliQgghkpYEMSGEEElLgpgQQoikJUFMCCFE0pIgJoQQImlJEBNCCJG0/n/4jnJhDKUazQAAAABJRU5ErkJggg==;" vertex="1" parent="1">
          <mxGeometry x="-530" y="-1090" width="215.6" height="120" as="geometry" />
        </mxCell>
        <mxCell id="X9pTo2VU-LmLKZ8eIbQH-24" style="edgeStyle=orthogonalEdgeStyle;rounded=0;orthogonalLoop=1;jettySize=auto;html=1;exitX=0;exitY=0.5;exitDx=0;exitDy=0;entryX=1;entryY=0.5;entryDx=0;entryDy=0;" edge="1" parent="1" source="78961159f06e98e8-23" target="X9pTo2VU-LmLKZ8eIbQH-21">
          <mxGeometry relative="1" as="geometry" />
        </mxCell>
        <mxCell id="X9pTo2VU-LmLKZ8eIbQH-27" style="edgeStyle=orthogonalEdgeStyle;rounded=0;orthogonalLoop=1;jettySize=auto;html=1;entryX=0;entryY=0.5;entryDx=0;entryDy=0;" edge="1" parent="1" source="X9pTo2VU-LmLKZ8eIbQH-25" target="78961159f06e98e8-25">
          <mxGeometry relative="1" as="geometry" />
        </mxCell>
        <mxCell id="X9pTo2VU-LmLKZ8eIbQH-25" value="" style="shape=image;verticalLabelPosition=bottom;labelBackgroundColor=default;verticalAlign=top;aspect=fixed;imageAspect=0;image=data:image/png,iVBORw0KGgoAAAANSUhEUgAAAdQAAABICAYAAABP9ATgAAAKkElEQVR4nO3df0jc9x3H8VeXMMLsLtF2uUB7MRoJpTa6Q0rXwl03EykJOm1xzWbsH0KNELr+cUJKcWlJ0lAS0D/aEmhSyB81dh2h1VYSgsa1J7QLQ+RshdL6I+bG1kuc5r6pxQ6z7Y/v3Xmnd/rVfO/SS56Pv7zvr3t/v8K97vPj+717Nm/e/D8BAIBb8pPbXQAAAHcCAhUAABsQqAAA2IBABQDABgQqAAA2IFABALABgQoAgA0IVAAAbGAtUHfM6IsLVzRxYVLv7UhzRQAAZKG1y29yU+81/Vv62wPKf3VN+isCACALWWihzmnj+p/pSz9hCgBAKoyhAgBgAwIVAAAbLB+oO+a0UT9V8GIGqgEAIEstMSnpB128EFJR+D699pRDpzJXEwAAWeeeZX8PdceMvjhwU+efcuhAhooCACDbLN/le3Gtruo/cnH/KQAAKTEpCQAAGxCoAADYwEKgrtXV8PfaWJT+YgAAyFYWAnWN/vD2fdr4DM/yBQAgleVn+QIAgGUxhgoAgA1SBmphYWEm6wAAIKvRQgUAwAYEKgAANiBQAQCwwRIPx79Vv9ahPx/Qo5MfaPcL0pvnntGmS8f1u0OfpO8tF3CfvKyqIkN/f71E53vml286OqR9jzvMFyPv6/C+lzJWt7e8Uj53WF2t/VJtnapzA2o7NSy/LUdfikttzR6ZI+OGBtq7dSRkdV+HDjZW6qHRbu3tM1b5/uYxyiKXfaynQ76hVR5qxSLnbiy+1g21darON/+eGbyV87ObWbNzsFt7h106U1+qUEavGYCVuitbqN+2lOhw+Rad/PzH8uGZCUH5WjtU09qvsYy/t0ttzZXKvdShmkgNqqjUQWfGC1nk9Fmzpq6J210JgGyXxhbqJwpOHtDD10YkSVOGpH9mrnUqSYP7tmhwxXult27/ZFg+Y0qjsYMbGWid3l7e8lKzpRVrXQXVOViqpmKHFMrElxrzy0R2CWvakDRpSCFDIRmattyjAOB2SGOgSu+8sFvvRP5+9fcLQ6lRuz5s0aPrIy/jul43HR3Ss/pS048/oQKN6OOzUlVtUWL37P5evVI7/zzE8bNb9O6JyIuKDr348hPaYB5YH5fvXFGwLl236fm3zumZwlF9sPuPsW0tGepXTTRY+roXh2mJR50VrtjLxG7IxG5TxXVhessr1aRxhdylKlRQXT1SdYVLmuhXzdngsmV5yyvlywvMb+ss1pn6PPW29uv0oq2j3cdBdUXXJ9Qd36XsUo07rN7WxOD0D4+r6bcuefuG5U/ojlbCMT4ttnBeC65ZfHey2cUeuWAWr8XKLKg9oVs51TqHDjZ6pdGwytzmuXTJo+r8+NoNHTkV/RIQlK/V7roB2M1SoObm5mpubk43btxY1fpk3Cdb9Oi193X46ZcUDdcXj47ojRbzp8w3PP6Ivnn9qCb3t6iq4jOdfP2qnn25TG5Jgzqm5345oMPlO82D7e/VK7W9cp+IBGdPnd7oUSRYN1quyS45OTlat26dbv73pq5PX1/Bni61VazXQHtH0vFNb3mp9FGHakJSNFybyoPyRwI3x12g6fZuDfy2UtWPBdTWPqWm+i1qUDBJKK7W/NheTTToncU6E193iUed9R41tPbrdMkWFU5clk/x45WGBtoDCskMuoZajwqjYecsjowXmoHsLV7uvFxq23bZ7EZW5L0rPGoYMoPe39ctf1/0C4NtFyH1tYhx6GBj/Drz/+WrNeQ/G5bkUNnW8ci5eLRzsFttU175trmkIcITyEbLjqGuW7dOjvUO5eblrmp9csf0SNGIPo5NBjql8z0j2vDwb7QpusnI+dhEovGeOn2bsP9Lejd+ItGJAY1rozZVrKCEW/TOC7u1O0Xr9ObNm7r35/fK4XAkWbschx4qTr6fv68/LmgNfTpqKCdv/fwGE4HY+rFL6ZjoFDdRJi5AvMUF0qB/vrahgAYMl7aXSN7712tmKiyVeMwJWK39GlNY/wjNH3N7vjT2dSREQkF9ZUjO++OuwZLnFZQvvtU5dFljWq8HMzA+6y0vVaER0NvJJjKVlKrMEVRvbJ2hIx8FNJO/RQ2RJfPnEr8dgGy1bAt1dnZWRtjQ3NzcqtYnVeFSropU1XdZVfHLw1ctH8KcwRu/xNCk9QrS7rsb361ir6B87QGdqa9Up9t83RXf5RppveXE75LByTQ57lIVytDAcOKH/9Y8h3LyozXPi05+Ck0aatjm0tilfvmdxWoyptQpabuk6FhhWbRl5nTpIYehr4atB0z8TF2ToYEVn93Kbc1zSNNLjIFHx8oB3BUsdflOT0/f0vrkUo9tbkqyLGH90SFVFcXvf0zP9e1aRQ3pMTs7q9nZ2dXtHBrW3tZhSZFuymaP1Npvdm3Wl0px3Yvp6cZMbWawW2/LK1+0O3fBumS3nDTUOqRJhx6MdmA485QzfVl+p0NN04b8MrR1WirL96izef5YVm/p8ZZXqjo//ouHS23Npas/yRUYnTKkpa6/I09bpfnAdeYlfhkCcEe5PbfN9PxV34SLVHXy2OqPEb6qf0X+dJ/cowJbCrPu+bfO6dy5N/V8Gt/DPxletCw0OT9u2eReTZfyEnId8kpSJLyTffj7+7rVNeFSdWNxZFvp9NdB5bi9SW+DGZ1KDNmGbebkIW9xgTQVlpzF2pkfVFdr9JaajpXfCxrXEmyoXTi56dY11Naps7lObSWJy/3D45rJ9yxaLinS9ezSzvLo/8ihg4+5NDMYsHE8G8CPSVpn+aZ2SueflvRhi17p2xNbev3zo7FJSUv5tuW8xvv2aF/f5ch+n2m86JHY+oQHN0iRruVoi3bB7GLtMWtY9ICH22DBbNXoTFfzAziozkFDvoo6dVaYrwcGDZVZbaEuPHZ9nTrjZuP6+/x6cmulfM2l8snQQE9AMxXJD376bLcebKyUr7lAT7Z368hQv2rkUWd9nTpjW5mtxlFJzvulzlGzdudgQGNuj3z5QXW1GpKG1TtRp+rmOlXHvYfVhyz4+wKqcXsidUszgwGN5Ue/Xi2YFa1IKzg223fBLNxIt7XlBzyEhrW3XTpTH/2fKG4mb1C+1n61Ncd1hU/0xyYoAbjzpPw91MLCQo2NZf4RALjDlHjU+dhU6qdBJbs9x1msM/UF+mpFT3MCgNvrrnxSEjJoKKABlaqpfL5V1lDric10TTau6C0uUE7CTGAA+PGjhYoMWNC1uuABC4tn6S6Y3QwAWYBABQDABnT5AgBgg5QtVAAAYB0tVAAAbECgAgBgAwIVAAAbLBmojYcmNXHhiib+MqPGTFUEAEAWsjQp6fiJK9p17QFtf3VNJmoCACDrWOryPRDYIMcvVvDzbAAA3GUYQwUAwAYEKgAANrAWqCNrZGz9QcfTXAwAANnKWqBezNH242u068IVTZz4Ic0lAQCQfaz9wHiToYkda/TaU5u1/M9/AwBw97E+hjq5ljAFACAFJiUBAGADAhUAABtYCtTjpddlXLM23AoAwN1oyZRsPDSpP/3qe0kb9P5+HjsIAEAq/MA4AAA2YAwVAAAbEKgAANiAQAUAwAYEKgAANiBQAQCwAYEKAIANCFQAAGxAoAIAYAMCFQAAGxCoAADYgEAFAMAG/weL8fuLno2SsQAAAABJRU5ErkJggg==;" vertex="1" parent="1">
          <mxGeometry x="-520" y="-870" width="130" height="20" as="geometry" />
        </mxCell>
        <mxCell id="X9pTo2VU-LmLKZ8eIbQH-26" value="" style="shape=image;verticalLabelPosition=bottom;labelBackgroundColor=default;verticalAlign=top;aspect=fixed;imageAspect=0;image=data:image/png,iVBORw0KGgoAAAANSUhEUgAAAc4AAABaCAYAAAAxZrZRAAAXgElEQVR4nO3db2wTZ54H8O8e1Sm60AlJKWa1dfO3CDXFrhUhjkp2WTfRChSatHKXPRNeRCJEQm1fOBII5QABixDVJS/aKlJJJV40yS1ttHXaKKhK6gVbaq9CUc6hWaFu/tZ7XQxpQoZ6lT2F3r2YGXtm/HdMbAJ8P68Sj+eZZ8b2/Ob5Pc/M84tnn332/0BEREQZ+acHXQEiIqKHCQMnERGRAQycREREBjBwEhERGcDASUREZAADJxERkQEMnERERAYwcBIRERmQPnC+EsH1L77H3Bfz+M9X8lAjIiKiNeyJ1Ivv4T9bfwT+61coPbkuPzUiIiJaw9K0OFewqehf8K2fQZOIiAhgHycREZEhDJxEREQGpA6cr6xgE/4ZoS/zVBsiIqI1LsngoH/gyy/CqFp6Cr//jYDu/NaJiIhozfpFyvk4X4ng+pF7uPwbAUfyWCkiIqK1KnWq9ssncAv/CzPv3yQiIgLAwUFERESGMHASEREZkCZwPoFbS3/Hpqr8VIaIiGitSxM41+HfPngKm17ns2qJiIiAdKNqiYiISIN9nERERAYkDJwVFRX5rgcREdFDgS1OIiIiAxg4iYiIDGDgJCIiMiDJQ97v1y6c+sMRbJ//I/a8Cbw39Do2f/MO3jh1JTebS8B2YRZ7q0RcO2fB5eHY65vPjuPQTkH6Z/ISTh86mrd6O5z18NiWMNARAFxuNBQH0dk9Af+qlJ6KGZ1tdkg91yJGewZxJpzpugKOt9Rj69Qg9vvELLcvlVEjH/bp4T54xrMsyjB538X4Y93scqOhVPo7MnY/+7fapDqbxgaxf8KM3iYrwnk9ZkSUymPX4rzZbsFpZxkufL1WTpL5EIKnow+NHQFM533bZnS21aP4mz40ynVAXT2Om/JekTgX+6U6Dcw96JoQ0cMkRy3OKwjNH8HztycBAAsigB/y19oEgLFDZRgzvFZu6+2fX4JHXMBUtHAxD63NB8vhtEotp2hrKQTvmBWt1QIQzsfFi3TR8HBZwqIIYF4EwiLCELGYcYaAiHItR4ET+PDNPfhQ/vvk7/TBpwW7P23H9iL5X1XKdPPZcfwW32Jx50soxyQ+7wf2uqq0adXDIzjhij0HcKa/DB91yf/U9eHtYy9hg1QwPnfWGgqgqestOfj+EF6vmMIf97wVfW9GxgNoVAKIbzA+aFrs8NaZo/9q04fadCdUqUeHsx6tmEHYZkUFQhgYBhrqzMBcAI39obTVcjjr4SkJxt5rqkZvUwlGOgK4GPduJe0bwoCyXFNvdSrYjEbbEkY6tAHSPzGD1lfNcPgm4NekkaEp42p1BvulO2bqNLCUGpcPWIbHwhhd3TXp4GTLBBxvcQBTS6ixSfsyADsaStV1F3GmWwn2IXg6VrveRHQ/0gbO4uJirKys4O7du1ktT8R2oR3bb1/C6deOQgmib5+dxLvt0pTZG3a+gL+cO4v5w+3YW/cVLpy7hd8eq4ENwBjO48CLozjtrJUKOzyCE64R2LrkADnsxrvDkAPopozrtFoKCwtRUFCAez/fw53FOwbWNKOzrgijPX0J+x8dTivwWR8aw4ASRFudIfjlwFpoK8dizyBGX61Hw44gOnsW0NpUhmaEEgS/bMX63hqVgG6qRq+63hY7vE12NHcEcNFShoq5WXig7k8UMdoTRBhSQGt22VGhBDVTtdyfJwVeR3W6/TKjc8uslP6FvO06O5rHpYDu9w3C71MuDFbtICQ/FlECjreol0mfl8clwt+/BEBATeWMvC921I4NonPBAc8WMzDOIEm01qXs4ywoKIBQJKC4pDir5YmdxwtVk/g8OiinG5eHJ7Hh+V9js/KWycvRAT0zw27c1Kx/FB+pB/R0jWIGm7C5zkAV7tOHb+7BniStzXv37mH9k+shCEKCpekI2FqdeD2/L6AKqCKuTokoLCmKvWEuGF0+/U0uBhypBqyoAoWjuhwY88fqNh7EqGjGNgvg2FiEyMISYLFLA6E6ApjGEv4ajpW5rRSY/k4OFuEQboiAaaPqGKTcrxA86lbk+CymUYRn8tB/6nBaUSEG8UGiAUUWK2qEEEaiy0Sc+SyISGkZmuVXYvuifh8RPQxStjiXl5chLolYWVnJanlCdWYUowp7fbPYq3596VbGRUgjZtWviJjPvAY599Pdn7JYKwRPTxC9TfXw2qT/B9SpUrk1VqheJY+DWgptVlRAxOiE9iRfWSKgsFSpc4wyCCk8L6J5ixnT3wTgN1WjVVyAF8A2AEpfXo3S0jKZsVUQcWMi80CiHhkrETFqeO+MqywRgMUUfdRKXzYRPXLSpmoXFxfva3liyfseNyd4TbP87Dj2VqnXP48Dvt1Z1CE3lpeXsby8nN3K4Qns75gAIKcX2+xAR0BKSTZZAVVaMDfpx+QiY4P4AA54lDSsblmiWzmaXQIwL+AZJSFhKkHh4iz8JgGtiyL8EFG5CNSU2uFti5WV6a0yDmc9GkrVFxhmdLZZs99JA6YWRCDV8RdKUAnEAqupRHvRQ0QPrfzfjjL8J/xlqQp7L5zPvoylW/ib/Kftwj6Ur0rFMnfw/SEMDb2Hgznchn9+Ke618HysX7HVlk0qOIViAQ4AkIN0opO83zeIgTkzGlqq5fcCF78LodDmSHh7ydSCNpg2b5EG8Tiqy4GFJcBUjdrSEAY6lFtV+ozfS6lq2TW79IOM7l+zyw1vmxudFu3r/okZRErtca8DkFPGZtQ6lc9IwPEdZkTGgqvX3+w8hU+GhjD0h1PYtVplElFGcjaqNrluXH4NwKftOOHbF331ztdno4ODUrnZfhkzvn045JuV1/sKM1UvRJdrHnAAyClhpYWqG82LfVId4h6E8ADoRocqI0ulE20I3jERnjo3vHXS/6NjImoybXHqy25yw6sa/er3+fFyZT08bVZ4IGJ0OIhIXeLCL/YP4pmWenjayvFyzyDOjAfQCDu8TW54o++SWoFTAEwbAe+UVHfTWBDTNjs8pSEMdIgAJjAy50ZDmxsNqm1k+jACvy+IRptdrjcQGQtiulS5jNKNQobcqo2OrtWNepXTzRk/CCE8gf09QG+T8plANXI2BE9HAJ1tqhT2XCA6UGhV+P6EPx/aju1CCaoA5PdmL6LHW8L5OCsqKjA9nf9b5ekRY7HDu2Mh+dOREt32YqpGb1M5bhh6utHj6eD7Q3h94zW887uTDJxEefTYPTmI8mg8iFFY0eqMtbKaXfboyNJE/X6O6nIUakbeUpyW9zA0xKBJ9KCwxUk5pkuJ6h5EED8qVjeamIhojWHgJCIiMoCpWiIiIgMYOImIiAxg4CQiIjKAgZOIiMgABk4iIiIDchQ4d+HUH4Yw9P5BAAfx3tAQPjn5uD8Y7DwO+GZx4HBuSt918pPoYwAPvr/Kj2Kz2OFtq8dxk/R8WG+b6l7MnDKjU95u0nqpHv+XC9L+xj9yLyOmavS2ueF1mdO/9xFyX8eMDDCjk8fZMPU5rNnlzuoc8gAeuffg2S7Mwn47s0f8xTk8ghN1t3DhNf10Z5SNXN/HqZnMWjPJ9gMsO8FMN+pH/WnLVYqXH+dnscNbB+0xSvRaRnXWlR19Qb73Vv+6/OjGuLqqJ0G/720nEfdISiDz74r+8YvI4H5ig9+VFJO5x0/Urp1wHdAdG82k57p6w8BjIVORv4PQlKVMHXgFNyp3YetU/HaaXW7ULiiv6+qXYoL5+H3WHpdV2ac8ylHgvILQ/BE8f3sSALAgAviBzzfJpSs/3MQRcQGTAHA7AiC0ek+UCS8gAuCvYcBvWoJnFafMutjfFxcAVot0MgxhoEN55q+A465qOPozn69UmQxbz+Gsh6dyBp0dUlkOZ338zDGq2W40NK9LJ5+tCbYZ3UYmgcXg/iQtW/4MRsdEoDJBAaIIVJrh8CWvU7Jjdl/7NR5A4zgMXSToxU7c0km716k9WeuDWaakoAfVJPTq71kIno6+6DaRYBvNLrc8X63+eIg4092H6HckQSDLWngC+4dL4K1z4PiEFOSjk8r7foADImriPmcztpWKuBEQo/tTMRdAY3csWHZaQtL+KZ+XvF5nm121cf1E71JmqXM+u+NvlH9edQ5bEAGkmB4wiZy1OD98c090oueTv9OewpUW38d4K/pA9pn+MnzUpbzjPA74YrOexD0A/vAITrhiE3Lql2sf9B6bgkzzelU7Tvja5bdk8JD3uj68fewlbJBWjj5kXjtFmrbeWPoqectUKU/9Hs1+ibh2ziJP6N2C3Z++BXRdxsZjSvm6qdm638Ie5RCceiNh0Nx18hMc2QFc+483cDLBiS2p8AT2d8h/a34QsjRX20hwpZnoBJKUuoWWoIVSqbpaj165mqpRWypitEd9ghVxpl8byPStIP3JtSJun6RljTZgtCdWD+VB+dssAMa1LZj8Xk0nauFk2noyo3PHAjo7JgBnPWoSvmcGNxataLRMwB/3+aU6ZlnUPdPWKKTPsRV+jJTUR4978kAozQNrbL7zZHUzo9EmYHq4TzPRvP57lpSpGrXFme9nurJ6m6woVGcntsyic8Ea//sAgPEABra40WA3A9+VyReZUhD0T8yg1VaOl00T8Cv7ZSlDhTiDznBsIvdOzUTyAXgyqac80ftA9DchT2KhzMuba+pzmG8wq+OeNnAWFxdjZWUFd+/ezWp5Mht2tuPQ5CWcdh6VAlpdHzZ3uXETLdj96T4Uf30Wp9u7IQWjdhw43C0H1vM44NqEa+fK5KCic3gEh3bewudOSyxYftqHv73mxs12C04js1TtU089hZ9//jk23+iwG+8OI0WqVl9vaSaWQxfOxwdlOWgu9pfh3S7Va+r9OjyCE8dGcHNYCY4Cth/bjWvnyvDRsFS2/WwLxrJJNydQUFCAwkIpefjjjz9mvqKpGr11RbGrbYsd3mjLK4Trc0CD+gdhKUMFQhjI+MpSQE1dCQY6+qR5Sdvs2pO2YEVDSQCNHSH5xCFdQV+tLkehOIOrKU7cUtBcUrVI1dQtBd0cnyYBJizhuqZsEX9djE3KrbSkm11u1Ga6q6tCqbdECSiZBbAQPPLXKVWfz9VAEK32RCe5FMcsA80udSvEuEJbPWrHBtHYL0qf7Y5qOMYTBCSTGVsF1TR9aSkpzAR1M/x91nJUl6NwcQYvt7jhka/fsrrQkoNmWH+xUGqHB/G/D+X7cDEQRG2THd5SabuxbEkIN0QrtlYLQFiqS/MWMyJTQSmFXCkgMhXKPtjrslb++SV4KqWpDVcru5JLKQcHFRQUQCgSUFxSnNXylJa+wgU5oNy88i3uFG3CLwGg7td4Dl/h42hAOIrhr0WUv6iev1PAc7taEhZre7EKM/2xltjN9suYKXoBNgMpwIKCAqx/cj2eFJ7MfKXD+7C9aBKBaL27cbnrK9ypqoFN/b5fxYJmrIUNbN71AvD1e7GLga5LuLZUhRdUg4lm+pUWaDfG/ixiw9NVMOLKqTewZ0/y1ub6J9ejcL2x6ZYd1eXAmOrEPB7EqGiWWl6QfpiR0rLoYKLmLUbnpVS3GqVAbNqo6vRRX/WGQ7ghCtKPXU0ZpNOmHgigtBSy6E81laAwQbpaP//oA2eqRmvlDD5Y7dZuOIQbxdbkg7buQ2GlOfvBXnOBaMDxT8wgIk8mrqiok78DTeW40RPfGo0ub3OjVzUxgdK6WvXjCKCyRABKy4HP5Dlpe4KArd7YgJ+NSYImkPD3Uaz+3MITGJkDgBBGNPsn4uqUqPo85DTtxCocg/FZTAtWNEb30YzOuP7rtS1li3N5eRnikoiVlZWslqdy589/irXYlNYcADy3CRuK1KlQ2aTyx1F8dM6Mt48pqVZ1yrIFm58Gyl2zOOFSryxi3mD9frr7E+79fM/YSqoJtpMp3/kSgEkEurSv//JpARvU6WPZjLEaZG3dunVZ7XNliYDCUtW8k7Lok47lK1cphWnGttIQRvpzFWCkVt9W/ctKn6LFDu8O+TWTABNE3MhmoFB4IXpS1qSMSwREFuInIH8wBBx/tRw3PssuFZWaiDPfLKG3WsDVVSw1NterNL9qtn2OyUjlyf2FqpaUtG1VX7vc59YLqeVXWSIAi8b7wTIVUV94hicwMmdF7UYBQGa/kwqbFUAI1zM8ViZ12Ra7nNo2o8FlxkVV6lWTrjXF0rT3LwTPcAhe1fzCA8MhVGzJ3TFebWlTtdFUZZbLs5KqbxDQBNrNZ8dxyDcCqPr7ZnStOaOWl5exvLxsfEW51Ryt93Ob5D7RmJn+Mnz74iz2Kulj1bJMJ/POhUgkgkgkkt26KVNL0pWrZ4sZQBkq5mYz6wfJioBnioHwdyL8WIJH30ejFhaR9TkgLCKMcjxjAmKFxLadU+EFRJBgknFdC9jhdGDrlB/7czU92/gswm1WvDyW/q2ZUwbDQE4rutGJ1R4wIuLMNyF466xo9iXLNsiZDfm/qQURiQ45APnzsEb7to2aWhDRUFKETINkItPDfbi+xY2GlmpMZdBXGktRSy29yNgg9s9b4a2zo9OiOt6qdG1ziZKmBaLdEmkGiaWkGyvhcNavoYvO9NbeAxC6RjFT9BJ+ezZxKlbv5v/cUv0npTDLXSOwJV0D+NttERue/zU2Z1O/v9zCnUSp365RzKAK9mi9W7C7rgp3vr4E/bll7NBZXMNLOHQhln4e++9JbNj5Fnav4qhSPelez09wyrl6ZV78LoRCmyNl2s7vC2K61IreHUUYDaj7xeTRh/J/zVvMwNxs9reiyIMOro9DThkLqHk12T1aIVyfS7U8lfh1HU4HahCEN5OTp8UeS8WZzNgqGEiBhUWEEUuFAwKO7zBr+5ssdnhykaLVCME7VoStiUberob7ubBJR+5OqHUKiZdb7GhQpSX9EzOIlNoTp0/lVGdFnfreZu33OhWpbFXaWx7UZjQlerF/EKOwwpPinmGH0xH7fUBOQSsp2vEABuaAih3qeivpWkdcnS4GgogI2rl21d9rh9Me2ye5HzhZi1gZZR33fbXYpdR5kn1qdrmT3y+sdM/k6D7vNXgf51F85AQO+LRpy2grUjeiVhl9GuvTtODC2XEc8s1ir/IWXQv2Zvt7uPZpeywdnMmoWsWwGx/vGsehY7PYfgyIpYoT1HvykjxQSK8bl1+rwkbfPpzw1Ujrd9XiNEZwIlquuuw1bDyARtjhbXLDG31Rf39dCNfn7KgoDuoG64g4EwB629xSK1QMorPb4Kg6wRpN7Wm3K7Veml1u1XIA4kJ01Yv9fYBueTQ9qL8PrckNr2qkaNy6mhGguhGYcio72jIfD+C6yx299UY7IlM/0lfev2j5IXh6guhtiq2PuYBq0IrSX2TW7Jey7dRl6+8b1C/XklJ5VkBJOqU5Zqm3HT8aODI2iP3jictuaHOjIet7fpVWpzJQRr/tkHbAWHgC+3ugPeaqY6J8F6Q6SeWP9gwm/i7I6cno90y5LST6+1GPRtZ9Hjbd90i/T90BdLbZ4W1THZdkvw+LHR6bgOnh2H5e7A9gW5sdHpcIf796dK00Ulfz240eE1U3zVwAjf3Sn35fEC+3uOEVYvsU+5wS3P9p9Hf/gHE+TsoL7Y3TRJRzFju8OxZW9T5gkqy9VC09eix2NJTqR+0RET2c1mCqlh4Z0fSaPlVDRPTwYqqWiIjIAKZqiYiIDEjY4iQiIqLE2OIkIiIygIGTiIjIAAZOIiIiA5IGzpZT85j74nvMfRxBZg+/IyIievSlHRz0Ttf32H37V9h2cl2+6kRERLRmpU3VHglugPC08WnDiIiIHkXs4yQiIjKAgZOIiMiA9IFzch3Eyn/gnTxUhoiIaK1LHzi/LMS2d9Zh9xffY67rH3moEhER0dqVfnaUVhFzr6zD73/zLBJNyUxERPQ4yayPc/4JBk0iIiJwcBAREZEhDJxEREQGpA2c71jvQLydviuUiIjocZA0Iracmse//+vfAWzApcN83B4RERHAiayJiIgMYR8nERGRAQycREREBjBwEhERGcDASUREZAADJxERkQEMnERERAYwcBIRERnAwElERGQAAycREZEBDJxEREQG/D+uVVuHszTrmQAAAABJRU5ErkJggg==;" vertex="1" parent="1">
          <mxGeometry x="-670" y="-830" width="205.33" height="40" as="geometry" />
        </mxCell>
        <mxCell id="X9pTo2VU-LmLKZ8eIbQH-29" style="edgeStyle=orthogonalEdgeStyle;rounded=0;orthogonalLoop=1;jettySize=auto;html=1;exitX=0;exitY=0.5;exitDx=0;exitDy=0;entryX=1;entryY=0.5;entryDx=0;entryDy=0;" edge="1" parent="1" source="78961159f06e98e8-25" target="X9pTo2VU-LmLKZ8eIbQH-26">
          <mxGeometry relative="1" as="geometry" />
        </mxCell>
        <mxCell id="X9pTo2VU-LmLKZ8eIbQH-31" style="rounded=0;orthogonalLoop=1;jettySize=auto;html=1;entryX=0;entryY=0.5;entryDx=0;entryDy=0;elbow=vertical;strokeColor=#FF0000;shape=link;" edge="1" parent="1" source="X9pTo2VU-LmLKZ8eIbQH-30" target="X9pTo2VU-LmLKZ8eIbQH-21">
          <mxGeometry relative="1" as="geometry" />
        </mxCell>
        <mxCell id="X9pTo2VU-LmLKZ8eIbQH-30" value="" style="shape=image;verticalLabelPosition=bottom;labelBackgroundColor=default;verticalAlign=top;aspect=fixed;imageAspect=0;image=data:image/png,iVBORw0KGgoAAAANSUhEUgAAATgAAABaCAYAAAAsNEqPAAAPGElEQVR4nO3df0yUd57A8feezcUsOjj4A/faKTjQellUSgzxugmUHSUGg0IbLp6UNoEUjG5tXLjFGE4bdUmjF7FZe5pFo8lWcW3NikowBJx1IWevMYQdlcu65Wdn7w4UB3mUDb1o7/54npl5ZpgZBpwBefy8EhOZ7zzP9/M8MJ/5/nie7/ODV1999f8QQggD+puZDkAIIaJFEpwQwrAkwQkhDEsSnBDCsCTBCSEMSxKcEMKwJMEJIQwrvAS3dpTbTd/S3zTEubVRjkgIISLkpYnf8pRzWx/Af7xMwsdzoh+REEJESBgtuCcsif0hd1oluQkhZhcZgxNCGJYkOCGEYU2c4NY+YQl/i/PaNEQjhBARFGKS4TuuNQ2SPLKQX643cWL6YhJCiIj4wYTLJa0d5XblU66uN1E5TUEJIUQkTNxFvfYS9/hfLHL9mxBilpFJBiGEYUmCE0IYVhgJ7iXujfyVJcnRD0YIISIpjAQ3hy2/XsiSd+ReVCHE7DLxLKoQQsxSMgYnhDCsoAnOarVOZxxCCBFx0oITQhiWJDghhGFJghNCGFYUE1wW+37bSONnHwAfcLSxkS8/zopeddNGdyy2fXzZ2MjR0pmOSQgRyHPcgisl52If722f4ubbW9h7sY6lEY1p+uQcOcTx+kP8okT/ajIlv1FfP15/iONHAlyUmLWFg8HKhHjBRDHBXcc5BKP3u4AuXAoM/Pf16FU3bXTHYncywCiu7ghXUfIzNi3sp0fxfTnnSBnpD5rYll/Jtvwmepat52CV9xaT5VV7OF4Cd3sjHI8Qs1TQC32tVis9PT1RrLqUnItVpMe6f+7iim0dHUBabR8bA9wa9vCran5Vpa1Mt72FvQXeN/VeSOTzY0B2HR/t/gkLxm3t3r9a76Jm7f3A0upblC2+yv6yXQH37VNvWD7gaOM7JPX8jg0fnpzEdgBr+UX9erhcy4OsMhZer+RfT6G2zHYmc/fTA5zSvieWV+1h5/IuPn3/HHeztnAw7x67fn6NnCOH2EQT234uq5SKF1sYT9UCs9nMkydPePTo0ZTKA1lavYP0++fZ//aucWUdZYkBE5HXQd57o539tnXqj9tb2FvQQtqxdXQ0F/KrZu217HvUvl3IQNhRafsuWMLNTxK52jypDcM2d+5cYmJiAHjw4IFPWc6R9Vh7m9h2Ckr0Q5bWOExKF//ubgSX/Iyd6fOBOKzA3evn2GWEBrIQETRhF3Xu3LmYYk2Y48xTKg8peTVpk98K2MXnZbrEeKydXpawNHtKOwvAxGtZzzJzcJIdGzaEbL3Nmz+PmHkxvi9mbSFrWT+XQ7W83GNsm+ByfhM9xPEjI8zdCBEFE7bgxsbGUEYUnjx5MqXyYAaqVnGlto+N9j42Mvlu4PhurMLQpCIIZheff2Lho91V7LVXoe86R8qcOXN4/OgxT79/qns1mZKSNIYuV3I12IamNHbu7OdyvvaerC1k4eKOtNyECCisLurw8PAzlQejdkUBDvKevYqPqgkryS2tvsXGZH3iOch79pwpxRCQu5ur1VVmb4EIJrnR0VFGR0d9X8xKZ7kJTJvU1pnHpkMcz+rg01MuFOK4++m/eROgNQ6T4iKaI6VCzGbPyWUiXQyN+L92goH7sOyNg4E3GbnH/2j/TavdzDL/8m/u8TB2BWlBuq3ml7Uu6PYWyt40BY1s4L/uhQ49IPVaOfUawDBdP8eu/EpthrSSbfm13FSg53Il294/x93rN7mrzCe9ZAvLAUimJCsB5e5N7k4mss8aaZRr98QLIqwWXOT5z6ACXefZ79d66yg7zwr7ZvbaNwPebuxA1VV67Zsps/dpr9+gN3mFbxXNhXyRdYuy3X2k7wZvV/MEV4/9lNfcXdCRG1z5agkbF2vb+c2ggsLNT1ZFtIs6NV2cer8WflPGznp15FK5Wcuu6i6tXJ199S6RsJ7j9euh13c29aSjm3esSSz9uyxA+rbC2GbwMhExI2z7+PKf0xm4uIEd8ixIYXAz1IIT0y+Lfb+tJN0E3ZLcxAtCWnBCCMN6TiYZhBAi8iTBCSEMSxKcEMKwJMEJIQxLEpwQwrAkwQkhDEuWLB8nunFn2nKpr8igGCguKKS+NIXMiO39GcSncLaikPqKQk9841moqQgj5vgUzgbdx0wIHndxgfuYCzlrC37LnoiSVRk+v5dIfz7kQt/nyaoM6rMtfi86uXS4jdPRrnuwk3cPd6rJqSgu2rU9N05fqOM06odp3UwHIyIuignuOs6hSn58X71X0qUAs2LJ8ujG3To0Qrniotuzc4VWd+GtNvJvoSU6piexTYqT8sN1Mx3EFMzWuF88IT8fUxDVFtzJDzfgXvLx43/yTxJ+N9x3nfcuGa5bzffOG+5139Sb3q82oy1LvoQ2Wzsr7NpKIiM3fFbv9V0vTretVpZxv5ov2OFZScSz5PmEcas++KyRd6zd/G7DDia1KLk7iQHYGybxyzOxpzQTLjswF2VoN9V7W3eZtlzKk3qpOdHp2ee41/xaiD3NdZTf8q8nsExbLuVpWheuv438C07fN4xrffqVT3hsuax29xB1+8+05bKVXgbTUrHi5FIz5GVbfGMIcVwTxv2MigsKyUtw/6TQfqaBA4PesnWuBn5NpieGcM+5etyttMTlevbvu63fOVMcPr97tVue4V18wa/c57zo9u2O+V27/oEgal3mr7X641M4W5SKZ7lW/XnVegAth/tY6a5/grpRXN7/T/nzEVhYY3Bms5n58+dPuTyQtNoqdclyWyL7bdXcXLyZj6p91/BZVqAmov22RK50mUj/R/3SSclstOcw9Eki+23n6Y39CdnaE7iWVt9i4+Ib1NoS2W9LpPYrSN/d4rN68II3q9TnMNgSqf1KYVl25J7AFRMTw8KFC1lgHv9kiGdjYnVRKsNn6sg/3EC7YmGdNm7U2tnLqGkZb8V7350UZ2K026n9kVioeb2P/MN16r9mJ9bs8MfJWu0N5B+uo6ZDGV8Yn8LZ7Fjaz2j7PuPAb7U75s6dG/ScFBfksnq4TYutgXZzhs94WEzaMobPqMebt8ZFzRkHowmJWuyhjytk3GEIFXemLZc8s4Mare6aDlhd5HtOY9JyKY9zeGKwrvEdUwq1/5i0XNa5GgIeV6YtFS7Xec8ZqWzVnbPiggziOxq850Wf/OJT2Jo2wiV32WFv4ux2KcTE6Zf58WehpiiVwWb3tm30JGT4jV9ayKtw/5220WNKJX+VVrQqg3J93c2R/cLxN0NLlh9kRXIXVzwtthNcbe5iwY9/6ptkus57FsDs+GMXLLb4lPdecLfKdnGny73G20Gy3zTR2+xtzQ1UHeXmSDIr9I8gHLlBrVb/wPU7PIxdwo8mcQQnP9zAhiCtt6dPnzJv/jxMpsgPWvc0u1sICn/o1v0xDnbS0m/i71PcdVpYmeCkxfNN7KRc33q51UcPsbyiS4hTVZyRCh2tnpZLMIHPiRrnJU9sCge+dhKTZPEmgn6HZ989X3f6fatH77gmijs/zeQTT6u9lXbFwspVurcpDmq0+NQvoTiSwto/0N/mbUn5HVervU13vv3+FjQ+53Acvzjdx6BbmLG4wD3xEovZpDA8qCZWq+Kg3tOSdFLe7BxXl/fv1MntfohfZAJM7Fljoad5+oZeZmbJ8mwLZpI9y5V7jPguLtn7R/1zF9ax3+fhM13c0f2sXx0YFIa+CR3Cw//8vfdhNLoVfCPl8aPHkd1hGE7/2UneGguZ9k5aVyVi7e+jXFfu250CUGifptjGxsZ4/Ogx33//vW9BvIl4LFgrCsnzCc1FuKJ5XEHj1uoZniCpe1vQaBM5k9m/PxPmeGCQ8d1EgH7vf09faOCV0lzKK1Ipx697O9jJu81x1GcXUp+Nbxdy0MXoGhOZWFiJk0FP0hzhL4NACjA80biYk9u6brh7Igemf5Z6Bpcsj/yzDrxMLHoN8CStZBaFanVH2NjYGGNjY9NXodutPnqyU3krvpOk1y30/LnNU5RpyyUvQT8ja6GmInVaw/N/gphX8JniiS4RmI7jCh63LuEAaksnkvv3506oajeRjgbytRZepi2X8jjf9x44oU2sxKdwtqiQGnRJTjfWVVxQSHkpcKKT1kGFQVMiSaviiHc5aIlLpTjeRbziot69a7OJTPCOqS2KBcL/QppOM3Ohb/Pv+WYkmY21QZYjfyZqd1U/pra0OodlIzdoHvf4walTl/4+yiQWJZ8GTm73mzDHW1hp1ncjNO7ZKdQxGqv/5lPU7VJ0XRT1wxczwTYeg07+pFjIK/C/PGYSonRcoaldL/2Y2vjuW+QUF2RgVXr5g67FODikdV/jU9iaFiKzDiqEamh2u8aPT76yCP7UqdDtimVlRhwxWqtN7WbrxtQCdNWDU/jLMFhft3jiPjvusqjImqHr4E5w9W3gYpVnOXKYygOWA+soS4TaPs+S5mprcbLPR50BfrOBeRWF5E3yOrjTbQ7OFmVAh+8MVKvdQX5ahqfLMtrhoCfB+yQL/5kt37r9ZuzIoL4Cz+xZq72Vt5Lc3SGF9jNt9BQlhhmxwoETDewpzVX3qRnt8J/JCyz0cYWOe9xMY0Iu9Wnh1336Qh0UFHrqVlui4XzQw5SQ4T0nPjORTuo7FMrdXUyctHcorPa04PyOC+2YAs0sj4t7hGHFwuokBzV2aKWXrUWpjHY41LcOdvLuGThb5K7bd98TOX2hjZUV7uNycumMg3WbJtpq6mTBSyGeQ2qX0xHxy1peNHIvqhDCsCTBCSEMS+5FFeI51BqBq/iFtOCEEAYWdJJBCCFmO2nBCSEMSxKcEMKwJMEJIQwrZIIr3TdEf9O39H8xSmmoNwohxHMorEmGQ8e+Jef+y6z8eM50xCSEEBERVhe10rEA0+JJLIckhBDPARmDE0IYliQ4IYRhhZfguuagJH3HoSgHI4QQkRRegrsWw8pDc8hp+pb+Y99FOSQhhIiM8G6236rQv3YOv1z/Ks++HKUQQkyP8Mfghl6S5CaEmFVkkkEIYViS4IQQhhVWgjuU+hDlvqyNKYSYXUJmrdJ9Q/zLP/wVWMD57XKblhBidpEFL4UQhiVjcEIIw5IEJ4QwLElwQgjDkgQnhDAsSXBCCMOSBCeEMCxJcEIIw5IEJ4QwLElwQgjDkgQnhDAsSXBCCMP6f1y5PlbVNnRwAAAAAElFTkSuQmCC;" vertex="1" parent="1">
          <mxGeometry x="-850" y="-1051.63" width="150" height="43.27" as="geometry" />
        </mxCell>
        <mxCell id="X9pTo2VU-LmLKZ8eIbQH-33" style="edgeStyle=orthogonalEdgeStyle;rounded=0;orthogonalLoop=1;jettySize=auto;html=1;entryX=0;entryY=0.5;entryDx=0;entryDy=0;shape=link;strokeColor=#FF3333;" edge="1" parent="1" source="X9pTo2VU-LmLKZ8eIbQH-32" target="X9pTo2VU-LmLKZ8eIbQH-26">
          <mxGeometry relative="1" as="geometry" />
        </mxCell>
        <mxCell id="X9pTo2VU-LmLKZ8eIbQH-32" value="" style="shape=image;verticalLabelPosition=bottom;labelBackgroundColor=default;verticalAlign=top;aspect=fixed;imageAspect=0;image=data:image/png,iVBORw0KGgoAAAANSUhEUgAAAakAAABgCAYAAACnvI2TAAARJ0lEQVR4nO3df0zUd57H8eeezcUs7VioFXvdUUGqzaJQYkivdxmWRYnRoNKGSyO1TSAVo902Hlw1DWcb7ZoGN1Kz7doUG01axbU1W7RGY7CsBzl7G0NYUC+1BZRO71YUQb7Kxl60e398vzPznYFhfjCD3zavx18w3+98v+/vd77feX8/7+/nO5+fzJo162+IiIg40N/d6wBERETCUZISERHHUpISERHHUpISERHHUpISERHHUpISERHHUpISERHHUpISERHHUpISERHHUpISERHHUpISERHHUpISERHHUpISERHHUpISERHHUpISERHHij1JLR7h3Mlv6Ds5wMHFSYhIRETEcl9ss9/l4Lrr8F+PMvuNKcmJSERExBJjS+oOM6b9lPOtSlAiIpJ8uiclIiKOpSQlIiKOFVuSWnyHGfw93s+TFI2IiIhNlB0nvuPzk/1kDT/Er5e62JPcmERERAD4yaxZs/4W9dyLRzi36S4nlrrYlMSgREREINZy3+f3cZX/w63no0REZBKo44SIiDiWkpSIiDhWjEnqPq4O/5UZWckJRkRExC7GJDWF1e8/xIxn9Nt9IiKSfLH17hMREZlEuiclIiKOFVWSyszMTHYcIiIio6glJSIijqUkJSIijqUkJSIijjVJSaqQrb8/zvF3XwRe5J3jx/nkjcLJWXVS2balaCufHD/OO2vvdUwiIj8eMQ4ff6+sZdmntUxvnsNHu+N4+4ZTvF58lYany7mS8NiSb9nbO1iZAb1HN/Gbvb5Xs6j8sIp8l/XvpZOs/1f7GCqLebVpKb4uL8bZBjZv7560mEVEEmGSWlKn8Q7AyLVuoJtBA6787+nJWXVS2balxcsVRhjsSfAqKl9i5UN99BrBLy97u4r86ydZX7qJ9aUn6c1YSl2t76dAsqj8cCnTzzaY03d1QH4Vr1YmODYRkSSL6mHezMxMent7kxiG2VLKn+b7v5vPipbQAeQ1XGbFGD/DdOOL7fy21hrZasMpXi8LzHTpsNXiKm7kldf+iQdHvdu3/NEttJnbu6h6+ATbqjaPueyg9UblRd45/gxze//A8l99EMP7wNca4mgD1wureOi01ZIqXE3dxiwu7nqTvVaun1+7hY3zu9n1wkEuVr7EeyvhaOnvOGEtadnbO1hJaGtLRMTZYi73paamcufOHW7evBnX9LHM3P4y+dcOse3pzaOmdVTNGTOZBNTx/BPtbCtaYv674RSvl50ib/cSOprL+W0zEyj31fF82QzOvjWHE80xvTFqU6dOJSUlBYDr168HTVv29lIyL51k/V6otN/Cy0zDZXTzn77GaOVLbMx/AEgzy3uPpMGlM/4ENb92CyszAGMG84GLydkUEZGEi6ncN3XqVFzTXKSmpcY1fVxZi8iL/V3AZj6qsiW33e1cYgYzi+Na2BhcPFY4kd4QH/Dy8uXjtqLuf+B+Uu5PCX6xcDWFGX0cHa/lU7iauqYdVqvpJL2k8Yg9mVW+xHtNO8wW1q4ODFcaeixbRH5IYmpJ3b59G2PY4M6dO3FND+dKbQ6fNVxmRctlVhB7SW10SdBgIKYIwtnMR2+5eeW1Wl5vqcVehkyUKVOmcOvmLe5+f9f2ahaVlXkMHN3kbw2N4spj48Y+jpZa8xSuppBBzp8G/hnIWMp7D3Wwq/R3Zsup8iVcxiDJLNqKiCRazOW+oaGhCU0PxyzrAdTxfEstr2wnqkQ1c3sXK7LsyaOO51uWxRXDmHwlQ2tdVS2nIIGJamRkhJGRkeAXC/OZ7wLXSrOV5LdyB+8VdrBr7yAGaVzcFbjnZJYAzSR08S+DwCBHXzjoL+3NfyQNrn+pUp+I/KA48GHebgaGQ1/bw5VrkPFE3dhvGb7KX6w/8xqeJSN0+tdXuTFtAXlhSoCpj1rlvA2nqHrKNfZMwJX/uTp+6GMyn6UynxGL0umDbC7dZPXc28T60gbOGmYX9PUvHOTi6bNcNB4gv3I18wHIorJwNsbFs2YS2vslvcxm5du+sVQWszL/AXrPBZcOX3z3OMf1bJeIOJgDnpMK7dkHdB9iW0grqqPqEAtanuX1lmeBQEnwSu0JLrU8S1XLZev1M1zKWhC8iuZyPi7souq1y+S/BoGy3R5O7P4lj/nKecNn+OyLGax42HpfSM8+MDj7Vk5Cy33x6WbvCw3wYRUbm8w7ecHPQX3Ob0rh1aalvNe0FAh9xsr0QWcPz2TOZeY/FAI/hkcCROTHxiFd0OWeKNrKJ/+Wz5VPl/NyLL3qRUQmiQNaUjL5Ctn6+03ku6BHCUpEHEwtKRERcSwHdpwQERExKUmJiIhjKUmJiIhjKUmJiIhjKUmJiIhjKUmJiIhjafj4cSU37oKiEppqPFQAFWXlNK3NpiCqd7rYsrac+pyEhZJw5rY5O8YfFzf1NbEcQ6aCohKaytzJCSnHE3M8jpKezYGa8tH7x/d6Tbn//E1uDOHXUVFWzoGi8D/lNnnM7yRzX5nHYqLi0sO8juRiy9oSFo3xGY90HOO5lsmPSH7IzOMp9U+NVHf9kJbtUP0XeG7nBTOBrEm719H86E1SkjqNd2ATP79m/rbcoAH8IIaPT27crQPDVBuD9PgXbtAKgMGbexrNmXI8NBXDkZ1t7PO/0wlXTuNrbTlGq5LpJPJSvbPxXgfx4+JLRhIFg2+H4PFB89fBhwxgwEjIkh3yixMhPzLbfSgwfLttVN7zT/jGjTJ/6PVEM9YQ8TNoK2pnQYv1C+jDZ4JG4Q0eb8r2Xmua59p2PuZl/y+g+4efj9KL7x7nmcwe/rD8ZWIdID6iMEnKvHptg2KPNZChN2QeN/U1Hv8gh2YLzDporCvAUzsvs9A3j9FJ/Z4LVpI0y0DVeb5kGLrs8djXa9C+/xhv9gfPEbxs6G2O9ircTX3NHM7tH2TJmlxSIsYd67JzGbLFW1FWzpJB237L8dBUHCj9BO3TUesO3me+Zb1PgX+eqGLL8dD05GDQNvrXldZJ6WFv8Hr72ig97PXPV1FWzqrZoxfri923nCN4/PNFu88iLdsX+5GeDFZZ8cWyzyIK+jzsx5p5nAx1TGNRnouRjja+nOthkcs+T0i1IuQ4sm9baMx+/vMohpjxxRc4N0M/s9DjLHi/jK6yBOILtGrPzfPFH3IOht1npvHPn9B1x/h5xckRw8fnNdTaho83k9Ir27uDxpPKKLtM6hfb2Va1x0w6/1LHiWZfIstiRYs5zPtHzXU83/IsxRvgo93WeFMPn6GhyExaM7d3UfXaKa40B8aEevCpWqq6D7GtaLM5vbiRmbtjHWp+bCkpKUydOpW739/lxtCNBCwxILM4l/b9jZT2mwfPkiIX+/wHq4f0jmOUthiYJ0UJ9QP2A87Nqppp1vvNk6Y05wKtXUCOh+q8YY7sPMY+rAN3bTY9tpM4/Hb5rujNL/1R0rNZZ1v2WKZOnUpKSkqYfeZm1Ro4srORfYwft3lClrClP3Aixv95uKkvNvdXaNKF0esec5/llVDd10bpTiuxPJlNQVdg+pjb3T/IiCuNuRCUpOx8rVYz4QRP23e4kX2RSnKzPSzpOEbpYSP6uKJdtiuXVWnmNpufRy4VLW3+zyfu4yw9mwP2zyPHQ9MaDxX+L003i9LaKG2eQ1Oxh9TmRo7MK2dJtgv6DQqKcuFoI6W2hLWuyEurlYzMbbMuLsLs9/GMd5xVlM3h3M5Gqq0462s81OdY+y90u0JKihVlJSwaaqN0j9f6f3R8mcXl5rl/2DCTrccNh72R91mEc7OgqCBo3ZPFAcPH17Egq5vP/C2nPZxo7ubBn/+SmfbZug/5k1bHn7vhYXfQ9EuHfa2jzZzv9o0RVUfxUy4uNQcSzpXadzg7nMWCDbY3D5+hwVr/ldPnuTFtBo/EsAUf/Go5y8O0ou7evcv9D9yPy5X4El1vs+/L1+A/egxS0qymaLqbx+nkff/Vn5emDoPMee4w7/dyrg/Sp5sxVsxz09scuEJqbemk15XBL9ITtV1uFkboUBF+2Qbt+32x2eN2seVJNyMdnYETrKuNI30uHs8OLGdicQcvyy6afYbRSb11xdx64ZI/+diNiq3fwJ8TbR0R5qa5GBkcNfBafPra/C2FqOOKlm2b6bpML9P4mbVPJnKcFWRnQEdr4IKhq5N2w35cGbS3ef0xNIUk0NaWNtvFRsj5kwDjHWf7DttbHyHnnic3eLvs0rNZMtvLkcMRkoTt89z3lRdSXRQQzT6DiOfm7DnJ7Sgyhns/fHyxm1Sy/EPH+w0HDzB46c+bA//sXsK2oHJcN+dt/9tH+QWDga/HD+HGf/8x0GqyjcSbKLdu3krsAiNJTyPF5aa6Jte6WrP02f/xcs524vquHMHFz1LNq7GmoEEiDdpDVhPXdvVf4LnmNJp8yw8ps4B5HN26eYvvv/8+9sVHUQeP7/PwUr2/kwNrSjCH8AouwUSzz0Z6vIHt7L/AczuD1zD2dg8zZJhf7BXzoHcokECi2dZEmMjnEd7EjrO5aS5SZvs+i4Cob0qkZ3PAVzL26Qs3c3zCHmejynkwMpi49fZ+ZUtiXW2UWud5RaR9FuHcbG05xty0clbVlLOKccqgCeaQ4ePtw78nmovpjwH+xJPF9MRdMEV0+/Ztbt++PXkr9Bnjyz8Wke5LTGi77CdOWTnVa4GQWK9fvx7Xos0rUt+JY34RYvsCmFDcthvpBUUlVNd4wFaTj/7+V3ijt9vg2yEXC9PdpKYO0vSnNEpzXAylGgyNdbWdJPF+HpFM5DiL/0vSTf2aXPCXw8culU5E2LjTszlQ7A7a7nhLivGIuM8inJuBi1nzFsIBkp+o7v3DvM1/5OvhLFY0hBkafkLM0l9GcaO/NDhz+zIyhs/QHEPHiEjMYdjfIYYB4pOr6zK9rlzWxfWcgln6yCxO8vMflp7BRB3gVskmLzcQd04ui1xeTkV9ErlItUpNBUUlY3YK8GkdsJfaJmGfTXdBj5fW/kHS5+WS6hrm26iTlNnzKrTcmxjxLnti+2zfV15S8grYkh553nD8LdH0bNblTWaPWdsFRo4n6DjrGTRImeu2ni0zk6m/tddv0G8rx0U6RkPFus/GPzeHzR58k8ABz0nt4cTTwKe1/qHhITA8/ER1VM2Bhsv+4eXNVltiOkU4l5fqnW3U1wQ37aO90m9tOQaUUG0164HoW2ahpYw15TTZehGF9h4yy2bxt/jGj9tcb3S9j7xUN3sDpY6+No70eQJXuKNKNMHLntA+i6Bn0GBVXgbt+y9Av5cvU3NZZHTSBIzuceWhqYZRPcb2HW5jYY01jcSWauJd9oT2WVcbpXhoWlNu7QeIvreZeY+22l9q9NLeYbDI35IK6X1nlciCekTajmGz/BXluvsvcKovl1W+uI1O2vvcPG5Nbm1p5RdzS6xSvXn/tXfNHH/cocdofUcu6yJuryXCPhv/3Bzj2c2+Nn9LNJkc0gVdRERktHtf7hMREQlDSUpERBxLSUpERBxLSUpERBwrqo4TIiIi94JaUiIi4lhKUiIi4lhKUiIi4lhRJ6m1WwfoO/kNfR+PsDaZEYmIiFhi7jixY/c3LLv2KAvfmJKsmERERIA4yn2bOh/E9XAMQ3GIiIjESfekRETEsZSkRETEsWJPUt1TMOZ+x44kBCMiImIXe5L6PIWFO6aw7OQ39O3+LgkhiYiImGIf9HCdQd/iKfx66SwmPiShiIhIePHdkxq4TwlKRESSTh0nRETEsZSkRETEsWJOUjtyb2Bci/1WloiISKyizjZrtw7w7//4V+BBDm3QTyKJiEjyadBDERFxLN2TEhERx1KSEhERx1KSEhERx1KSEhERx1KSEhERx1KSEhERx1KSEhERx1KSEhERx1KSEhERx/p/xo343wnRpo0AAAAASUVORK5CYII=;" vertex="1" parent="1">
          <mxGeometry x="-990" y="-830" width="177.08" height="40" as="geometry" />
        </mxCell>
        <mxCell id="X9pTo2VU-LmLKZ8eIbQH-34" value="" style="shape=image;verticalLabelPosition=bottom;labelBackgroundColor=default;verticalAlign=top;aspect=fixed;imageAspect=0;image=data:image/png,iVBORw0KGgoAAAANSUhEUgAAAcwAAABDCAYAAAARSjU/AAAQDElEQVR4nO3db2wTZ54H8O8e1Sna7E7+LMWsWjeJQxHaFLtRVHFUsmFNoooqu0lP7nbPwItITZDQdV84EgjlAAGLKqpLXrSrSEtWyosm2aWNhNmNQCipD2yp7ApFuTjNKurln+u9NoY0f4Zmla6gdy9mxp4Zj+2xcVIXvp9XydjzzPOMZ+Y3z+95xv7ec889938gIiKitP7p264AERHRdwEDJhERkQkMmERERCYwYBIREZnAgElERGRC5oB5YA0TNz5D5MYifn9gE2pERERUgJ5K//JD/P7ol8Cfn0HFmS2bUyMiIqIClKGH+QDbSr6PT4IMlkRE9GTjGCYREZEJDJhEREQmpA+YBx5gG/4Z0Y82qTZEREQFKsWkn6/x0Y0Ydqz+CL9+RUDP5taJiIio4Hwv7ZevH1jDxPGHuP6KgOObWCkiIqJCkz4l+9FTuIt/wMrnL4mI6AnHST9EREQmMGASERGZkCFgPoW7q3/Hth2bUxkiIqJClSFgbsG//fZH2Pav/C5ZIiJ6sqWfJUtEREQAOIZJRERkimHAtNlsm10PIiKigsYeJhERkQkMmERERCYwYBIREZmwQQFzP87+4Rqu/eZNAG/ivWvX8OGZ/Ruzqe+MizgSmMeRYxtT+v4zH+LatffwJoA3f3MN1/5wFnnb43Yn/O2NOGUBXO5G+NudaMlX2WlZ0SVvN2W9Wmvg2sAaSO31osuew8qWGvS3e+H3WPNer0L2SPuMsmBFF/dz1tTXsBaPN6trSIpfK3m81V6ah/PeBbzbkcPvsBwbwemGu7j0mhcL+a/aE6fF40VThXpJFFc7Q+jNU/kudyN8tYL8n4jRviGcj33LZVtq0H/YgWLVorWxIRwKiAblKsWPo6tnEkG7E/4GaPeR0TJTddaVHV9gRVe7Ezb9crsT/gZrcl3Lx9E8GM3YbHPbTkHetpbZY0XAqdZG1Kk3HQlp6px8HGZ5rGjqp15X3pe6t88OD8AXTvyv2TfxfWJQb2iPlZzJxyA0ZUl1tYzdxFT1fuyaSd5Oi8eL+iVlua5+6n1q8Hlp26zdL3lp0ybYoIB5E9HF4/jJvWkAwJII4PObG7MpAgDc/HwBx8UlTAPAvTUAUeRtj8eWsAbgbzEgaFmFT1zCTJ6K7h0cSLrw54t0EYziaueQvA0Bpzw1cA2auEDLgoEhBAPJy13uRviq59DVKZXlcjfCd9iJFvUFPDaJQ52TyStrlksXnV0G24xvw0xAybI9KcuWP4PRMRGoNihAFIFqK1yB1HVKtc8eqV3hEJrDyOrmQC9xwZYu1v1u7UVaH8TMkoIdMNo3IAdJ9XEWha9zIL5NGGyjxeNFU9l4/FhKEHG+ZwDxY8QggOUsNolDw+XwN7hwalIK7i0eJ2yREJoDn8MFEXVJn7MVuytETIXEeHtskRCaexJBssseldqnfF7yel3tTtXGBZxqdcIyNoTmgFJWI7oWc9v/2Qouqq5hSyIA0fRxuGE9zN/9+6v4nfz3mV9qL91KD+8DvIW2vdLtydxgJd7vVt5xEUcCb6BK/m/ltq43eGwEpz2J7+vTv779QjheLjCNP7nrMaZfvqMDpwMd8lsu41zbifQNahjAr06+jFJpZbQF5pPK19cbqx+n7okq5anfo2mXiDtv23F9GABacfDKW0D3dWw9qZSv3i6AnrfwqrILzr5uGCz3n/kQx/cAd/7zdZwxuKClFJvEoU75b82JIMtwdw2DO0ujC0dK6h6ZQY+kWnV3Hr9TtdSgvkLEaJ/6wiri/KA2gOl7PfqLqi2pTdJrzbXAaF+iHsFAEPuqG7HbDiCs7bFs7t2zUY/GbG/Jiq49S+jqnATcjagzfM8cppYdaLZPIpj0+aXbZznU3WzvE9LneBRBjJQ3xvd76gC4imURSJXpz65uVjTXCpgdHlC1Nfk4S8lSg/oy8+3MVFb/YQeK1dmInfPoWnIknx8AEA7h6k4vmpxW4NNK+eZSCn7ByTkcra3CPsskgkq77JWwiXPoigEut0PKQKgzC+EQfGbqaXegTojiavyciMI/JsK30wqEM2cqHpn6GhYYymq/ZwyYZWVlePDgAe7fv5/T66mU7u1A2/RlnHOfkAJZwwC2d3uxgFYcvPIGym5fwLmOHkhBqANHjvXIAfUijni24c7blXIw0Tk2gra9d/Entz0RJK8M4IvXvFjosOMcMqdki4qKUFxcjIffPMTK8oq0cNiLd4eRJiWrr3crDl7pQNuli8nBWA6Wy4OVeLdbtUzdrmMjOH1yBAvDSlAU8NLJg7jzdiXeH5bKdl5oxVguaWUDxcXFKCoq0rbZDEsN+htKEnfXdif88Z5WFBMRoEl9ItgrYUMUV03fSQqoayjH1c4B9MoXLc3FWnCgqTyE5s6ofMGQ7phv1VShWJzDrTQXbClYrqp6oGrqnoFD12YBFqxiQlO2iL8tA3VyW5Wec4vHi3qzTc0Lpd4SJZCYC1xR+OTDKd2Yzq3QOI46jS5uafaZCS0eda8je8W1jagfG0LzoCh9tntq4AobBCKLFbsEILZodjtKqtKgblkfz1qumioUL89hX6sXPvm+LacbLDlYxvQ3CRVO+JB8fijHQ29oHPWHnfBXSNtNZEeimBId2FUjADGpLi07rVibGZdSxdUC1maiuQd5XZYquLgKX7UAF5C3bMpGSDvpp6ioCEKJgLLyspxeT2v1Y1ySA8nCzU+wUrINPwaAhp/ieXyMD+KB4ASGb4uoevGiamUBz+9vNSy29sUdmBtM9LwWOq5jruQF1GaZ6vvBD38AQRAyv1Fx7A28VDKNULzePbje/TFWdtShVv2+ZxLBMtGjBrbvfwG4/V7iJqD7Mu6s7sALqklCc4NKj7MHY38VUfp0dt+Kf/Ps63j1VePe5cOHD7NvM6QTHmOqC3J4HKOiVeppQToh1yoq45OEWnZasTY2nkU6Td1LlAKwZauqjuq73FgUU6IgneRqyuSbdvUAv9IzyGG81FKOYoO09MxSgY3BWGpwtHoOv8137zYWxVSZI/VkrEdQXG3NfRJXJBQPNMHJOawJ5Zqssq1BPgYOV2GqL7n3GX+93Yt+d+IYUnpTed+PAKrLBaCiCvjjAJo7B9DcNw7UNmY3kWdrimAJGJ4fZerPLTaJkQgARDGiaZ+IWzOi6vOQ07GTedgH4XnMCg40x9toRVfS+HRhStvDXF9fh7gq4sGDBzm9ns7KX/8r0UNTem8A8Pw2lJaoU56yaeWPE3j/bSt+dVJJqapTk63Y/jRQ5ZnHaY96ZRGLWdRtfX0dX93/Ct988012jVq9iy8yvKVq78sAphHq1i7/8dMCStVpYtlcdjV4JF/d/yrrdarLBRRXNMJfq10+q/wh36lKqUordldEMTK4UYFF6uXt0i9WxgztTvj3yMssAiwQMZXLBKDYUvxirEkNlwtYW1rNpeIbQMCpn1dh6o/ZpZzMEXH+L6vorxFwK4+l9g4O4dnWRvjaHfAh9zHFVKTy5PFAVc9J2rZqLF0eU+uH1NOrLheAZfPjXNlaU99wxiYxEnGgfqsAwNx5Yqt1AIhiwuS+sqjLtjvlFLYVTR4relUpVk1a1pJIxz66KHzDUfgbvPKchSiuDkdh27lx+zhfMqZkl5eXH+n1nKQb+wM0AXb7hTDaAiOAajxvTtd7y8WXX36Z/UpyLzle7+e3yWOeCXODlfjkxXn8TEkTq15LGqvdROvr61hfX89p3fQpJOlO1bfTCqAStsi8uXGOnAh4tgyIfSoiiFX49GMwajEROZ/7MRExVOFZC5AoJLHtDRVbwhrKk5frerwutwu7ZoI4lKcZwUnC84i1O7BvLPNbzVMmuUBOH3rRhXxPBBFx/i9R+BscaAmkyi7ImQz5v5klEUa7HID8eTjiY9fZmlkS0VReArPB0cjs8AAmdnrR1FqDGRNjoYlUtNSzWxsbwqFFB/wNTnTZVftblZZtKVfSsUB8+CHD5K+0dHMhXO7GArrZTK3wvrigexRzJS/jFxeMU656C/97V/WflKqs8oygNuUawBf3RJT+5KfYnkv9/ucuVoxSvN2jmMMOOOP1bsXBhh1YuX0Z+mvKWNsF3MHLaLuUSDOP/fc0Sve+hYN5nCWqJz2r+SHOuvNXZu+nURTXutKm54KBccxWONC/pwSjIfW4lzybUP6vZacViMzn/kiJPJlgIgw5NSyg7uepnrGKYiKS7vV0ktd1uV2owzj8Zi6admci5WaxYpeQRaorJiKGRMobEHBqj1U7nmR3wrcRqViNKPxjJdhlNJM2Hx7lhiYTedig3p1i+MHuRJMq/RicnMNahdM4TSqnNG0N6meTtcd1OlLZqvS2PFkt29Rn7+AQRuGAL80zvy63K3F+QE41K6nYcAhXI4Btj7reSlrWlVSn3tA41gQHjqr3oeq4drmdiTbJ47ypesDKrOmk49XulFLkKdrU4vGmft5XGYbJ83PaBfgc5gm87waOBLTpyXivUTdDVplNmhiztOPShTDaAvP4mfIWXY91oeM93LnSkUj7mpklqxj24oP9YbSdnMdLJ4FEStig3tOX5QlAej24/toObA28gdOBOmn97nqcwwhOx8tVl13AwiE0wwn/YS/88YX65+OimIg4YSsb103CEXE+BPS3e6VepziOrp4sZ8kJjngKT7tdqbfS4vGqXgcgLsVX7R0cAHSvx9OA+ufIDnvhV838TFpXM6NTN6NSTlnHe+LhECY83vgjNNoZlvqZu3L74uVH4esbR//hxPqIhFSTUZTxIKumXcq205etf+5P/7qWlLJzAEqSKcM+S7/t5Nm9a2NDOBQ2Lrup3YumnJ/ZVXqZygQY/baj2olgsUkc6oN2n6v2iXIsSHWSyh/tGzI+FuQ0ZPw4Ux7viJ8/6tnFus+jVncc6dvUE0JXuxP+dtV+SXV+2J3w1QqYHU60s3cwhN3tTvg8IoKD6tmy0sxbzbkb3yeq4ZhICM2D0p/BwDj2tXrhFxJtSnxOBs9vZnvef0sMfw/TZrNhdnbW6P1EOdE+8ExEG87uhH/PUl6f433SFV5Klh4/dieaKvSz8IiIvlsKMCVLj414Gk2fkiEi+u5hSpaIiMgEpmSJiIhMMOxhEhERkRZ7mERERCYwYBIREZnAgElERGRCyoDZenYRkRufIfLBGsx9SR0REdHjK+Okn3e6P8PBe89g95ktm1UnIiKigpMxJXt8vBTC09n/fBcREdHjhGOYREREJjBgEhERmZA5YE5vgVj9Nd7ZhMoQEREVqswB86Ni7H5nCw7e+AyR7q83oUpERESFJ/OvlRwVETmwBb9+5TkY/RQyERHRk8DcGObiUwyWRET0ROOkHyIiIhMYMImIiEzIGDDfcaxAvJd5qJOIiOhxljIStp5dxH/8y98BlOLyMX4tHhERPdn4A9JEREQmcAyTiIjIBAZMIiIiExgwiYiITGDAJCIiMoEBk4iIyAQGTCIiIhMYMImIiExgwCQiIjKBAZOIiMiE/wfaE6Pp1/LK8gAAAABJRU5ErkJggg==;" vertex="1" parent="1">
          <mxGeometry x="-970" y="-690" width="230" height="33.5" as="geometry" />
        </mxCell>
        <mxCell id="X9pTo2VU-LmLKZ8eIbQH-35" style="edgeStyle=orthogonalEdgeStyle;rounded=0;orthogonalLoop=1;jettySize=auto;html=1;exitX=0;exitY=0.5;exitDx=0;exitDy=0;entryX=1;entryY=0.75;entryDx=0;entryDy=0;" edge="1" parent="1" source="78961159f06e98e8-26" target="X9pTo2VU-LmLKZ8eIbQH-34">
          <mxGeometry relative="1" as="geometry">
            <Array as="points">
              <mxPoint x="-570" y="200" />
              <mxPoint x="-570" y="-665" />
            </Array>
          </mxGeometry>
        </mxCell>
        <mxCell id="X9pTo2VU-LmLKZ8eIbQH-40" style="edgeStyle=orthogonalEdgeStyle;rounded=0;orthogonalLoop=1;jettySize=auto;html=1;entryX=0;entryY=0.5;entryDx=0;entryDy=0;shape=link;strokeColor=#FF0000;" edge="1" parent="1" source="X9pTo2VU-LmLKZ8eIbQH-39" target="X9pTo2VU-LmLKZ8eIbQH-34">
          <mxGeometry relative="1" as="geometry" />
        </mxCell>
        <mxCell id="X9pTo2VU-LmLKZ8eIbQH-39" value="" style="shape=image;verticalLabelPosition=bottom;labelBackgroundColor=default;verticalAlign=top;aspect=fixed;imageAspect=0;image=data:image/png,iVBORw0KGgoAAAANSUhEUgAAAXQAAABVCAYAAABZ5B90AAAQsElEQVR4nO3df0xU557H8fddmw1ZdCyg4t12KiLV5vqDEkO67QbKRYnRoNCGjSvSJhKhqf0RF7aahrWNek2jG2hz29UUG01axWtrbqklGgOd60Ku3RtDuKhs1hYH6OwPUYoyLTd2o3f3j/l1znBmmIEBZPy8EhM5Z57nPOfXd57zPWfO87PHHnvs/xARkWnvL6a6ASIiEhsK6CIicUIBXUQkTiigi4jECQV0EZE4oYAuIhInFNBFROJE6IC+apjL576j79wAJ1ZNYotERGRMHrKefI8TL30P//YIC96eMbktEhGRMQnRQ7/LvNl/xZVWBXMRkelCOXQRkTihgC4iEiesA/qqu8zjL3F9NcmtERGRMQu6KfoTX53rJ2MohV+tsXF4atokIiJj8DPL1+euGubyjnucXWNjxxQ0SkREomedcvnqIW7wv9j1/LmIyLShm6IiInFCAV1EJE6ECOgPcWPoT8zLmNzGiIjI2IUI6DPY9GEK857Xu1xERKYL66dcRERk2lEOXUQkTpgCenp6+lS1Q0RExkk9dBGROKGALiISJxTQRUTiRIwDeh67f3OGMx9sBbby/pkzfPZ2XmwXMSUM65K/m8/OnOH9iqluk4iI2X3WQ69g7ee9vLBtjMW3tfDW5w3Mj2mbJs/adw9wqPEAb5Qbp2ZQ/rFn+qHGAxx6N8SPAspfCT9fROJejAP6eVwDMHyzG+hm0A3X//t8bBcxJQzr4nBxnWEGr8V4EeWvsCGlD6fbPHntu5Vkf3+Ol4t38HLxOZwL17C/JvgnvKt4Y0Myzp4fYtwoEZlOTD8sSk9Px+l0TuDiKlj7eQ3Zs31/d/Nl/mo6gKz6XtZbvGrg9tf7+HWN983s21p4qyTwoZ5TaXxyECho4PU3n+HhEaV99XuWO6fZ+3lg/r5LVM49y57KnZZ1m5Ybka28f+Z5Fjl/y7pXP4qiHMAq3mhcA6fr+T6vkpTzO/jnI0DeJvZvz+Dqe3s54v1eXFKzi+1LunnvxRNc9ZZe++4BNnCO9waeYfucC7z8DxqZRORB9FCoGUlJSdy9e5cffrDu9Y0238r8fa+RffMke57bOWJeR2WaZeAN2M8LT7azJ3+1589tLbxV0kLWwdV0NJfy62bvtIIb1D9XyvWIW+Wtu2QeF99J42xzVAUjlpiYSEJCAvf+fI/bt26b5q19dw3pPed4+QiUG285pCdjc3fze99FTvkrbM+eBSSTDp6AXv4KGxb2cbr4K6h5ZmIaLyLTgmXKJSEhAdtsG0nJSZaFRpsfVsZKsqIvBezkk0rDF8HBdnqYx/yCMVVmwcbjeeO50/kRr61bF7J3fu/ePWbOmonNZjPPyNtE3sI+TofrVedtYn/jAQ5tgNPF53CSzM/zADIoz1uA8/S/cHYcLReR+GDZQ79z5w7uITd37961LDTa/FCu16zgy/pe1jt6WU/0aY2RaRk3A1G1IJSdfPKOndffrOEtRw3GVFAs/fjDj0FTMigvz2Lg9I7QAdmWxfbtfZwu9n4mbxN5DHLlPCyp2eTJrx+JcUNFZFoKmXK5detW2IKjzQ/Fk1oB2M8Ljhpe30dEQX3+vkuszzAG2v284Fg7pjZY8qVtvMuqdLRADIP6nTt3uHPnjnliXjZLbGDb4Ol9+204wKG8Dt47MoibZK6+Z+iBpydjcw/iJIO/XTILbGs41LjGUHgNhxqf4aIh7y4iD4aQAX3idTMwBOakzWGu36wh+8n9wMg8O0M3+B/vf7PqN7IwuIf+7Q1ulywjqwDLXHjSIxXAYdjWQuXTNui2btn1/7oR/eqM5abo+RPsPH/CMCGD8o8NN0XJ4Gp5Ftnlm/j9+RNc9aZY3FfPcZVurr64A2PnfEnNLsubols/OMPz6XDt83W8ppG/ReLWJAb04CdcgO6T7AnqnXdUnmSZYyNvOTYCgbTM9Zqz9Dg2Uuno9U6/QE/GMvMimkv5NO8SlW/2kv0mBFInhzl78Jc87kupDF3gy6/nsX6ut1zQEy7g5uI7K2KecoleN0derIePK9ne6Lnz4L5Yz859Ib6JQvio8xrPpy9i/l/nAeq2i8SrSX5sUaZE/m4++8dsrquHLhLXpjDlIhMvj92/2UG2TekWkQeBeugiInHiPnuXi4iIjJUCuohInFBAFxGJEwroIiJxQgFdRCROKKCLiMQJDUEHTHS7c/MLaazOYQuwpaSUxoql5Mas9nFIXcrx6lIaq0v97RvJTl11BG1OXcrxkHXE2IqcMO19UHn2U92KKVj0ipz755ieAFtKSmmsLmRX6gQuJPj8WZHjX6YxfoxGPyyaaityaCywB0108UVtG0cnetn9XWyu7fIcTGXJE720EbaUlLJ6sInNDvfoH35QrMih8alB6g530TrVbZFpJ8YB/TyugR384qbnXSODbmBaDEE3se1uHRiiyj3INX/l7sDJeqmN4kt4AzuTE8ij4qKqtmGqGyEyZY6eapj8c7J/kGHgP/uhNdUQP0YR8x76R6+uw/euwbf/PjgoBr2gq/tkYAg4w2hFV570vffc85Kss814h5mbR1t+O8scG1kIMHTBNDqR+X3phrLeeTk39/Epr3netIhhCLtR2+3heWvhNX677jWiGmTOF7QBHE1R9Lxs7KrIhdOdJJXlkA4Ye++5+YVULeox9eZGTAu6AnA2N1B1KXg51nLzC6nK8g7I0ddG8SmX+QMjri6C5kdS74JCGn0jnhiXkbqU42WZJGIxL0R9wx2+3r6NXRWFrLRZlbVTV53G5WODrPbV7+6Mqke8paSUogW+v9y0H2tib39g3urBJj4k17+OEW1z0/raqarOpAowX63Zqav2HQejtNtXn+Ezpu1uqjf8cRapRYb6A/vCw7xs8zaLar0shFwv7zbA0BbPvvN9ZpRjwbRPRm6P0fe1eb2Ct0nY86e/i8213v8b48coQubQk5KSmDVrVsiCo823klVf4xmCLj+NPfn7uDh3I6/vM48StLDEE3j35KfxZbeN7L/bb5ibwXrHWgbeSWNP/kl6Zj9DwTbPnPn7LrF+7gXq89PYk59G/deQ/WaLaXSkh5+u8Ywjmp9G/dduFhY0MD+qNQgtISGBlJQUUlJSYlSjj42VZZncOtZAcW0T7W47q/M9B09rVw/DtoU8a8jtLUq2MXzN5T0Z7NQt7qW4tsHzr9lFekHkuedWRxPFtQ3UdVikRFKXcrxgNu3HvHUf62TYoo6UlBSSkswvSfbV+0Wf5yD3t88YdMsy6W/2Tq9tw7kgh+P5thH1e07mIb6obTCctIWsvNXmLdtEe1JwWTtFZcm0+Oq2ZVIclHu2ardveUVJndR521zXASvLzNs0MauQquRO/7ZLf2pkfnlE/f1dbPbuI9yB+otNQTeHVP/2aqKdTKpKgtN1+ANRf3MDxYYvdt928rRrNkWmvHfo4yyS7YItkyLvOhc3u0jMygxsk9SlFNPq3891HbByQ2DZW0qM62Vos0HI8yvcevV3sbnZRWJWrif/vSLHEMx9jMeCZ5u+5Ftv3z4JcWxDuH0dvL/a6M8qDNzjiPD8idYkDkG3n2UZ3Xzp75Ef5mxzNw//4pfmoNp90j/gRccfu2Gu3TS/55Sv172TK92+d5zvp+BpGz3Ngd769Zr3uTiUwbJthsJDF6j3Lv/6+Svcnj2Pn0exBh+9uo51YXrnM2fNJHFmYoi5Y+ds9vVm3PzrNTeJyd5LnP4uWvpsPLHUd+LZWb7ARYu/F+CiytirvdSLk9k8GoObO1tyMqGj1dDLGikhIYGZs2YyyxbdF39ufibp7k4a/b0SF1XNLhIX2U2B8VF/MDefoMsXuPjCv95u9v4huKyb9mO+Mi4u90HqnEDwCt1uO8VZNpx/CAScVkcr7W47y41fCO5O6rzL93zpJrNovNtlRSYrbcZ962bv6U6GF6SZv6DnBIK58apgy2I7zubAdmp1dOIM6gyEPM4iabdhnUccZ/1dVBl6plbbJHjfWrE6v0Zdr0ttni+QnKXsesr8WW/DDceC9XqHFWpfp9p5gk4+NJyLjR1u0hd7voAjOX/GYvKGoCuwk0SGf/g5vyHzYBI9fzSOG7qaPabBoru5YvjbOPoRuBn4NnwTbv/77wKDRxtGKIqFGTNm8OMPP3Lvz/diV2kEjn7jougpO7mOLlpXpJHe1+u9VPcwpwcA3LRPYvvGvE1uuUe55LazMgvo6zSfoKk2UrGTXl1KkXG6ezCqxYdut5tbo5yEgSskzJfOEdUfRgR51PSsTMDFZdMluo1HkyC9oJRG0xi80R8LY9ufQSkwwJheOHqqiUcrCv1pJqsUlfX5Fdl6tTpaebbCe9UWSeoiyUYuRJTyCbmvU5NJtBlTZ159EVQ6DpM8BN3EjNXpYWPO44A/SGcwJ4ov2vEaHh5meDgWF01RutSLsyCTZ1O7WLTYjvObNv+s3PzCoEtMO3XVmZPWNMth9yIVdFLlzpkNGIOyiy9qe1lencPx/OAnZcb3lFD4dttISgX8QX02SSMzE+OoPwxv788fQFKTCb4edDY3cHlxKUUVS7kWlLqI5v6JlbG2e0tJISvppK7WmJs2PlXlZu9h74331KUcLyulDnNbw51fo63XlpJCnrjWRvsiq2PFwqidiQhFeS8gFibvh0XNv+PboQzW1+8f/bNR86RfjDnx+fvWsnDoAs0HwxaMytYPznDmzPtsjV2VMeDicp+NpFQ7y5OMaQovQ69uS4nhxtM4XRt0Gy6TPTnvaJNN5joCPJeuxrz2yFSHh4uqY51gzE32u/gPt50iq9zyuHnSM8ac+Mj00Dj1D464LwJ40xjGvLaNXU/ZGe7oHPHFdfRUcH7dk0qI5v5JzPmDpI1dG8IcK/1uIs9CRLBe3rx5i8PF3tOd4MunW0ldyktZNpzfRHZzP6xLvThthnx8kFicP1Ym8Tn0w5x9Dvi8xj+8HASGmBuvjso0qO/1D1HnuRoI5NTvW0F3uouqSymKsod5tK2T42U50GF+gqbV0UlxVo7/sm+4oxPngoX++eanA4KXHXyZnENjNf4nRlodrTy7yHeZ7MlDOsvSolp1cx2BuunvYvMxOF4WuJQe7mhis1XQ7O9ic3MyjQWlNC72lN97uIldFYWe9mIoH4Pn3Y+eaoCS0qCnUGLYC+vv4sOOhVSVldLor7+No7ioqm2jrjroqSDLdXKz93AbddU5NFZ7yzuagEKqjKmoSepBHm3rZHVZjn9/ODs6Gc7y9dCDnnAhzL620BpuvbznlrPZ+9hhfxctfZkUlRWyy/+UjY2V/m1t7u2HPz9GY7G/DPXH4vyxogEuROQB5UlB3jI9Qjm96V0uIiJxQgFdRCRO6F0uIvKAclFVG4MboPcR9dBFROKE6aaoiIhMX+qhi4jECQV0EZE4oYAuIhInRgT0it0D9J37jr5Ph6mwKiEiIvelkDdFDxz8jrU3H2H52zMmu00iIjIGIVMuOzofxjY3itfjiojIlFIOXUQkTiigi4jEidABvXsG7kU/cWASGyMiImMXOqB/lcjyAzNYe+47+g7+NIlNEhGRsQj9cq6X3PStmsGv1jzG+IefEBGRiRY+hz7wkIK5iMg0oZuiIiJxQgFdRCROhAzoBzJv476p8S9ERKaLERG7YvcA//Q3fwIe5uQ2/exfRGS60AAXIiJxQjl0EZE4oYAuIhInFNBFROKEArqISJxQQBcRiRMK6CIiceL/AVS2d5KuOTuaAAAAAElFTkSuQmCC;" vertex="1" parent="1">
          <mxGeometry x="-1290" y="-693.25" width="175.06" height="40" as="geometry" />
        </mxCell>
        <mxCell id="X9pTo2VU-LmLKZ8eIbQH-42" style="edgeStyle=orthogonalEdgeStyle;rounded=0;orthogonalLoop=1;jettySize=auto;html=1;entryX=0;entryY=0.5;entryDx=0;entryDy=0;" edge="1" parent="1" source="X9pTo2VU-LmLKZ8eIbQH-41" target="78961159f06e98e8-24">
          <mxGeometry relative="1" as="geometry" />
        </mxCell>
        <mxCell id="X9pTo2VU-LmLKZ8eIbQH-41" value="" style="shape=image;verticalLabelPosition=bottom;labelBackgroundColor=default;verticalAlign=top;aspect=fixed;imageAspect=0;image=data:image/png,iVBORw0KGgoAAAANSUhEUgAAAPcAAABuCAYAAAD75YXYAAATKUlEQVR4nO2df0xU55rHP3dtNmaxg1gLdNspiLQxRWEnxHQ1Ga47ddJosFKDepfqHySCCWn9AzYawqrRXmI0C3+0xqTYxD9Ubr2aileCaaDUDoluYwgL1aapw6/O7a0IgnOUG7tRd/8458yc+ckMDIMcn09Cwpxz3vO+58w8533e57zP9/3d66+//n8IgmA6/mGuGyAIwuwgxi0IJkWMWxBMihi3IJgUMW5BMCli3IJgUsS4BcGkiHELgkkR4xYEkxLZuN+Z5Puvfmb4qzH+9E4SWyQIQkJ4IfzmJ/xp9z3471fJOrgguS0SBCEhROi5H5Oe+k/cdIlhC8J8RcbcgmBSxLgFwaSEN+53HpPOP+L5OsmtEQQhYQQF1H7j669GyPW+xB/ftXBybtokCEIC+F1YsYZ3Jvl+7xOuvGth7xw0ShCEmRPeLf/6Be7yv1jl/bYgzFskoCYIJkWMWxBMSgTjfoG73r+TnpvcxgiCkDgiGPcC/v2zl0jfInPLBWG+Ej5aLgjCvEfG3IJgUgKMOycnZ67aIQhCgpGeWxBMihi3IJgUMW5BMCkRlFimyzoOfbGX1WNfsvFD+LRtC5nfHWProauJrSYKtqYhNuUq3DiSz5V2//bM+j4q11jUD+5zHK7cl7R2FzmKqbZ5udTQBaVlbE7rpfHkLVwJOXs0rDTW2FEjKQrdZ1r5eCTWshb2VxSzor+VDzqVadavnqNQu+0D7c1U903zVHGjXbsSeq/LS8vYnKX+P9kzk+tLNGqbM3pa+eCWlbM7ChiZwT17bnruO3X5HHZk03T9Wfkik4GH6oZmShq6GEh63VYaa4pJ+66ZEq0NOIvZn5H0hoRw6oLapkvDc92S2SXBPfdVPGN7eWvUDcC4Avwteb02QE9lNj1xl5rddrvGvFQr4/T7Tq4kodeeW4ocBWoP5Ot1PLT0FLA7zwIjyXjAqg+2+YWXCQUYU2BEYQSFiZg9rVASbNzw+Ycb+Vz7/+Afgg2kgg0X61idqn00uMeZ9X1s4yYTa9ayDDeXL8Cm0txAF7qqgwOl/jmxgxeyOX1C++BsZk/tWharJ+ayY31cRh693Sq7jrexJaefLzd+5Ds2Jvq6KNF/5J2toYadb6fFafV9DHQVA11bDG5mkaOY3QwyYisgBw+X2mGz0wrDXZRc8EzZrCJHMdVLev3HZuRxdscSOhq6OBVytO7ie7ik7w9ot9Htt1Ji89LREGjErluD7H7PSlHnLVwBQwYCzvFtXgzXFXTPjC6/OgzSbliM9yI+gtoe4PpH2mdhf0UR9HsptKnXcgk7m7OMbVf4+KT+QPJQ3TCzdkc07rS0NB4/fsyDBw+mtT8ctqY6Vo+e4/D7+9ANfU+9m0/qVFmIxWtWcvtIPWNVdWxyXqPpyF221RZiA3o4ys5/6eawY716sqoODpR2YDuhGXF7GZ+0oxl5esxtShQLFy4kJSUFgHv37sVR0kqjM5XuM81hx8NFjgL4SzMlI6Ab+m6HB5dm/Cm2ZUycaaX7vWI2v91L45lxdu/IphxPGAOdLv6xYIn+0MnI46yx3fl2WnbYKW/o4lR+NjnDQ1RjHN8qdJ/pZQTV6MpL7eTohpeRp40v1YdDUd5U12Wl8c0h1dVHq9tpp7xPfei4OltxdeoPr4TdhMj3woeF/RXGfer3VV2q4LrgBSwULh/UrsXO+p5WGseLqH7TCn2JfgBFGHMvXLgQS6qFtCVpYQtNtT88R1mZ6+ayL5B1kivtbha/9W9k6oe4r/iCYIPtZdwJKL+P08Yg2IluBkkn0xlHE2bI5x9uZGOUXnvRi4tIWZQyjTNbWJFnCbvH1dllMHqFb/sVUpak+g8Y7vXtH/huNoJ0hiCP4cdclLcMelz+tvX10q1YWZUPRUtTmRz3Qr5dDR42dDGAl7+O+M+5KgsGftJ+0CMeflQgY6nhHkS9Lg/Vxt64b4gBUnktCeP5IkcBOUovn4ULwuUXUGjx0OHbp/DxX3qZzMqmXNvivxbjcbND2J770aNHKF6Fx48fhy001f6wOK2kkcumziE2Gbd778Z8CjUSbtyiMBZ7C2aVBQsW8PDBQ548fRJnSQ/VZ3o5u6OYFpv6+ZLRLdZ6tYBHRhIDQSm2AnJQ6L4V+ENcvsRCSpbeZj964G5kTKH8TSsD33XhyshjtzJOC7AK0MeWhXqPlWFlhUXhx1ux/9iNEW8Vhe64ry5+li+xwESUmIkeW3kGiOiWT0xMRC041f7wRB4LZ4bZFrC/vo9NucbyR9nZuWEabZgdJicnmZycnF7hkVt80HAL0FzJGjs0dKnu544CMLiAs+NqRmayp5XPKKJad7mD9oV7jVReaoExC6/pjl3GElImhnBlWNg9oeBCYfkEFGbZaanxnyvW13RFjmI2ZxkfglYaawqmf5Fx0D+uQLT7b1nCcvAbf8YSpuPLJYLkvQpr/4bb3lw2NR2d/jm8d/lV+9fWtJ1lCWlY7Ow63kZb26fsmsU6XGPekG0jY/5x7m5bePd92qRZKALQHiThfoiuzlYuDVvZXJGnHQunfvKQYisK+2qrfzzQ4MvfVANfRXnLYNwLGXmsz/JwqUF/TdYc/7tmQw9ZXhocmJs55aVltNSU0ZgfuN11a5DJLHvIdkAbHlhZ79C/Iwv737Yy2dObuPiH4xDn29po++IQ66Y4NOHR8sic5Mr7wMU6DnRu9229f73eF1CLxp26Kwx2bqeyc0grd43B3JW+/QGTVEBz//WePihKz3a1DSGTWeaAoKivHjFWfwweWnoUqp1ltDjVz909CoWx9tzB595RRoshqu3qdPH75cVU1xRQjUJ3ey+TzvAnP3WhldcqiqmuWcbvz7TycV8XJdhp2VFGi+8otTftBzKWQku/2vaMnl4GbHaqszxcalCAW3QMl7G5pozNhjpinVDi6uylxGbX2g2TPb0MZOmP+qC3C2jegS9qHhTN1oYWMU9mGbnFB2fg7A79O8EQEfdQ3dBFY41huDLc5QuuJYTOb/ihcjWrLUvIBaK9sA3I587JyWFgIPnTHQSTkW+n5e3xyLPwwr1yy8jj7I5l/BjXLLrnk13H29iy9AbH/nAwqnE/NzPUhCTS10s3Bex2+Hur8lK7L2IcbhxalLeMlICIuhBCxae0tcVm2CA9tzBrBLm/QZNJQqPdQW8JhBkjxi0IJkXcckEwKWLcgmBSxLgFwaSIcQuCSRHjFgSTkmDjXsehL9poO74L2MWnbW2cPzjVJDnzYWsaYk99he/zuoPnfdNWdx2PbepgrBQ5immpUd8hl5eW0WKYIhpT2VLr1AfOATO5LkElidNPBTOiCyOE6qMFTQOd4j13cvXVng8S3HNfxTMGk6NuwM24AneSLLP0LHL1b3dAGccNuEcnYcwz5eyiWHGNeX1JFP3jSvR0xIRiYX9FGbsZDKvPVuQoYkV/q08/bSDLzlnDjDVdx6ykoZmSM71kBOmrzd11mYckyixVsOHiR3DiCktr9Yyu4BTQo+zsNGR7BSd2BMksBSedBCeP6DJMtqYh7KPBCSpqMsnSdvWYSGV99Trv0nQCtulSTgFtC05MgfujhqpOfsRGvepDW8Ma9rqD59n7Ntz4r60c7AxzQCTilHAK10Mae9GQ/REkoIocRaR918wHfVYag3K6QVND8X3y8P0w5CxJBcIkZ4wohMw6neq6hClJqswSWFhdu4EbR7I53a6JLzQdpUczEltTITcd2ZwGdEPfWbVPM7Kj7CxN58aR7ADJYh/OZratuctlR35IvvivowqLX46yHnFVB5XGslUdHCjtY8Ntgzxy6loqa91cdmTT42xmT+0GNjj3caU9WD5Ke5jEcVemQpdwevL0Cfcn7sdRMrocEQBZqtxPyQUldH++nZYIElCuRBpcfjY5yiCNMq88oSRRZkll8ILfYHr+xw0vW31CDT2Vxl58HzfdkPZqhaG0hTfWGT8Hk8vKqtCtd37xq734g125LE1VGLtdwQZnLvevn/PXfWI9l93BdSncOKLrtX3Dba+FpW8AzmbsAfJR0+Pqoa1s3Bi511704iIslnjTBmOQIxru8qc6avnIq/LBn4vsmnmWVr6dzVkK3V1GnTDVrW+pKaPFaZ0liajnm+TJLEUiNZ1XQNVLC3K7weje7uP0ESt7aus40FlHiEvfXsYnb3RwoHSIA6WA9xpN72s6bLfvct9pJZOjrMTNhK8Xv8uddsisgolfpsgp996kx+cxnOTK+9rxSdBwe/ToEQ8fPOTp06dxl41PjkiVP1If2amkWQxCEdMlI4+zTisD7cG9v1HpUzX0s0ufpQUC5j9JllkKg66u4mxmT2luwFg3xL3VFU7RxsidHWA08BPrOWwoW3mxWTXwdg8TtYW8UpVO2ug5ul7ejs15lzSt7kx0D0E38AoyXwaM4+Y5Jj5FVZX45YhSSbPoWtlGQ58mmv4bPa1TRMJV4cfCSGNyYVrM4SSWo+wszeX+D98YVE4Vxm5r/1Z1BIkhBmJ0tcPx62jojyTzVbh99SS/jqazcms6i0c93OEkPT8oLF6zHV9cqGo7q1PddMWgEEO7hwnDcEDVepu6WDDqu/DzHHLEXzYqccgRqcqeg3w7ArrB5TgNedjxYDDsqXtjKyU2i18NNUZU2as2Po02UnuOSfp77mW620xQtLu9jK6tQ2yqHWJ1LeC9xg13Lm/oBUNcdnU9ML3XDo52q267Lo/sZsy7ndVvXaOpDu5wk7Tatdy/fg5Qlxpqqu+j0qfMGnju6Ozj9IVC/3DAfY6m6xvYFud9mQ2iyxFpGEQKCVpXy9XZChRTbZBD8skRBUs4aVJQerS93K7psdmMCqm6xFOwFNL03nN/3tvPlpzlZP7zOqILDj2fJDGfO/DVkyDMGMchzv/Hau5c3MhHMThZzxsyQ02Yh2irslqgXww7ImLcwjzkasT13AQ/IrMkCCZFUj4FwaSIcQuCSRHjFgSTIsYtCCZFjFsQTIrILM0CwTJLySCzvo8DnUPaXwe2MPt2hsmYmz6z+11PX2ZJTUIJuwrnnKNlwpVaUef5lwUIWCQaec+dJAKnx0Zep3xaOJvZtobIue5C3ExPPip4Wq1/RdW5IMHGfRXP2F7eGnUDMK4AIrOkilLkug1CEkfZaRCpmDFvpLM4ICU1kDt1+RxOTE0GZve7do15qdaTXsYVIJnyUcWs6O9lgNAMOp98VKeCvh7aWYeeHGNMY0Wdf7/DTrkvK0/hrxOwYlxdg31CAWaaUhsFkVmabZklZzP2XIPQAwD7OF3pPzZy3bHcM8h8NR0IlyVnvJ9qMkxAzx7lujLr+9jGTSbWrGUZbi5fgE2luQHXHfm79rPreBtbcvr5cuNHvmNjYsbyUcaFCEMXGdR75uDyiZWPGmeSwPXOT11o9rUj4EEwC4jMEsyqzFLmupVRe9Wp6zbeM/UhYq+voKfupOYR6CdaS2XnEGB86O3jtGOfdi83hK8/wnX1AIvXrOT2kXrGqurY5LxG05G7bKstxAYJG1K89NJLPH36NE59gKnlo3KcBXSfaaZkRBOsKLVySnOfVcP2cqmhNWRV0UTKRxXlLSNluHfOVi4VmaU5lVmKrW7/PdNyz7UHVU9lNocd2TRdV1TlGYf6+ZNY8tCnui4A9xXfdzXYXmbIu4+dzz/cyMYIvfbChQtZ9OIiXrS8GOdZp5aPGmj3j3VP/eSBrGwtL13LHW9PwHLBYeWj1EBZS00Z1TaC9iUXkVl6BmSWpqx7NolwXZn1yan+4YOHPHn6JO5ycclHGd3jDAsZKPw40yBXRPkoD9UNurutGnrjHGmyR3wVNjExEdXlnmp/zISRWTqs9UCX3UHHtpfxiUPvrdLZFPTKhxPr/WVH11J5sVn1Cto9TKSm80pVIWmj57hJITan1SezBMEegiazlADu/HIXUldii/IQmK26n3UePXrEvXv34lR0NcpHNft10aMVyFhCih6cCyejHC8xy0epY/KMpbP3uisaIrM02zJLJ85xw2thdVWzb/ihR8uZad3zAFUKSV1KKaHELB+lqbj2e7SxtIfvhy0UvjfN5YnikY/KyGN9lsKPt+ZGF05klphtmaWTXHkfuFjnC3jpQ4qZ1z0FQfdsWe0Qq2vDRM3nGbHIR+Vosk9gkIbSOHWhGUrLfOXBEG2fkXyUMUJv3J7Y648VkVkSBJMic8sFwaSIcQuCSRGZJUEwKdJzC4JJCei5BUEwD9JzC4JJEeMWBJMixi0IJiXEuCsOjTH81c8M/3kSWTxREOYvEQNqx078zIbRV1l1cEGy2yQIQgKI6Jbv7V2M5eUEpHQKgjAnyJhbEEyKGLcgmJTIxu1egLL8N44lsTGCICSOyMb9dQqrji1gw1c/M3zityQ2SRCERBBZrGG3wvA7C/jju69jDk0QQXi+iD7mHntBDFsQ5ikSUBMEkyLGLQgmJaJxHyu4jzIq6wQKwnwlxHorDo3xn//6d2Ax56pk6qkgzFdErEEQTIqMuQXBpIhxC4JJEeMWBJMixi0IJkWMWxBMihi3IJgUMW5BMCli3IJgUsS4BcGkiHELgkn5f3gObJyS0ZGVAAAAAElFTkSuQmCC;" vertex="1" parent="1">
          <mxGeometry x="-990" y="-500" width="247" height="110" as="geometry" />
        </mxCell>
        <mxCell id="X9pTo2VU-LmLKZ8eIbQH-43" value="" style="shape=image;verticalLabelPosition=bottom;labelBackgroundColor=default;verticalAlign=top;aspect=fixed;imageAspect=0;image=data:image/png,iVBORw0KGgoAAAANSUhEUgAAAckAAABbCAYAAAAY5n6NAAAYJklEQVR4nO3db2wTZ57A8e8eeyfadB2SY3FWi8nfcqgpTqOIQ61kl0ZEOrhA0ipdVia8iEqIhNrunqNrxWWhAhZVdC/Zu6VCKnTFiybZZRu1Do3CSYnS1ta210NRLmFToW7+rmkX0zQhQ9Nyd9C9FzNjj/+MYztx8C6/zxvIjOfxM2N7fvP8nmfm+daGDRv+hBBCCCGi/NXdroAQQgiRqSRICiGEECYkSAohhBAmJEgKIYQQJiRICiGEECYkSAohhBAmJEgKIYQQJr5ttuLgwYOmG238uwcB+JdDLctfIyGEECJDmAZJgNc7X4+5/JWjJ9NSGSGEECKTxA2SAF9//bXpuq+++mpZKyOEEEJkEumTFEIIIUws2pIE4Imv+Pif5rBwH7/9eS7X01wpIYQQIhMk0JK8w/ln5uC/8li/O5c976a/UkIIIUQmSChIrrPcx+Xfrkp/bYQQQogMIn2SQgghhAkJkkIIIYSJxYPkE7ex8tf8QfoihRBC3GPijG79A/9xfoxiJYfju7/DaytXJyGEECIjxGlJbuAf9pSw/pfwows3+dnK1UkIIYTICIunW9/9NgH+jw1PrEBthBBCiAwiA3eEEEIIExIkhRBCCBMJBMlVXFe+Zl1R+isjhBBCZJKEguSeX+ZgrfmUqxdmOS99k0IIIe4Riz7g/L777oP/vI+KPX8bXPbKDvXf+++/P20VE0IIIe62uEFyv2v/StVDCCGEyDimQfLatWu89dZbK1kXIYQQIqPI6FYhhBDChARJIYQQwoQESSGEEMLEoqNbU7eNo79+gS0zb7HzWTjV+xR5H73C00ffS99bRig/M8WuEoVLL9u52BdanndihAOPWtQ/xs5z7MCLK1ZvZ2U17vJ5ult9UOeiJmeYtrOjeJel9HhstDU7UG93VRhs7+F4INFtLRxurGbTeA97B5QU318to0I77BN9nbhHUiwqadq+K9HHuqHORU2++v+FoaXs33JT62wd6mHvqI2O+jICK3rMhBBwj7Ykr7XYOVZZwJkPM+WEuBL8uFs7qW31MbHi722jrbmanI86qdXqQFU1h60rXpEo57rUOnVP3+2aCCEyURpbku/hn3mBhz4fA2BWAT5buVYkwNCBAoaS3iq99fbOzONWZhkPFq6sQCvy7nJWlqktomAryI9nqIymUgsEVuJCRb1A+PMyz5wCzCgQUAigMJdwy18IsVzSGCTh9Wd38rr2/5d+GBloGtnxdgtbsrU/DWnPvBMj/IDfMffoYxQyxjtdsKuuJDw1erCfI3UlwdImuwp447T2R1Unzx96jDVqwbxTuT2pYBm/3qr9r/byVNE4b+18LvjahIz4qNWDxUBPdIC0O/BU2YJ/hqcAw1OWGNKHzspqmpgkUF5GEX66+6CmygbTPmq7/ItWy1lZjTt3OPRaaykd9bn0t/o4F/VqPXXrp1tfH1ZvYzrXRm35PP2t4cHQOzpJ024bzoFRvGGpYMLKeL80gf2KOGbGVK6a3tYOWILHIjkRdQ9L6Zqts3C40Qnj81SUq/vSjYOafGPdFY6f1QO7H3frctdbCJGIhIJkTk4Ot2/f5ubNmymtj6X8TAtbPj/PsSdfRA+Yz58Y4xctZwFY8+jD/P7lE8wcbGFX1Qecefk6PzhUQTkwxEn2PTLIscrtamEH+zlS10/5aS0Y9rn4RR9asFyXcJ2Wy+rVq8nKygLgiy++SGJLG21V2Qy2d8bsL3RWlsGFTmoDoAfMpko/Xi2IZpUXMtfew+Duamq2DtPWPktTfQEN+GMEulSF+spq9eBtLaXDWG+7A0+9g4ZWH+fsBRRNT+HG2P+nMNg+TAA1eDXUOSjSA5i1VOt/U4Oss3Sx/bLRtnFKTeGivXeVg4YRNXh7B3rwDugXAct2EMyPRZCFw43Gdern5a5T8HbNAxYqiie1fXGwfaiHtlkn7o02GJGAKESmWLRPcvXq1ViyLeTk5qS0PraTPFwyxjvBATNnudg3xpqHniBPf8nYxeBgm8k+F9fCtn+RN4yDbU4PMsk68qqSqMISvf7sTnbGaUU+8J0HyHogK4WSLWwqtcRc4x3wGYKnwvvjClm52aEXTA8H1098lI7BQIbBJIag4CwthCFvqG4jwwwqNjbbwbk2m4XZebA71EFKrT4mmOdqIFTm5nyY+EQLDAE/VxSwrjUcg7j75cdtbB2OTDFBNutXoL/TWVlGkTLMa7EG+9jLqLD46Q+uUzh+YZiF/AIatCWhfTG+TgiRSRZtSd66dQtlXuH27dsprY+pykYOJewamGKXcfn89YSLUEeuGpcozCReg7RatWoVX978kjvf3ElySz/u9mE66qvxlKt/dxvTnVorKyz0ruCAk6zyMopQGBwNP6EX51rIytfrHKIPEArMKDRstDHxkQ+vtZQmZRYPsBnQ+94q9BaU1cYmi8KV0cSDhnGEqkphMOm9S15xrgXm4vQp633PQog/WwmlW+fm5pa0PjbzvsK8GMvC1p8YYVeJcfuT7BvYkUId0mNhYYGFhYXUNg6Msrd1FNBShM0OaPWpacX6MjCk9tKTQjS3MNTDazhx66nUiHWxbp9oqLPAjIX1eqLBmkvW3BReq4WmOQUvCsVzUJHvwNMcKivR21OcldXU5BsvJmy0NZelvpNJGJ9VIN7xt+RSDKEgas0lldyCEOLuuTu3gPS9y+/nS9h15mTqZcxf54/af8vP7KFwWSqWuP2v9tLbe4p0PgLeOzMftSwwE+oHbCqPnZZNWY4FJ4AWkGOd0L0DPXRP26hpLNVeC+c+8ZNV7ox5S8f4bHjgbNioDrBxlhbC7DxYS9me76e7Vb89pDP5exUNLbaGusgBQEvXUOfC0+yizR6+3Ds6yUK+I2o5oKV9bWyv1D8jC4e32lgYGl6+/uHKo7zZ20vvr4+ybbnKFEKESevoVnNnufgk8HYLRwb2BJfe+PBEcOBOPNdaLjI5sIcDA1Padh8wWfJwcH3YwwJAS+vqLc+IUbXsUesQ9VCBuyBilKY+wlM9qfrxDCm4q1x4qtS/B4cUKhJtSUaWXe/CYxiF6h3w8nhxNe7mMtwoDPYNs1AVu/BzXT2sb6zG3VzI4+09HB/xUYsDT70LT/BVautuHLCuBc+4Wnfr0DAT5Q7c+X66WxVglP5pFzXNLmoM75Hojf3egWFqyx1avWFhaJiJfP2SKWI0MFprNTjKNWL0qZYyTvihAoFR9rZDR73+mWAYwerH3eqjrdmQhp72BQfxLIuBd/n4wBa2WHIpAVb2Bish7g3f2rBhw59irXjqqadkFhCxdHYHnq2z5k8VinWribWUjvpCriT1VKB70/5Xe3lq7SVe+eFLEiSFSIN78ok7YgWNDDNIGU2VodZTQ50jOMIzVj+ds7SQrLARsCJK4yl6eyVACpFu0pIUKyAirRlxU3/06NSIUb1CCHGXSJAUQgghTEi6VQghhDAhQVIIIYQwIUFSCCGEMCFBUgghhDAhQVIIIYQwkcYguY2jv+6l99X9wH5O9fby5kv3+sOzTrJvYIp9B9NT+raX3gw+Km//q8v8uDK7A09zNYet6vNSPc2Gex3Tykab9r6m9TI8Ii8d1P2NfixdQqyldDS78NTZFn/tX5AlHTORBBttcpyTZjyHNdS54p5D7tJj6e6+8jNTOD5P7DF4UQ72c6TqOmeejJzCS6Qi3fdJhk28HDYh9F0sO8aMLsbH4YWXqxevPfLO7sBTRfgxirUsoTpHlB1coN3bGrlce7xhVF2NE3Yv+b1NRD22ERL/rkQ+opAE7tdN8rsSZ+Lx6EnFwycHh4hjEzZBd0S9SeLRifFo30HCytKnw3uPK8Xb2DQe/T4NdS62z+rLI+oXZzL06H0OPy7Lsk9pkMYg+R7+mRd46PMxAGYV4DN5Lkg6vffZNV5QZhkD+HwB8C/fk1gCsywAVwPgtc7jXsZpoM51dUad7JeLeuLz092qPwPXwuG6Upxdic+3qU/cHMlZWY27eJK2VrUsZ2V19AwphlldwoQtV080m2K8Z/A9EgkiSe6PadnaZzA4pEBxjAIUBYptOAfM62R2zJa0XyM+akdI6oIgUugkrZ6gOyrDT8yRgStRaoDDMGG68Xvmx93aGXxPYrxHQ51Lm2818ngoHD/bSfA7EiNopSwwyt6+XDxVTg6PqgE9OAH6wGc4UaiI+pxtbM5XuOJTgvtTNO2j9mwoMLbZ/er+6Z+Xtl1bs8Pw5pGTkqsZo7aZ1I5/srwzhnPYrAKYT3mX1pbk68/uDE5K/NIPw0/XekvuNzwXfBj5ZFcBb5zWX3GSfQOh2T2iHn5+sJ8jdaEJJSPXhz/kPDStVtjykhaODLRoL0ngAedVnTx/6DHWqBsHH7AePu1XeL2Z/8C8xamXZ3xN2H4pXHrZrk0+3ciOt5+D0xdZe0gvP2K6sbPPsVM/BEefjhkgt730Ji9shUv/+jQvxTiJmQqMsrdV+3/Yl1+zyFU0Ma4gY50sTBlbXjFaHsWGq/DgFam1lO35CoPtxpOpwvGu8KAV2bqJPJEWRe2Tuq62HAbbQ/XQHxK/2Q6MhLdMVvYqOVbLJdFWkY22rbO0tY5CZTUVMV8zyZW5Mmrto3ijPr94xyyFuifaykT9HJvw0p9bHTzu5kFPncc0ubm5zepmo7bcwkRfZ9ik6JHfM1PWUrbnJL6fi5XVUV9GljHrsHGKttmy6N8HwIiP7o0uahw2+KRAu6BUA553dJKm8kIet47i1ffLXkCRMklbIDTpeFvYpOc+3InUU5uUvDv4m9AmcNDnlU034zlsoCfucU8oSObk5HD79m1u3ryZ0nozax5t4cDYeY5VvqgGr6pO8k67uEYjO97eQ86HJzjWchY18LSw7+BZLYieZF/dOi69XKAFkAgH+znw6HXeqbSHAuPbnfzxSRfXWuwcY/F06+rVq8nKyuLON3e4MXdDXdjn4hd9xEm3RtZbnXHkwJmT0QFYC5BzXQX84rRhmXG/DvZz5FA/1/r0QGhhy6EdXHq5gDf61LIdJxoZSiVlHENWVharV68O3+dEWEvpqMoOXUXbHXiCLSo/l6ehxvjltxdQhJ/uhK8YLVRU5dLd2qnOq9nsCD9BW8qoyfVR2+rXThLqlfH7pYVkKZO8H+ckrQbIeUNL08jYAoiYo9Jqwco8l8PKVrg6F5pAWm8hN9S52J7ori4Lvd4qPXgkFqz8uLWvU7x+3vd9wzQ5Yp3Q4hyzBDTUGVsXycsqr2b7UA+1XYr62W4txTkSI/hYbWyyGKaeW5SehoxRt6S/z+GcpYVkzU3yeKMLt3atltJFlRYgA5EXBvkO3ET/PvTvwznfMNvrHXjy1fcNZUH8XFHK2FRqgYBal4aNNhbGh9U0cLGFhXF/6oE9IhvlnZnHXaxO17dcWZPlsOjAndWrV2PJtpCTm5PS+rjmP+CMFjyuvfc7bmSv43sAVU/wIB/wm+DJ/0X6PlQofMQ4/6SFB7c1xiy2/JESJrtCLaxrLReZzH6Y8iTTeA985wEsliSmNTq4hy3ZY/iC9T7LxdMfcKOkgnLj674fCpChljPkbXsYPjwVCvynz3NpvoSHDQN9Jrv0luVZhj5WWPPdEpLx3tGn2bkzdivyzp07ye8z2tyQQ4aT8Mgwg4pNbVGh/ggX8guCA30aNiY7r6KxNagGXetaQx2NV7MBP1cUi/rDNtIH0DQbO+n1FkAK/Z/WXLJipJwj58+866ylNBVP8tpyt2IDfq7klJkPqFqCrGJb6gOxpn3B4OIdnWRBm/haV1SlfQfqC7nSHt3KDK5vdtFheCi/3mpa9uMIFOdaIL8QLmhzqrYPQ3l1coNx1poESIj5+8gxfm6BUfqnAfz0h+2fwvvjiuHz0FKto8twDEammLCUURvcRxttUf3NmWHRluStW7dQ5hVu376d0vp4bnz8bqglprfSAB5cx5psYzpTM6b/50XeeNnG84f0dKkx7dhI3nehsG6KI3XGjRVmkqjbrVu3+PLml3zzzTfJ7ZRhMmgzhY8+BozhOx2+/HvftbDGmALWTCZXgyX58uaXSW9TnGshK98wb6JmQv+PdkWqpiFtbM7309+VrmCituY2RS7W+wDtDjxbtWVWC1YUrqQyiCcwGzwBh6V9cy0szEZPln13WDi8u5ArF+Knk1KjcPyjeTpKLby/jKWG5ipV5wdNtY/QjFqe1r9naCGp723oG9f6yDpQW3TFuRaYM++3WqoF40VmYJT+6TK2r7UAif1OisrLAD+XEzxWVmPZdoeWnrZRU2fjnCF9GpZytYZSrUvnx93nx2OYH7e7z0/RxvQd41QllG6dm5tb0vqUxOvLg7CgmndihAMD/WDon5uMaKWl4osvvkh+I601HKz3g+u0PsyQya4CfvfIFLv0FLBhXaITT6fDrVu3uHXrVkrbxk8PqVek7o02oICi6anE+i1SYmF9DgQ+UfAyjzuyT8UooJDy7z2gEKCQ9VYIFRJ677QKzLJAjAmxI1q2zkonm8a97E3XlGMjUwSay3h8aPGXJk4fqIKWGnTRxnIP5lA4/pEfT1UZDQNmWQQtY6H9NT6rEOuQA9rnURbsi07W+KxCTW42iQbEWCb6Orm80UVNYynjCfRthtLMagtuYaiHvTNleKoctNkNx9uQcm3I1VOtEOxaWGQAV1wRYxucldUZdIEZkpkPEzg9yGT2Y/zgROx0aqRrn143/KWmIQvr+ik33QL++LnCmoeeIC+V+v3+OjdipW9PDzJJCY5gvRvZUVXCjQ/PE3keGTpwgks8xoEzoRTy0H+PsebR59ixjKM7I6n3Ur7J0crlK/PcJ36yyp1xU2/egWEm8svo2JrNoM/Yj6WNAtT+athog+mp1G//0AYEXB5BS/taqNhtdg+Un8vT8dbHE72ts9JJBcN4EjlR2h2hdJrVxiZLEmmsgEKAUDobLBzeagvvH7I7cKcjzRrGj2com02xRsAuh6VcxCxG6xLYXmnStWB3UGNILXpHJ1nId8ROgWrpyqIq473D4d/reNSyDalrbcBZsmnNc109DFKGO849uc5KZ+j3gZZG1tOsIz66p6Foq7HeesrVGVWnc75hFizhc8Uav9fOSkdon7R+W7OWrj7aOer7aneo6W+TfWqoc5nfj6t3sSzxPuoMvU/yRd6ohH0D4anHYOswYmSrPgo01Adp58yJEQ4MTLFLf0lEy/Rayykuvd0SSukmMrpV1+fiN9tGOHBoii2HIJTujVHvsfPaIJ5IZ7n4ZAlrB/ZwZKBC3f70do7Rz5FgucayM9iIj1oceOpdeIILI+9f83N52kFRznDEQBqF4z7oaHaprUtlmLazSY5us5QF03Ph76u2ShrqXIb1gDIb3PRcVydErA+m+CLv86p34TGM2IzaNmwkZsRISC0dHWxxj/i4XOcK3u4SPjIycsSttn/B8v2424fpqA9tz7TPMKBE79+xhe2X/t7xy468Ly9yfTg1HVcGejJpkWMW/72jR+UuDPWwdyR22TXNLmpSvqdWb03qg1gi39sfPpgrMMredsKPueGY6N8FtU5q+YPtPbG/C1qKMfg902/FCP5+jKOCIz6P8ojvUeQ+nfXR1uzA02w4Lma/D7sDd7mFib7Qfp7r8rG52YG7TsHbZRzlqo6YDfvtBo+Joatl2kdtl/pf78Awjze68FhC+xT6nGLcX5ns736FyHySYsWE34QshEg7uwPP1tllvc/2XpOZ6Vbxl8fuoCY/cvScEEJktgxNt4q/GMEUWWS6RQghMp8ESZFesZ7OI4RYGfL7WzJJtwohhBAmTFuSeXl5HDxoPqfT6dNLvAlRCCGEyHBx062nfnkq5vLnnnkuLZURQgghMomkW4UQQggTEiSFEEIIE3GDZNNPZrl64VOutn9F00rVSAghhMgQcYPkaz/NZf3u7/OrmTl+9JM7K1UnIYQQIiMklG7958sWLGslSAohhLi3SJ+kEEIIYUKCpBBCCGEisSA5sQql6H/4WZorI4QQQmSSxILku/fz0M9X8Y8XPuXqv/1vmqskhBBCZIbEguQzN7n6DPz77u+z/sd/k+YqCSGEEJkh8T7JmW/zWhorIoQQQmQaGbgjhBBCmJAgKYQQQphIKEj+bLOCMrMq3XURQgghMkrcqbKafjLL4b//GrDwqx9LkBRCCHFviRskX/tprgzWEUIIcc+KGyRlcmUhhBD3sm9t2LDhT3e7EkIIIUQmktGtQgghhAkJkkIIIYQJCZJCCCGECQmSQgghhAkJkkIIIYQJCZJCCCGEif8HzCN1qZi45JQAAAAASUVORK5CYII=;" vertex="1" parent="1">
          <mxGeometry x="-1241.1" y="-330" width="251.1" height="50" as="geometry" />
        </mxCell>
        <mxCell id="X9pTo2VU-LmLKZ8eIbQH-44" style="edgeStyle=orthogonalEdgeStyle;rounded=0;orthogonalLoop=1;jettySize=auto;html=1;entryX=1;entryY=0.75;entryDx=0;entryDy=0;" edge="1" parent="1" source="78961159f06e98e8-24" target="X9pTo2VU-LmLKZ8eIbQH-43">
          <mxGeometry relative="1" as="geometry">
            <Array as="points">
              <mxPoint x="-900" y="226" />
              <mxPoint x="-900" y="-292" />
            </Array>
          </mxGeometry>
        </mxCell>
        <mxCell id="X9pTo2VU-LmLKZ8eIbQH-53" style="edgeStyle=orthogonalEdgeStyle;rounded=0;orthogonalLoop=1;jettySize=auto;html=1;entryX=0;entryY=0.5;entryDx=0;entryDy=0;shape=link;strokeColor=#FF0000;" edge="1" parent="1" source="X9pTo2VU-LmLKZ8eIbQH-52" target="X9pTo2VU-LmLKZ8eIbQH-43">
          <mxGeometry relative="1" as="geometry" />
        </mxCell>
        <mxCell id="X9pTo2VU-LmLKZ8eIbQH-52" value="" style="shape=image;verticalLabelPosition=bottom;labelBackgroundColor=default;verticalAlign=top;aspect=fixed;imageAspect=0;image=data:image/png,iVBORw0KGgoAAAANSUhEUgAAAVwAAABWCAYAAACD+i7+AAARQUlEQVR4nO3df3AUZZrA8a+HdxUEGmcSSfZkIL8M1gKJqVTOkqvEmCXlwUGIVK44UbeKCKGM4rLhlOIibAlLWWAlsIsHRUCo0hCXldIQKTgrGNmkxPMoKpsgW4smk2QH7zKYnSGNUe4O1vuje2Z6JjOTmWTS2R2ezz+S7unup389/fbTbb93zZkz53uEEEJMuL+a7ACEEOJOIQlXCCFMIglXCCFMIglXCCFMcnfggKqqqpA/zpr3AAD/uqVm4iISQog4NSLhAhxuPBz0x7tf3TWhwQghRDwLmnABvvvuu5ATffvttxMSjBBCxDOp4QohhElCtnABeOxbfvdTNwpT+WSPlWsmBSWEEPEoTAv3NsefdcN/pjC71Mqqj80LSggh4lHYhDtLmcqlT6aYF40QQsQxqeEKIYRJJOEKIYRJQifcx26RzF/zB6ndCiFETAR5S+EP/PvxbjJUCztKZ3DQ/JiEECIuBWnhzuEfVmUy+034SfMNXjc/JiGEiEuhSwof342T/2POYyZGI4QQcUwemgkhhEkk4QohhEnCJNwpXFO/Y1a6ecEIIUQ8C5twV71pIXnFV1xtdnFcarlCCDEuIT9eM3XqVPiPqeStSvQO271E++8999wz4YEJIUS8CZpw165ea3YcQggR90Yk3IGBAd57773JiEUIIeKavKUghBAmkYQrhBAmkYQrhBAmmYCEW8SrvzrN6TfWAmvZd/o07/6sKPaLMZ1hXYpf5d3Tp9m3brJjEkL8JfkzbOGuY8n7fTxTNcbJq86y7f1GUmIak3mW7NnNgabdvFRhHJpJxVva8ANNuzmw50fBJ654Pvx4IcSkmoCEew7HIAx/3Q1041Jh4L/OxX4xpjOsS6uDAYZx9cR4ERXPU5rYj131H7xkTyX5f/yQ58pe5rmyD7GnPc6umsyAiX/ES6VW7L03YhyUECJWwvfaO0aHX1jKYf3fP/vnwGS7jiXv15A/0/N3Nx8UL6YDyK3vY7knj5T3sa1c++f1T3fyy5pD2h9VZ9lW7ks2vSdSeXs/UNLIi1sWcS8AmVS29gXMX1tuUov+eyBlZxeV951he+XmoPP2Wy7nDOtymA1LDzPSWvadXkmG/T2WvhBsfDg/4qXSudib6/ljUSXe/92k6EmK0m5wYe9H+oCPaL6wiI3z8plHN1f0oUv2PE5674fsHVzExqQoFy2EMEXYhGuxWLh16xY3bgRvNY02PpiUnRvI//o425/YPGJcR2Vq0MTos4tnHrrI9uLF2p9VZ9lWfpbc/YvpaFnNL1v0YSXXqH9iNQMRR6XPu3wWF15L5UxLVBNGbNq0aSQkJHD7T7e57r7uN86TMJ87AhXGkne6FUXt5hNPrq94no35MwAr6aAl3IrnKU3rp7nsI6hZNDHBCyHGLWRJISEhAWWmgsVqGdP4sDLzyI1+KmAzb1caEvX+i/Qyi5SSMc0sCIUHisbzJOwwG5YuDdm6vX37NtNnTEdRFP8RRU9SlNZP808/Cjqd5ze7mnZzoBSayz7EjpUfFAFkUlE0F3vzv3FmHJELISZeyBbuzZs3UYdUbt26NabxoQzUZPNBfR/LW/tYTuBt++j8yg4AqAxGFUEom3n7NRsvbqlhW2sNxlJHLH1z45uAIZlUVOQy2Pxy6ISp5LJxYz/NZfpvip6kCBefn4N5NU9q9d0jMQ5UCBFzYUsKbrc77MSjjQ9FKx0A7OKZ1hpe3ElESTdlZxfLM42JcBfPtC4ZUwxBecoS+rIqW89CDJPuzZs3uXnzpv/AonzmKaCUaq1Xr9LdHCjqYO8RFypWruw1tGDTrSiqCzuZ/P28GaA8zoGmxw0TP86BpkVc2LuDI/HwvFKIODEhD80i183gEPgXJQ4x8HUN+Q/tAkbWeRm6xn/r/8ytX0VaYAv3y2tcL19AbglBa7GW+9cBh6DqLJWPKNAdPLKBr65FvzpjeWh27h02n3vHMCCTircqSTz3Mq8f0f6+UpFLfsWTfHLuHa7oJQT1yodcoZsrP34ZY+N2Xs1WNiad57mA8sTaN06zMh163l/KhshvKIQQMWRywg18QwHoPs72gNZtR+VxFrSuYlvrKsBXdhioOUNv6yrvGwjXPz1Pb+YC/0W0rObXRV1Ubukjfwv4SgOHOLP/MR7wlAyGzvPBp7NYfp8+XcAbCqBy4bXsmJcUotfNkR/Xw1uVbGzSKt/qhXo27wxxpQjhcGcPK9MzSPnbIkCavUJMhrvmzJnzvXHAypUr5Wth8aj4Vd79l3wGpIUrxKSZ5JKCmHhFvPqrl8lXpJwgxGSThBv3zgX5n0+EEJPhz/BbCkIIEZ8k4QohhEkk4QohhEkk4QohhEkk4QohhEkk4QohhEmkix2viY27sHgZTZsKWAOsKV9N07r5FMZs7kKMQXaBHIfjlV1A06ZlbE32P8dDkRbuZDPsMKNIdp4Ib035ao4VK6P/UAiTSBc7XhMbd9vgEKgueoAelwpulTaArnZO9ivkFdgMv7ZRlqtgb2nnaMwiEELEnNPFMENcdfqf46FMwrcUAj5g033c18WNobeHzx/yfPdW+4jMmRb0bnRm0V58kQWtq0gDGDrv17uD//dyDdPq4wq+3smv2aB9KQxDFz0R0r661cN7SzcQbSc6ISXP59jTafy+4RQ7nFrrtjqjl7pDl7WkjI26TQWke1erM2BcDm59WtBadotdp3iqVdXnbeVsbR8LPfPwmz4C2QU0lfguCMMd+ryzC2h62BU6Fs/4Zlj/dA7TAPrbKTvh8IvzIIVU52r7w97SSHWXZ0n+6+1driemrD7qXDneaT3jC4uXeYf5MSx71PUNMW8P/2WoXDRsf1DYum4Zed4QHJysNVw8I96ehmVZO/XYwx0L2nItnzVyKWs1K+aOjG3EtonoWPDN17dvIOj+NqyX/74cuezA8UF5j9+AxodxW41ynI1+/qRyqcHFYs+0AdtkTblnW/oEHg+RCtvCtVgszJgxY8zjg8mtr9G62ClOZXvxTi7ct4oXd/r3spBWriXG7cWpfNCtkP9PuwxjM1neuoTB11LZXnyc3pmLKNF7+E3Z2cXy+85TX5zK9uJU6j+F/C1n/XqXuPeRGq0fs+JU6j9VSSuJXQ+/CQkJJCYmkpiYOPqPjZyXOett5eqt28+MJ1EByR2nKKttpKz2FBfJobrcFn6efmys2JSDu6GRstp27EoOZdkRxp1dQFPJTC42NOrLb4zuQFNyqH7aytnaRsoaOhmem+NXPpmWqyeT2kbqOlTSH/bUFAPXux1n7jLqDHEzt8A7bVmLg2m5OawB2lq1aU72ayeGJ+7AZBt2vY3zbuiE3EJf3MnzKaPNO9+6Dsgr9dVCC4sLyXO3+5brlyxs1IXank4Xw4qVjNAbM6JjIb1Eu5Bp28Bw95RdQHXuECc9cbUEv/gkJiZisRg/mqpy1Q3JSeHKMzbqsvp869ziIL3EUBJLns9647JrRybboPvDqeJkJrMDSm4jN02o4yySbWZjhWfawPMju4AVcx163Ke4qAL97WNKtmB6Fzu7WJDZzQfeFu0hzrR0c+8PH/NPet3HvR8k7/htN9xn8xvfe8LTat3M592eb9zuouQRhd4WX2t3oGYfF4YyWWDscn3oPPX68gfOfc71mbP4QRRrcPiFpSwN07qdPmM606ZPi2KOmqMn2rHPzaGuPId0tZMmz8GYnUOe4uCsdwer7GjuZHhualT1XXuLp5Xj4FL/yJMneNwKWx+2MdzRZmi9RUvlYoOecJwOfq8qWIwnj9pJnZ4I2y73+hJOso0H6eSgd70dNHWopGfZgk5LVx/2SE7MACH3l3HegXE7L1NtOOH84vYIu38UHpwfJHk5Vbyb2fBAK8OqMOwaivxYMCSEo184wKJQqO/L0cpUCQkJTJ8xnRmKf0Oqx+VZpsLWdau1C1+yQrJ+Ow0Oqo0XtKD7w8ZC4wUziJH7Ywi3Z9HJ8zmmP9coTJrpK8vp2yLocRbRNjNMG3B+rMmyQX+fPk7lNz2qvj3HxtwudkpsWMj0dq/jNeT/se/e3xr7LVvMdr9b/m4+N/xt7D0CVAa/DB/C9d997Otc0tDDQyxMmTKFb258w+0/3R7D1A6aOnKozoWLDQG3eKPUhSKZ9yVDa+LoiUa/ky503DOxKOAcHNvVHAC1l994s4jKjkONfqOHexy+dXVe5qla/d/JVqYpNqo35VBtnKB/7KEEinZ/aSehysiSAYAv2bS1niLDupoVm1azgsDbTwfVDZ0ce3oZ2ueNjeWGIdyqlqTWZIHd7Uvi3n0QwbFg/8KY+Nop6wJQeDSitSToNmkbHKI6ayYkK1jcDkhSwOkfz8hbb5WLnn86L/NUi5WmktU0lRC0lBF8f6hcdSssTIbCJCvOfpidDD2gXYS8PwtxnGUzrvOnx6VCbiprcHAUhUczFP9jNkqT0MXOxPQVplFIegDwJtFMkmaG+XmMDQ8PMzw8PObp2waHqAa9xWCgt568OznZSvRt6NBCx621LsbQTWhsRFtrjlK0+8uT9NaULyOPTupq9dj0OqOR76Jmo27TMo5hSLrOyzxVexnQ65qbCqC2naPe5GLDYnHR9JmVsmwFt0XF7QSSmfBjIWg3UKCVOx5WWDM/Db5ow51lozDZyjR3H236emi33u2G9c7xn4c3+WvJuXodYNi/ofZHj0tlcZKNRzPgUrOLhfMVMqwKzi8ibAiMY5tp56TNe/FE7aRujOUEMPu1sJaP+XIok+X1u0b/bdS08oKxJpuycwlpQ+dpieKh2GjWvnGa06f3sTZ2swyvqw87NhZ7X2/y3OZ3Glqpvttd7cCP1cK1Wyi/Wlwg7620VitLD/W7aHX1YVdyWD+O17p6XCrTMmzjfs+0sLiQPMX/LsF3O6uwtTQnzAlsuCUOom1waOTAJAV6HLQ5XSRn5WBR9Nv2iI6FULQ6rLckkzyfYyXRPAfQzLYOcalL5SpplGXNDGhlGlu74Y8FX4kiUgoWdx9HnSpk5LDQcxEazbi2macM46s7l42zAWDy93APceYJ4P0ab/c5EH3PvaF0VKZCfZ+3Cx6tNe2r6f5lclBd207dJs8tKNoTWOMtaovDd6vW387J/gIWx2jpba2ngGVUe67wGG6Ru9o5meW7dba3tGMvyQkzt2gEWW8ifLLtjb2NRzOW+coSkb6lANpDGG85w/8tg6PtnSx+uoCmTXpMHZ0M53pauEHKDcb9FfAk3/MWgWfePS6VFblpXGy4rNUiLTnkqZ006XGEPxbCO3qinYWbPHE7ONnQyeLS0abSOVWcSgF57nZ2AHwxRFOJDbveymxr7aQst8C7zYY7OrHPTfNOPvLNEQcnayNLXm2DQ1SX5ECLVia45NYfZEX0XGE820xlx2eGc8s7eOx3XtLFjhCBQryeJe40wV6H04Y92DMBr4UJIcSdS3to7CfZxoPjeJAsXewIIURQAeU6XTRlrUCScIUIZHiaLu5wMT4WpKQghBAmGdHCTUlJoaqqKthvAdi/P4bvWAkhxB0kaElh35v7gv54w7MbJjQYIYSIZ1JSEEIIk0jCFUIIkwRNuOtfcXG1+SuuNnzLerMjEkKIOBU04R78uZXZpffzzqCbn7wyli9fCSGECBS2pPDSJQUlSRKuEELEgtRwhRDCJJJwhRDCJOETrn0Kavr/8LpJwQghRDwLn3A/vocf7pnCPzZ/xdW9/2tSSEIIEZ/CJ9xnb3D1WfhF6f3M3vg3JoUkhBDxafQa7uDdHDQhECGEiHfy0EwIIUwiCVcIIUwSNuG+vlBFHZxiVixCCBHXgn6ecf0rLrb+3XeAwjsbJeEKIUQsBE24B39ulQdlQggRY0ETrnxoXAghYu+uOXPmfD/ZQQghxJ1A3lIQQgiTSMIVQgiTSMIVQgiTSMIVQgiT/D/zT6LT3yAHLQAAAABJRU5ErkJggg==;" vertex="1" parent="1">
          <mxGeometry x="-1560" y="-330" width="190" height="46.95" as="geometry" />
        </mxCell>
        <mxCell id="X9pTo2VU-LmLKZ8eIbQH-55" value="&lt;h1&gt;&lt;span style=&quot;background-color: initial;&quot;&gt;BACKEND&lt;/span&gt;&lt;/h1&gt;&lt;h1&gt;&lt;span style=&quot;background-color: initial; font-size: 12px; font-weight: normal;&quot;&gt;psum dolor sit amet, consectetur adipisicing elit, sed do eiusmod tempor incididunt ut labore et dolore magna aliqua.&lt;/span&gt;&lt;br&gt;&lt;/h1&gt;" style="text;html=1;strokeColor=none;fillColor=none;spacing=5;spacingTop=-20;whiteSpace=wrap;overflow=hidden;rounded=0;" vertex="1" parent="1">
          <mxGeometry x="400" y="920" width="260" height="170" as="geometry" />
        </mxCell>
      </root>
    </mxGraphModel>
  </diagram>
</mxfile>
